<?xml version="1.0" encoding="UTF-8"?>
<svg width="40px" height="37px" viewBox="0 0 40 37" version="1.1" xmlns="http://www.w3.org/2000/svg" xmlns:xlink="http://www.w3.org/1999/xlink">
    <!-- Generator: Sketch 53.2 (72643) - https://sketchapp.com -->
    <title>Group 4</title>
    <desc>Created with Sketch.</desc>
    <g id="Working-Vers-of-Verticle-Slice" stroke="none" stroke-width="1" fill="none" fill-rule="evenodd">
        <g id="L2---Rebuilt-Landing-Page-v1---Releasing" transform="translate(-387.000000, -1049.000000)">
            <g id="Group-4" transform="translate(387.000000, 1049.000000)">
                <g id="web">
                    <path d="M35.8178537,0.832487805 L4.18214634,0.832487805 C2.34312195,0.832487805 0.852097561,2.3235122 0.852097561,4.16253659 L0.852097561,24.1430244 L39.148,24.1430244 L39.148,4.16253659 C39.148,2.32360976 37.656878,0.832487805 35.8178537,0.832487805 Z" id="Path" fill="#417505"></path>
                    <path d="M35.8178537,0.832487805 L31.3780488,0.832487805 L8.0675122,24.143122 L39.148,24.143122 L39.148,4.16263415 C39.148,2.32360976 37.656878,0.832487805 35.8178537,0.832487805 Z" id="Path" fill="#7ED321"></path>
                    <g id="Group" transform="translate(0.780488, 24.097561)" fill="#9B9B9B">
                        <polygon id="Path" points="23.9764878 10.8682927 22.549561 5.87317073 15.8894634 5.87317073 14.4625366 10.8682927 10.8943415 10.8682927 10.8943415 12.5333659 27.5446829 12.5333659 27.5446829 10.8682927"></polygon>
                        <path d="M0.0715121951,2.54312195 C0.0715121951,4.38214634 1.56253659,5.87317073 3.40156098,5.87317073 L35.0373659,5.87317073 C36.8763902,5.87317073 38.3674146,4.38214634 38.3674146,2.54312195 L38.3674146,0.0455609756 L0.0715121951,0.0455609756 L0.0715121951,2.54312195 Z" id="Path"></path>
                    </g>
                    <path d="M39.9804878,26.6406829 L39.9804878,4.16263415 C39.9779512,1.86487805 38.1156098,0.00253658537 35.8178537,0 L4.18214634,0 C1.88439024,0.00253658537 0.0220487805,1.86487805 0.0195121951,4.16263415 L0.0195121951,26.6406829 C0.0220487805,28.938439 1.88439024,30.8007805 4.18214634,30.8033171 L15.5660488,30.8033171 L14.3771707,34.9658537 L11.6748293,34.9658537 L11.6748293,36.6309268 L28.3252683,36.6309268 L28.3252683,34.9658537 L25.6229268,34.9658537 L24.4340488,30.8032195 L35.8179512,30.8032195 C38.1156098,30.8007805 39.9779512,28.938439 39.9804878,26.6406829 Z M4.18214634,1.66507317 L35.8179512,1.66507317 C37.1974634,1.66507317 38.3155122,2.78312195 38.3155122,4.16263415 L38.3155122,23.3106341 L1.68458537,23.3106341 L1.68458537,4.16263415 C1.68458537,2.78312195 2.80263415,1.66507317 4.18214634,1.66507317 Z M23.8912195,34.9658537 L16.1087805,34.9658537 L17.2976585,30.8032195 L22.7023415,30.8032195 L23.8912195,34.9658537 Z M35.8178537,29.1382439 L4.18214634,29.1382439 C2.80263415,29.1382439 1.68458537,28.0201951 1.68458537,26.6406829 L1.68458537,24.9756098 L38.3155122,24.9756098 L38.3155122,26.6406829 C38.3154146,28.0200976 37.1973659,29.1382439 35.8178537,29.1382439 Z" id="Shape" fill="#000000" fill-rule="nonzero"></path>
                    <g id="api" transform="translate(9.000000, 3.000000)" fill="#000000">
                        <path d="M19.6304348,1.81825413 L12.515087,1.81825413 L10.8227609,0.133292425 C10.6442609,-0.0444308084 10.3557391,-0.0444308084 10.1772391,0.133292425 L8.48491304,1.81825413 L1.36956522,1.81825413 C0.614478261,1.81825413 0,2.43005841 0,3.1818595 L0,4.54546488 C0,4.79636826 0.204065217,5 0.456521739,5 C0.708978261,5 0.913043478,4.79636826 0.913043478,4.54546488 L0.913043478,3.1818595 C0.913043478,2.93141065 1.11756522,2.72732438 1.36956522,2.72732438 L8.67391304,2.72732438 C8.79534783,2.72732438 8.91130435,2.67959819 8.99667391,2.59414559 L10.5,1.09736142 L12.0033261,2.59414559 C12.0886957,2.67959819 12.2046522,2.72732438 12.326087,2.72732438 L19.6304348,2.72732438 C19.8824348,2.72732438 20.0869565,2.93141065 20.0869565,3.1818595 L20.0869565,4.54546488 C20.0869565,4.79636826 20.2910217,5 20.5434783,5 C20.7959348,5 21,4.79636826 21,4.54546488 L21,3.1818595 C21,2.43005841 20.3855217,1.81825413 19.6304348,1.81825413 Z" id="Path"></path>
                        <path d="M20.5434783,14 C20.2910217,14 20.0869565,14.2036364 20.0869565,14.4545455 L20.0869565,15.8181818 C20.0869565,16.0686364 19.8824348,16.2727273 19.6304348,16.2727273 L12.326087,16.2727273 C12.2046522,16.2727273 12.0886957,16.3204545 12.0033261,16.4059091 L10.5,17.9027273 L8.99667391,16.4059091 C8.91130435,16.3204545 8.79534783,16.2727273 8.67391304,16.2727273 L1.36956522,16.2727273 C1.11756522,16.2727273 0.913043478,16.0686364 0.913043478,15.8181818 L0.913043478,14.4545455 C0.913043478,14.2036364 0.708978261,14 0.456521739,14 C0.204065217,14 0,14.2036364 0,14.4545455 L0,15.8181818 C0,16.57 0.614478261,17.1818182 1.36956522,17.1818182 L8.48491304,17.1818182 L10.1772391,18.8668182 C10.2662609,18.9554545 10.3831304,19 10.5,19 C10.6168696,19 10.7337391,18.9554545 10.8227609,18.8668182 L12.515087,17.1818182 L19.6304348,17.1818182 C20.3855217,17.1818182 21,16.57 21,15.8181818 L21,14.4545455 C21,14.2036364 20.7959348,14 20.5434783,14 Z" id="Path"></path>
                    </g>
                </g>
                <text id="REST" font-family="SegoeUI-Bold, Segoe UI" font-size="10" font-weight="bold" fill="#000000">
                    <tspan x="8" y="16">REST</tspan>
                </text>
            </g>
        </g>
    </g>
</svg>