<?xml version="1.0" encoding="UTF-8"?>
<svg width="40px" height="41px" viewBox="0 0 40 41" version="1.1" xmlns="http://www.w3.org/2000/svg" xmlns:xlink="http://www.w3.org/1999/xlink">
    <!-- Generator: Sketch 53.2 (72643) - https://sketchapp.com -->
    <title>web-startup</title>
    <desc>Created with Sketch.</desc>
    <g id="Working-Vers-of-Verticle-Slice" stroke="none" stroke-width="1" fill="none" fill-rule="evenodd">
        <g id="L1---Rebuilt-Landing-Page-v4---End-Goal" transform="translate(-465.000000, -810.000000)">
            <g id="web-startup" transform="translate(465.000000, 810.000000)">
                <path d="M3.99676007,4 L30.6188336,4 C31.7217287,4 32.6155937,4.89386495 32.6155937,5.99676 L32.6155937,27.2943144 C32.6155937,28.3972094 31.7217287,29.2910744 30.6188336,29.2910744 L3.99676007,29.2910744 C2.89386502,29.2910744 2,28.3972094 2,27.2943144 L2,5.99676 C2,4.89386495 2.89386502,4 3.99676007,4 Z" id="Path" fill="#7ED321"></path>
                <path d="M36.6188336,5 L30.6288148,5 L8,26.6288148 L38.6153324,26.6288148 L38.6153324,6.90852036 C38.6155936,5.85436377 37.7217287,5 36.6188336,5 Z" id="Path" fill="#417505"></path>
                <polygon id="Path" fill="#F5A623" points="25.5296402 11.2582117 14 11.2582117 20.1480793 1"></polygon>
                <polygon id="Path" fill="#DADDDF" points="25.2956468 38.9897575 23.3760515 33 16.2659844 33 14.3461101 38.9897575 12 38.9897575 12 40.321018 27.642036 40.321018 27.642036 38.9897575"></polygon>
                <polygon id="Path" fill="#C1C7C9" points="24.8535221 35.9964988 24.1021407 34 15.7517093 34 15 35.9964988"></polygon>
                <path d="M1,27 L1,29.9964334 C1,31.6517069 1.89386495,32.9932588 2.99676,32.9932588 L37.6053512,32.9932588 C38.7082462,32.9932588 39.6021112,31.6517069 39.6021112,29.9964334 L39.6021112,27 L1,27 Z" id="Path" fill="#DADDDF"></path>
                <path d="M36.6550345,2.94289655 L23.3182069,2.94289655 C21.9954483,1.23958621 20.754069,0.290206897 20.6433103,0.207172414 C20.2755862,-0.0691034483 19.7691034,-0.0689655172 19.4011034,0.207310345 C19.2903448,0.290482759 18.0495172,1.23972414 16.7274483,2.94289655 L3.2742069,2.94289655 C1.48689655,2.94289655 0.0328275862,4.39696552 0.0328275862,6.18427586 L0.0328275862,31.1806897 C0.0328275862,32.968 1.48689655,34.422069 3.2742069,34.422069 L14.3408276,34.422069 L12.9198621,38.6875862 L11.5662069,38.6875862 C10.9947586,38.6875862 11.0001571,39.1506207 11.0001571,39.722069 C11.0001571,40.2935172 10.9947586,40.7565517 11.5662069,40.7565517 L13.6623448,40.7565517 C13.6667586,40.7568276 13.668,40.7565517 13.6691034,40.7565517 L26.2598621,40.7565517 L28.3628966,40.7565517 C28.9343448,40.7565517 28.8912195,40.2935172 28.8912195,39.722069 C28.8912195,39.1506207 28.9343448,38.6875862 28.3628966,38.6875862 L27.0089655,38.6875862 L25.5881379,34.422069 L36.6547586,34.422069 C38.442069,34.422069 39.8961379,32.968 39.8961379,31.1806897 L39.8961379,6.18427586 C39.8964138,4.39696552 38.4423448,2.94289655 36.6550345,2.94289655 Z M36.6550345,5.01186207 C37.3013793,5.01186207 37.8274483,5.5377931 37.8274483,6.18427586 L37.8274483,25.6055172 L29.3976552,25.6055172 L29.3976552,19.1245517 C29.3976552,17.3783448 28.2198621,15.9033103 26.617931,15.4507586 L26.617931,12.1663448 C26.617931,9.30937931 25.7611034,6.90165517 24.6961379,5.01186207 L36.6550345,5.01186207 Z M15.3244138,22.4802759 C15.4375172,22.3104828 15.497931,22.1108966 15.497931,21.9068966 L15.497931,21.5722759 L17.5995862,21.5722759 L17.5995862,23.0868966 C17.5995862,23.792 18.0677241,24.7958621 18.5222069,25.6055172 L13.2433103,25.6055172 L15.3244138,22.4802759 Z M24.5489655,16.3413793 L24.5489655,19.5033103 L22.448,19.5033103 L22.448,17.9433103 C22.448,16.4895172 21.3598621,15.3068966 20.0224828,15.3068966 C18.6866207,15.3068966 17.5997241,16.4895172 17.5997241,17.9433103 L17.5997241,19.5033103 L15.497931,19.5033103 L15.497931,16.3413793 L15.497931,12.6471724 L24.5489655,12.6471724 L24.5489655,16.3413793 L24.5489655,16.3413793 Z M22.4478621,23.0870345 L22.4478621,21.5724138 L24.5488276,21.5724138 L24.5488276,21.9070345 C24.5488276,22.1111724 24.6092414,22.3106207 24.7222069,22.4802759 L26.8033103,25.6056552 L21.5237241,25.6056552 C21.9791724,24.7958621 22.4478621,23.7921379 22.4478621,23.0870345 Z M20.0223448,2.40193103 C21.2275862,3.53062069 23.8125517,6.37158621 24.4188966,10.4293793 L15.6278621,10.4293793 C16.234069,6.37075862 18.8186207,3.5297931 20.0223448,2.40193103 Z M3.2742069,5.01186207 L15.350069,5.01186207 C14.2855172,6.90165517 13.4289655,9.30937931 13.4289655,12.1663448 L13.4289655,15.4508966 C11.8268966,15.9034483 10.6489655,17.3784828 10.6489655,19.1246897 L10.6489655,25.6056552 L2.1017931,25.6056552 L2.1017931,6.18427586 C2.1017931,5.5377931 2.62772414,5.01186207 3.2742069,5.01186207 Z M24.8285517,38.6875862 L15.1005517,38.6875862 L16.5215172,34.422069 L23.4078621,34.422069 L24.8285517,38.6875862 Z M36.6550345,32.3531034 L3.2742069,32.3531034 C2.62772414,32.3531034 2.1017931,31.8270345 2.1017931,31.1806897 L2.1017931,27.6744828 L37.8275862,27.6744828 L37.8275862,31.1806897 C37.8274483,31.8271724 37.3015172,32.3531034 36.6550345,32.3531034 Z" id="Shape" fill="#000000" fill-rule="nonzero"></path>
                <path d="M27.3286897,22.6615172 L26.617931,21.594069 L26.617931,17.7171034 C27.0488276,18.0358621 27.3286897,18.5481379 27.3286897,19.1246897 L27.3286897,22.6615172 Z" id="Path" fill="#F5A623" fill-rule="nonzero"></path>
                <path d="M19.6685517,23.0870345 L19.6685517,17.9434483 C19.6685517,17.5969655 19.8782069,17.376 20.0223448,17.376 C20.1677241,17.376 20.3788966,17.5971034 20.3788966,17.9434483 L20.3790345,23.0808276 C20.3696552,23.2391724 20.2317241,23.5867586 20.0227586,24.0091034 C19.8150345,23.5882759 19.6777931,23.2430345 19.6685517,23.0870345 Z" id="Path" fill="#F5A623" fill-rule="nonzero"></path>
                <path d="M12.7177931,22.6617931 L12.7177931,19.1245517 C12.7177931,18.5478621 12.9977931,18.0354483 13.4288276,17.7168276 L13.4288276,21.593931 L12.7177931,22.6617931 Z" id="Path" fill="#F5A623" fill-rule="nonzero"></path>
            </g>
        </g>
    </g>
</svg>