<?xml version="1.0" encoding="UTF-8"?>
<svg width="36px" height="32px" viewBox="0 0 36 32" version="1.1" xmlns="http://www.w3.org/2000/svg" xmlns:xlink="http://www.w3.org/1999/xlink">
    <!-- Generator: Sketch 53.2 (72643) - https://sketchapp.com -->
    <title>responsive</title>
    <desc>Created with Sketch.</desc>
    <g id="Working-Vers-of-Verticle-Slice" stroke="none" stroke-width="1" fill="none" fill-rule="evenodd">
        <g id="L1---Rebuilt-Landing-Page-v4---End-Goal" transform="translate(-470.000000, -412.000000)">
            <g id="responsive" transform="translate(470.000000, 412.000000)">
                <path d="M2.4000471,0.622801508 C1.40577889,0.622801508 0.599952905,1.4286275 0.599952905,2.42266016 L0.599952905,21.0226131 L33,21.0226131 L33,2.42266016 C33,1.4286275 32.194174,0.622801508 31.1999058,0.622801508 L2.4000471,0.622801508 Z" id="Path" fill="#2BC7F4"></path>
                <path d="M31.1999058,0.622801508 L28.3996546,0.622801508 L7.99984293,21.0226131 L33,21.0226131 L33,2.42266016 C33,1.4286275 32.194174,0.622801508 31.1999058,0.622801508 Z" id="Path" fill="#3E8CC7"></path>
                <polygon id="Path" fill="#DADDDF" points="22.0199434 30.0228486 20.4000471 24.6228015 14.4000471 24.6228015 12.7799152 30.0228486 10.7998587 30.0228486 10.7998587 31.2227544 24 31.2227544 24 30.0228486"></polygon>
                <path d="M0.599952905,21.0226131 L0.599952905,22.8227073 C0.599952905,23.8169755 1.40577889,24.6228015 2.4000471,24.6228015 L31.1999058,24.6228015 C32.194174,24.6228015 33,23.8169755 33,22.8227073 L33,21.0226131 L0.599952905,21.0226131 Z" id="Path" fill="#DADDDF"></path>
                <polygon id="Path" fill="#C1C7C9" points="20.939934 26.4226602 20.4000471 24.6228015 14.4000471 24.6228015 13.8599246 26.4226602"></polygon>
                <polygon id="Path" fill="#55D2F6" points="3 3.0228486 30.5999529 3.0228486 30.5999529 21.0228486 3 21.0228486"></polygon>
                <polygon id="Path" fill="#E34B87" points="5.4000471 10.2227544 11.4000471 10.2227544 11.4000471 15.0226131 5.4000471 15.0226131"></polygon>
                <polygon id="Path" fill="#E34B87" points="13.8000942 10.2227544 19.8000942 10.2227544 19.8000942 15.0226131 13.8000942 15.0226131"></polygon>
                <polygon id="Path" fill="#E34B87" points="22.1999058 10.2227544 28.1999058 10.2227544 28.1999058 15.0226131 22.1999058 15.0226131"></polygon>
                <polygon id="Path" fill="#E34B87" points="5.4000471 17.4226602 11.4000471 17.4226602 11.4000471 21.0228486 5.4000471 21.0228486"></polygon>
                <polygon id="Path" fill="#E34B87" points="13.8000942 17.4226602 19.8000942 17.4226602 19.8000942 21.0228486 13.8000942 21.0228486"></polygon>
                <polygon id="Path" fill="#E34B87" points="22.1999058 17.4226602 28.1999058 17.4226602 28.1999058 21.0228486 22.1999058 21.0228486"></polygon>
                <polygon id="Path" fill="#5EB3D1" points="3 7.22275441 30.5999529 7.22275441 30.5999529 8.42289576 3 8.42289576"></polygon>
                <polygon id="Path" fill="#5EB3D1" points="5.4000471 4.82270726 9 4.82270726 9 6.0228486 5.4000471 6.0228486"></polygon>
                <path d="M24.1104742,15.0226131 C24.0388662,15.2145886 24.0018844,15.4181062 24,15.6228015 L24,17.4226602 L28.1999058,17.4226602 L28.1999058,15.0226131 L24.1104742,15.0226131 Z" id="Path" fill="#5EB3D1"></path>
                <polygon id="Path" fill="#BF3D75" points="24 17.4226602 25.2001413 17.4226602 25.2001413 21.0228486 24 21.0228486"></polygon>
                <polygon id="Path" fill="#C1C7C9" points="24 21.0226131 25.2001413 21.0226131 25.2001413 24.6228015 24 24.6228015"></polygon>
                <path d="M28.1999058,13.8227073 L25.8000942,13.8227073 C25.0392588,13.8238851 24.3625157,14.3051193 24.1104742,15.0228486 L28.1999058,15.0228486 L28.1999058,13.8227073 Z" id="Path" fill="#BF3D75"></path>
                <path d="M33.5999529,12.6228015 L27,12.6228015 C26.0057318,12.6228015 25.1999058,13.4286275 25.1999058,14.4226602 L25.1999058,27.6228015 L35.4000471,27.6228015 L35.4000471,14.4226602 C35.4000471,13.4286275 34.5942211,12.6228015 33.5999529,12.6228015 Z" id="Path" fill="#87CED9"></path>
                <polygon id="Path" fill="#E34B87" points="27.5999529 17.4226602 33 17.4226602 33 22.2227544 27.5999529 22.2227544"></polygon>
                <polygon id="Path" fill="#E34B87" points="27.5999529 24.6228015 33 24.6228015 33 27.6228015 27.5999529 27.6228015"></polygon>
                <path d="M25.1999058,28.8227073 C25.1999058,29.8169755 26.0057318,30.6228015 27,30.6228015 L33.5999529,30.6228015 C34.5942211,30.6228015 35.4000471,29.8169755 35.4000471,28.8227073 L35.4000471,27.6228015 L25.1999058,27.6228015 L25.1999058,28.8227073 Z" id="Path" fill="#DADDDF"></path>
                <polygon id="Path" fill="#5EB3D1" points="27.5999529 14.4226602 33 14.4226602 33 15.6228015 27.5999529 15.6228015"></polygon>
                <path d="M1.20014135,2.42266016 C1.20014135,1.75981471 1.73696611,1.22275441 2.4000471,1.22275441 L31.2001413,1.22275441 C31.8629868,1.22275441 32.4000471,1.75981471 32.4000471,2.42266016 L32.4000471,12.0228486 L33.5999529,12.0228486 L33.6001884,2.42266016 C33.6001884,1.09744034 32.5253612,0.022848603 31.2001413,0.022848603 L2.4000471,0.022848603 C1.07459168,0.022848603 0,1.09744034 0,2.42266016 L0,22.8227073 C0,24.1481627 1.07459168,25.2227544 2.4000471,25.2227544 L12.9935615,25.2227544 L11.5536275,30.0226131 L10.1999058,30.0226131 L10.1999058,31.2227544 L23.4000471,31.2227544 L23.4000471,30.0226131 L22.0463253,30.0226131 L20.6063913,25.2227544 L24.6727273,25.2 L24.6727273,24.2 L2.4000471,24.0226131 C1.73696611,24.0226131 1.19990581,23.4857883 1.19990581,22.8227073 L1.19990581,21.622566 L24.6727273,21.622566 L24.7630061,20.4226602 L1.20014135,20.4226602 L1.20014135,2.42266016 Z M14.2464667,25.2227544 L19.3534862,25.2227544 L20.7936558,30.0226131 L12.8062971,30.0226131 L14.2464667,25.2227544 Z" id="Shape" fill="#000000" fill-rule="nonzero"></path>
                <path d="M31.1999058,12.0228486 L31.1999058,3.0228486 C31.1999058,2.69166145 30.9311401,2.42289576 30.5999529,2.42289576 L3,2.42289576 C2.66881278,2.42289576 2.4000471,2.69166145 2.4000471,3.0228486 L2.4000471,20.4091797 L3.5999529,20.4091797 L3.5999529,8.42266016 L30,8.42266016 L30,12.0228486 L31.1999058,12.0228486 Z M3.5999529,7.22275441 L3.5999529,3.62280151 L30,3.62280151 L30,7.22275441 L3.5999529,7.22275441 Z" id="Shape" fill="#000000" fill-rule="nonzero"></path>
                <polygon id="Path" fill="#000000" points="5.4000471 4.82270726 18 4.82270726 18 6.0228486 5.4000471 6.0228486"></polygon>
                <polygon id="Path" fill="#000000" points="23 4.82270732 26.6001884 4.82270732 26.6001884 6.02284866 23 6.02284866"></polygon>
                <path d="M12,10.2227544 C12,9.8915672 11.7312343,9.62280151 11.4000471,9.62280151 L5.4000471,9.62280151 C5.06885994,9.62280151 4.80009419,9.8915672 4.80009419,10.2227544 L4.80009419,15.0226131 C4.80009419,15.3540358 5.06885994,15.6228015 5.4000471,15.6228015 L11.4000471,15.6228015 C11.7312343,15.6228015 12,15.3538003 12,15.0226131 L12,10.2227544 Z M10.7998587,14.4226602 L6,14.4226602 L6,10.8227073 L10.7998587,10.8227073 L10.7998587,14.4226602 Z" id="Shape" fill="#000000" fill-rule="nonzero"></path>
                <path d="M20.4000471,10.2227544 C20.4000471,9.8915672 20.1310459,9.62280151 19.8000942,9.62280151 L13.8000942,9.62280151 C13.468907,9.62280151 13.2001413,9.8915672 13.2001413,10.2227544 L13.2001413,15.0226131 C13.2001413,15.3540358 13.468907,15.6228015 13.8000942,15.6228015 L19.8000942,15.6228015 C20.1312814,15.6228015 20.4000471,15.3538003 20.4000471,15.0226131 L20.4000471,10.2227544 Z M19.1999058,14.4226602 L14.4000471,14.4226602 L14.4000471,10.8227073 L19.1999058,10.8227073 L19.1999058,14.4226602 Z" id="Shape" fill="#000000" fill-rule="nonzero"></path>
                <path d="M22.7998587,10.8227073 L28.7998587,10.8227073 L28.7998587,10.2227544 C28.7998587,9.8915672 28.531093,9.62280151 28.1999058,9.62280151 L22.1999058,9.62280151 C21.8687186,9.62280151 21.5999529,9.8915672 21.5999529,10.2227544 L21.5999529,15.0226131 C21.5999529,15.3540358 21.8689541,15.6228015 22.1999058,15.6228015 L23.4000471,15.6228015 L23.4000471,14.4226602 L22.8000942,14.4226602 L22.8000942,10.8227073 L22.7998587,10.8227073 Z" id="Path" fill="#000000"></path>
                <path d="M12,19.2227544 L12,17.4226602 C12,17.091473 11.7312343,16.8227073 11.4000471,16.8227073 L5.4000471,16.8227073 C5.06885994,16.8227073 4.80009419,17.0917085 4.80009419,17.4226602 L4.80009419,19.2227544 L6,19.2227544 L6,18.0228486 L10.8000942,18.0228486 L10.8000942,19.2227544 L12,19.2227544 Z" id="Path" fill="#000000"></path>
                <path d="M20.4000471,19.2227544 L20.4000471,17.4226602 C20.4000471,17.091473 20.1310459,16.8227073 19.8000942,16.8227073 L13.8000942,16.8227073 C13.468907,16.8227073 13.2001413,17.0917085 13.2001413,17.4226602 L13.2001413,19.2227544 L14.4000471,19.2227544 L14.4000471,18.0228486 L19.2001413,18.0228486 L19.2001413,19.2227544 L20.4000471,19.2227544 Z" id="Path" fill="#000000"></path>
                <path d="M21.5999529,17.4226602 L21.5999529,19.2227544 L22.8000942,19.2227544 L22.8000942,18.0228486 L23.4000471,18.0228486 L23.4000471,16.8227073 L22.1999058,16.8227073 C21.8687186,16.8227073 21.5999529,17.091473 21.5999529,17.4226602 Z" id="Path" fill="#000000"></path>
                <path d="M33.5999529,12.0228486 L27,12.0228486 C25.6745446,12.0228486 24.5999529,13.0974403 24.5999529,14.4226602 L24.5999529,28.8227073 C24.5999529,30.1481627 25.6745446,31.2227544 27,31.2227544 L33.5999529,31.2227544 C34.9254083,31.2227544 36,30.1481627 36,28.8227073 L36,14.4226602 C36,13.0974403 34.9254083,12.0228486 33.5999529,12.0228486 Z M34.7998587,28.8227073 C34.7998587,29.4857883 34.2630339,30.0228486 33.5999529,30.0228486 L27,30.0228486 C26.336919,30.0228486 25.7998587,29.4857883 25.7998587,28.8227073 L25.7998587,28.2227544 L34.7998587,28.2227544 L34.7998587,28.8227073 Z M34.7998587,27.0226131 L25.8000942,27.0226131 L25.8000942,14.4226602 C25.8000942,13.7598147 26.336919,13.2227544 27,13.2227544 L33.5999529,13.2227544 C34.2630339,13.2227544 34.8000942,13.7598147 34.8000942,14.4226602 L34.8000942,27.0226131 L34.7998587,27.0226131 Z" id="Shape" fill="#000000" fill-rule="nonzero"></path>
                <path d="M33,16.8227073 L27.5999529,16.8227073 C27.2687657,16.8227073 27,17.091473 27,17.4226602 L27,22.2227544 C27,22.5539416 27.2687657,22.8227073 27.5999529,22.8227073 L33,22.8227073 C33.3311872,22.8227073 33.5999529,22.5539416 33.5999529,22.2227544 L33.5999529,17.4226602 C33.5999529,17.091473 33.3311872,16.8227073 33,16.8227073 Z M32.4000471,21.6228015 L28.1999058,21.6228015 L28.1999058,18.0228486 L32.4000471,18.0228486 L32.4000471,21.6228015 Z" id="Shape" fill="#000000" fill-rule="nonzero"></path>
                <path d="M33,24.0228486 L27.5999529,24.0228486 C27.2687657,24.0228486 27,24.2916144 27,24.6228015 L27,25.8227073 L28.1999058,25.8227073 L28.1999058,25.2227544 L32.4000471,25.2227544 L32.4000471,25.8227073 L33.5999529,25.8227073 L33.5999529,24.6228015 C33.5999529,24.2916144 33.3311872,24.0228486 33,24.0228486 Z" id="Path" fill="#000000"></path>
                <polygon id="Path" fill="#000000" points="27 14.4226602 33.5999529 14.4226602 33.5999529 15.6228015 27 15.6228015"></polygon>
            </g>
        </g>
    </g>
</svg>