<?xml version="1.0" encoding="UTF-8"?>
<svg width="40px" height="31px" viewBox="0 0 40 31" version="1.1" xmlns="http://www.w3.org/2000/svg" xmlns:xlink="http://www.w3.org/1999/xlink">
    <!-- Generator: Sketch 53.2 (72643) - https://sketchapp.com -->
    <title>login</title>
    <desc>Created with Sketch.</desc>
    <g id="Working-Vers-of-Verticle-Slice" stroke="none" stroke-width="1" fill="none" fill-rule="evenodd">
        <g id="L2---Bucketed-Landing-Template---Getting-Started---v2" transform="translate(-470.000000, -1383.000000)">
            <g id="login" transform="translate(470.000000, 1383.000000)">
                <path d="M34.666562,0.692786868 L5.33317628,0.692786868 C3.86070982,0.692786868 2.66671899,1.88677762 2.66671899,3.35950586 L2.66671899,26.0262249 L37.333281,26.0262249 L37.333281,3.35950586 C37.333281,1.88677762 36.1392902,0.692786868 34.666562,0.692786868 Z" id="Path" fill="#417505"></path>
                <path d="M33.3333333,3.35950586 L6.66666667,3.35950586 C5.92990995,3.35950586 5.33317628,3.95623953 5.33317628,4.69299625 L5.33317628,27.3594535 L34.666562,27.3594535 L34.666562,4.69299625 C34.666562,3.95623953 34.0700901,3.35950586 33.3333333,3.35950586 Z" id="Path" fill="#7ED321"></path>
                <path d="M33.3333333,3.35950586 L29.666562,3.35950586 L5.66661434,27.3594535 L34.666562,27.3594535 L34.666562,4.69273447 C34.666562,3.95623953 34.0700901,3.35950586 33.3333333,3.35950586 Z" id="Path" fill-opacity="0.497056159" fill="#417505"></path>
                <path d="M37.333281,30.0261725 L2.66671899,30.0261725 C1.56197655,30.0261725 0.666614338,29.1308103 0.666614338,28.0260678 L0.666614338,26.0262249 L15.921273,26.0262249 C16.3779837,26.0262249 16.795959,26.2840243 16.9998429,26.6928392 C17.2039887,27.1013924 17.621964,27.3594535 18.0786746,27.3594535 L21.9213254,27.3594535 C22.378036,27.3594535 22.7960113,27.1013924 22.9998953,26.6928392 C23.2037793,26.2840243 23.6217546,26.0262249 24.0784653,26.0262249 L39.333124,26.0262249 L39.333124,28.0260678 C39.3333857,29.1308103 38.4380235,30.0261725 37.333281,30.0261725 Z" id="Path" fill="#DADDDF"></path>
                <path d="M37.333281,26.0262249 L37.333281,28.0260678 C37.333281,29.1308103 36.4379188,30.0261725 35.3331763,30.0261725 L37.333281,30.0261725 C38.4380235,30.0261725 39.3333857,29.1308103 39.3333857,28.0260678 L39.3333857,26.0262249 L37.333281,26.0262249 Z" id="Path" fill="#D0D4D6"></path>
                <path d="M24.666562,10.6927869 C24.666562,13.2702576 22.577209,15.3596106 20,15.3596106 C17.422791,15.3596106 15.333438,13.2702576 15.333438,10.6927869 C15.333438,8.11557789 17.422791,6.02622486 20,6.02622486 C22.577209,6.02622486 24.666562,8.11557789 24.666562,10.6927869 Z" id="Path" fill="#F5A623"></path>
                <path d="M21.3334904,10.0261725 C21.3334904,10.7624058 20.736495,11.3594011 20,11.3594011 C19.263505,11.3594011 18.6665096,10.7624058 18.6665096,10.0261725 C18.6665096,9.28967759 19.263505,8.69268214 20,8.69268214 C20.736495,8.69268214 21.3334904,9.28967759 21.3334904,10.0261725 Z" id="Path" fill="#F5A623"></path>
                <path d="M20,11.3594011 C18.8952576,11.3594011 17.9998953,12.2547634 17.9998953,13.3595059 L17.9998953,14.9042085 C19.2640285,15.5114112 20.7359715,15.5114112 22.0001047,14.9042085 L22.0001047,13.3595059 C22.0001047,12.2547634 21.1047424,11.3594011 20,11.3594011 Z" id="Path" fill="#F5A623"></path>
                <polygon id="Path" fill="#87CED9" points="9.33338566 18.0260678 30.6666143 18.0260678 30.6666143 23.3595059 9.33338566 23.3595059"></polygon>
                <polygon id="Path" fill="#71C4D1" points="9.33338566 18.0260678 30.6666143 18.0260678 30.6666143 19.3595582 9.33338566 19.3595582"></polygon>
                <polygon id="Path" fill="#3269A1" points="11.3332287 20.0261725 12.666719 20.0261725 12.666719 21.3594011 11.3332287 21.3594011"></polygon>
                <polygon id="Path" fill="#3269A1" points="13.9999477 20.0261725 15.333438 20.0261725 15.333438 21.3594011 13.9999477 21.3594011"></polygon>
                <polygon id="Path" fill="#3269A1" points="16.6666667 20.0261725 17.9998953 20.0261725 17.9998953 21.3594011 16.6666667 21.3594011"></polygon>
                <polygon id="Path" fill="#3269A1" points="19.3333857 20.0261725 20.6666143 20.0261725 20.6666143 21.3594011 19.3333857 21.3594011"></polygon>
                <path d="M39.3333857,25.3593488 L37.9998953,25.3593488 L37.9998953,3.35950586 C37.9978015,1.51957709 36.5067525,0.0282663317 34.666562,0.0261725293 L5.33317628,0.0261725293 C3.4932475,0.0282663317 2.00193675,1.51957709 2.00010466,3.35950586 L2.00010466,25.3596106 L0.666614338,25.3596106 C0.298628543,25.3596106 0,25.6582391 0,26.0262249 L0,28.0260678 C0,29.498796 1.19399075,30.6927869 2.66671899,30.6927869 L37.333281,30.6927869 C38.8060092,30.6927869 40,29.498796 40,28.0260678 L40,26.0262249 C40,25.6582391 39.7013715,25.3593488 39.3333857,25.3593488 Z M3.33333333,3.35950586 C3.33333333,2.25476342 4.22869554,1.35940114 5.33317628,1.35940114 L34.666562,1.35940114 C35.7713045,1.35940114 36.6666667,2.25476342 36.6666667,3.35950586 L36.6666667,25.3596106 L35.3331763,25.3596106 L35.3331763,4.69273447 C35.3331763,3.5882538 34.4378141,2.69289152 33.3333333,2.69289152 L6.66666667,2.69289152 C5.56192422,2.69289152 4.66656201,3.5882538 4.66656201,4.69273447 L4.66656201,25.3593488 L3.33333333,25.3593488 L3.33333333,3.35950586 Z M33.9999477,4.69273447 L33.9999477,25.3593488 L24.078727,25.3593488 C23.3673576,25.355423 22.7159234,25.757433 22.4000209,26.3947341 C22.3099874,26.5782036 22.1225922,26.6941478 21.9179229,26.6928392 L18.0786746,26.6928392 C17.8740054,26.6941478 17.6866101,26.5782036 17.5968383,26.3947341 C17.2814594,25.7587416 16.6313337,25.3567316 15.921273,25.3593488 L6.00005233,25.3593488 L6.00005233,4.69273447 C6.00005233,4.32474874 6.29868087,4.0261202 6.66666667,4.0261202 L33.3333333,4.0261202 C33.7013191,4.0261202 33.9999477,4.32474874 33.9999477,4.69273447 Z M38.6665096,28.0260678 C38.6665096,28.7628245 38.0700377,29.3595582 37.333281,29.3595582 L2.66671899,29.3595582 C1.92996235,29.3595582 1.33322868,28.7628245 1.33322868,28.0260678 L1.33322868,26.6928282 L15.921273,26.6928392 C16.1259422,26.6915306 16.3133375,26.8074748 16.403371,26.9906826 C16.7184883,27.626675 17.3686139,28.0286851 18.0786746,28.0260678 L21.9213254,28.0260678 C22.6326947,28.0302554 23.2838673,27.6282454 23.6000314,26.9906826 C23.6900649,26.8079983 23.8753664,26.6928392 24.078727,26.6928392 L38.6665096,26.6928282 L38.6665096,28.0260678 Z" id="Shape" fill="#000000" fill-rule="nonzero"></path>
                <path d="M17.6994346,15.4967546 C17.7046692,15.4967546 17.708595,15.5040829 17.7140913,15.5067002 L17.7499477,15.5213568 C17.9020101,15.5920226 18.0566897,15.6548367 18.2166038,15.712678 C18.2427764,15.7221001 18.2686872,15.7320456 18.2948597,15.7406826 C18.4448283,15.7922425 18.5979376,15.8354271 18.7539259,15.8741625 C18.7892588,15.8827994 18.8240683,15.8935302 18.8594011,15.9013819 C19.0067525,15.9333124 19.1559359,15.9573911 19.3079983,15.9767588 C19.3488275,15.982255 19.3886097,15.9914154 19.4294389,15.9953413 C19.809464,16.0380025 20.193415,16.0380025 20.5734401,15.9953413 C20.6140075,15.9914154 20.6540515,15.9819933 20.694619,15.9767588 C20.8466813,15.9573911 20.9958647,15.9335741 21.1432161,15.9013819 C21.178549,15.8935302 21.209956,15.8827994 21.2486914,15.8741625 C21.4046797,15.8367357 21.5580507,15.7935511 21.7080193,15.7406826 C21.7339301,15.7320456 21.7598409,15.7221001 21.7860134,15.712678 C21.944619,15.6561453 22.0992986,15.5920226 22.2526696,15.5213568 L22.288526,15.5067002 C22.2940222,15.5067002 22.2979481,15.4993719 22.3034443,15.4967546 C24.9607412,14.2268635 26.0853748,11.0421902 24.815222,8.3848932 C23.5453308,5.72759631 20.3606574,4.60270097 17.7033605,5.87285387 C15.0460637,7.14274499 13.9214301,10.3274184 15.1913212,12.9847152 C15.7166038,14.0847467 16.6033292,14.9706868 17.7033605,15.4967546 L17.6994346,15.4967546 Z M21.3332287,14.4595373 L21.3245917,14.4629397 C21.1207077,14.5349142 20.9113274,14.5896147 20.6980214,14.6275649 C20.6773451,14.6314908 20.6566687,14.634108 20.6359925,14.6375105 C20.2146147,14.7060825 19.7853853,14.7060825 19.3640075,14.6375105 C19.3433313,14.634108 19.3226549,14.6314908 19.3019786,14.6275649 C19.0886726,14.5896147 18.8792923,14.5349142 18.6751465,14.4629397 L18.6665096,14.4595373 L18.6665096,13.3595059 C18.6665096,12.6227491 19.2632433,12.0260155 20,12.0260155 C20.7367567,12.0260155 21.3332287,12.6227491 21.3332287,13.3595059 L21.3332287,14.4595373 Z M19.3333857,10.0261725 C19.3333857,9.6581868 19.6320142,9.35955819 20,9.35955819 C20.3679858,9.35955819 20.6666143,9.6581868 20.6666143,10.0261725 C20.6666143,10.3941583 20.3679858,10.6927869 20,10.6927869 C19.6320142,10.6927869 19.3333857,10.3941583 19.3333857,10.0261725 Z M20,6.6928392 C22.2060825,6.69022191 23.9965453,8.47623531 23.9994242,10.6828413 C24.0007329,11.8221315 23.5160176,12.9075063 22.666719,13.6662479 L22.666719,13.3595059 C22.6646252,12.5188442 22.2639238,11.7281721 21.5873639,11.2295854 C21.8532768,10.8848932 21.998796,10.4614217 22.0001047,10.0261725 C22.0001047,8.92143008 21.1047424,8.02606781 20,8.02606781 C18.8952576,8.02606781 17.9998953,8.92143008 17.9998953,10.0261725 C18.0019891,10.4608982 18.1472466,10.882276 18.4126361,11.226183 C17.7347676,11.72634 17.3345896,12.5175356 17.333281,13.3595059 L17.333281,13.6662479 C15.6880758,12.196137 15.5467441,9.67101132 17.0165934,8.02554439 C17.775335,7.17624583 18.8607098,6.69153059 20,6.6928392 Z" id="Shape" fill="#000000" fill-rule="nonzero"></path>
                <path d="M30.6666143,17.3594535 L9.33338566,17.3594535 C8.96539993,17.3594535 8.66677132,17.6580821 8.66677132,18.0260678 L8.66677132,23.3595059 C8.66677132,23.7274916 8.96539993,24.0261202 9.33338566,24.0261202 L30.6666143,24.0261202 C31.0346001,24.0261202 31.3332287,23.7274916 31.3332287,23.3595059 L31.3332287,18.0260678 C31.3332287,17.6580821 31.0346001,17.3594535 30.6666143,17.3594535 Z M30,22.6928915 L10,22.6928915 L10,18.6926821 L30,18.6926821 L30,22.6928915 Z" id="Shape" fill="#000000" fill-rule="nonzero"></path>
                <polygon id="Path" fill="#000000" points="11.3332287 20.0261725 12.666719 20.0261725 12.666719 21.3594011 11.3332287 21.3594011"></polygon>
                <polygon id="Path" fill="#000000" points="13.9999477 20.0261725 15.333438 20.0261725 15.333438 21.3594011 13.9999477 21.3594011"></polygon>
                <polygon id="Path" fill="#000000" points="16.6666667 20.0261725 17.9998953 20.0261725 17.9998953 21.3594011 16.6666667 21.3594011"></polygon>
                <polygon id="Path" fill="#000000" points="19.3333857 20.0261725 20.6666143 20.0261725 20.6666143 21.3594011 19.3333857 21.3594011"></polygon>
            </g>
        </g>
    </g>
</svg>