<?xml version="1.0" encoding="UTF-8"?>
<svg width="42px" height="31px" viewBox="0 0 42 31" version="1.1" xmlns="http://www.w3.org/2000/svg" xmlns:xlink="http://www.w3.org/1999/xlink">
    <!-- Generator: Sketch 53.2 (72643) - https://sketchapp.com -->
    <title>xbox</title>
    <desc>Created with Sketch.</desc>
    <g id="Working-Vers-of-Verticle-Slice" stroke="none" stroke-width="1" fill="none" fill-rule="evenodd">
        <g id="L1---Rebuilt-Landing-Page-v4---End-Goal" transform="translate(-468.000000, -1121.000000)" fill-rule="nonzero">
            <g id="xbox" transform="translate(469.000000, 1122.000000)">
                <g id="Group" fill="#9EACBA">
                    <path d="M38.8929687,17.0312024 C39.504375,17.0312024 40,16.5345468 40,15.9218691 L40,9.44045015 C40,9.07343853 39.8221094,8.74799755 39.5480469,8.54609419 C39.8221094,8.34419083 40,8.01882813 40,7.65181651 L40,1.13101896 C40,0.518341284 39.504375,0.0216856269 38.8929687,0.0216856269 L20,0.0216856269 L20,17.0312024 L38.8929688,17.0311242 L38.8929688,17.0312024 L38.8929687,17.0312024 Z" id="Shape"></path>
                    <path d="M40.2292431,8.54612382 C40.4027514,8.8058656 40.5,9.11524405 40.5,9.44045015 L40.5,15.9218691 C40.5,16.8104569 39.7807502,17.5312024 38.8929688,17.5312024 L1.10703125,17.5312024 C0.219249843,17.5312024 -0.5,16.8104569 -0.5,15.9218691 L-0.5,8.80931865 L0.77296875,8.80931865 L0.77296875,8.24356942 L-0.5,8.24356942 L-0.5,1.13101896 C-0.5,0.242520137 0.219225199,-0.478200698 1.10703125,-0.478314373 L38.8929688,-0.478314373 C39.7807502,-0.478314373 40.5,0.242431158 40.5,1.13101896 L40.5,7.65181651 C40.5,7.97702181 40.402751,8.28640138 40.2292431,8.54612382 Z" id="Shape" stroke="#000000"></path>
                </g>
                <path d="M-0.4721875,8.81880265 L-0.4721875,8.24778546 L-0.5,8.24778546 L-0.5,1.11298713 C-0.5,0.223567915 0.214538028,-0.5 1.09912141,-0.5 L21.3,-0.5 L21.3,17.5666667 L1.09912141,17.5666667 C0.214520502,17.5666667 -0.5,16.8430812 -0.5,15.953601 L-0.5,8.81880265 L-0.4721875,8.81880265 Z" id="Shape" stroke="#000000" fill="#BDCFDF"></path>
                <path d="M6.18666667,11.2 L3.94666667,11.2 C3.53435733,11.2 3.2,11.55816 3.2,12 C3.2,12.44184 3.53435733,12.8 3.94666667,12.8 L6.18666667,12.8 C6.598976,12.8 6.93333333,12.44184 6.93333333,12 C6.93333333,11.55816 6.598976,11.2 6.18666667,11.2 Z" id="Shape" fill="#7ED321"></path>
                <polygon id="Rectangle-path" fill="#232575" points="1 8 20.7333333 8 20.7333333 9.6 1 9.6"></polygon>
                <polygon id="Rectangle-path" fill="#6A8092" points="0 8 9.6 8 9.6 9.6 0 9.6"></polygon>
                <circle id="Oval" fill="#417505" cx="34.4" cy="10.9333333" r="1.86666667"></circle>
                <path d="M34.5797694,25.0338451 L32.9803329,17.0912969 C32.152139,12.9789779 28.249576,10.3037966 24.2333423,11.0616854 L23.5010991,11.5966425 C23.3698633,11.6925467 23.2127053,11.744023 23.0514462,11.744023 L18.0151946,11.744023 C17.8539355,11.744023 17.6967775,11.6924675 17.5655417,11.5966425 L16.8332985,11.0616854 C12.8169101,10.3036382 8.91450185,12.9788987 8.08630793,17.0912969 L6.48687149,25.0338451 C6.35679637,25.6795949 6.37536748,26.3301755 6.52532915,26.9421885 C6.89218586,28.4390388 8.66533952,29.0291942 9.83810482,28.059144 C11.6829894,26.5331503 14.1137923,24.5365845 14.1470655,24.5092625 C14.2844143,24.3964899 14.4552685,24.3349559 14.6313845,24.3349559 L26.4352564,24.3349559 C26.611295,24.3349559 26.7821492,24.3964107 26.9195753,24.5092625 C26.9529259,24.5365845 29.3836515,26.5331503 31.228536,28.059144 C32.4013013,29.0291942 34.1743776,28.4390388 34.5413117,26.9421885 C34.6913508,26.3301755 34.7098445,25.6795949 34.5797694,25.0338451 Z" id="Shape" stroke="#000000" fill="#417505"></path>
                <path d="M20.8,11.744023 L18.0433421,11.744023 C17.8816922,11.744023 17.7241534,11.6924675 17.5925995,11.5966425 L16.8585818,11.0616854 C12.8324604,10.3036382 8.92059532,12.9788987 8.09039441,17.0912969 L6.48708201,25.0338451 C6.35669168,25.6795949 6.37530778,26.3301755 6.52563287,26.9421885 C6.89337859,28.4390388 8.67082918,29.0291942 9.84643648,28.059144 C11.6957918,26.5331503 14.1324854,24.5365845 14.1658392,24.5092625 C14.3035209,24.3964899 14.4747891,24.3349559 14.6513318,24.3349559 L20.8,24.3349559 L20.8,11.744023 Z" id="Shape" stroke="#000000" fill="#7ED321"></path>
                <g id="Group" transform="translate(25.066667, 15.200000)" fill="#BDCFDF">
                    <ellipse id="Oval" cx="2.93333333" cy="1.18954386" rx="1.13422222" ry="1.11929825"></ellipse>
                    <ellipse id="Oval" cx="2.93333333" cy="4.74042105" rx="1.13422222" ry="1.11929825"></ellipse>
                    <ellipse id="Oval" cx="4.73244444" cy="2.96498246" rx="1.13422222" ry="1.11929825"></ellipse>
                    <ellipse id="Oval" cx="1.13422222" cy="2.96498246" rx="1.13422222" ry="1.11929825"></ellipse>
                </g>
                <circle id="Oval" fill="#6A8092" cx="12.2666667" cy="17.3333333" r="2.13333333"></circle>
                <g id="Group" transform="translate(14.933333, 13.600000)" fill="#232575">
                    <polygon id="Shape" points="0.00962253521 0.01944 1.43486197 1.81608 9.6968338 1.81608 11.1220732 0.01944"></polygon>
                    <ellipse id="Oval" cx="8.53802817" cy="7.44" rx="2.05780282" ry="2.0872"></ellipse>
                    <path d="M4.21482817,6.36664 L3.4015662,6.36664 C3.25770141,6.36664 3.14112676,6.24832 3.14112676,6.10248 L3.14112676,5.2776 C3.14112676,5.13168 3.02447324,5.01344 2.88068732,5.01344 L1.61453521,5.01344 C1.47067042,5.01344 1.35409577,5.13176 1.35409577,5.2776 L1.35409577,6.10248 C1.35409577,6.2484 1.23744225,6.36664 1.09365634,6.36664 L0.280394366,6.36664 C0.136529577,6.36664 0.0199549296,6.48496 0.0199549296,6.6308 L0.0199549296,7.91504 C0.0199549296,8.06096 0.136608451,8.1792 0.280394366,8.1792 L1.09365634,8.1792 C1.23752113,8.1792 1.35409577,8.29752 1.35409577,8.44336 L1.35409577,9.26824 C1.35409577,9.41416 1.4707493,9.5324 1.61453521,9.5324 L2.88068732,9.5324 C3.02455211,9.5324 3.14112676,9.41408 3.14112676,9.26824 L3.14112676,8.44336 C3.14112676,8.29744 3.25778028,8.1792 3.4015662,8.1792 L4.21482817,8.1792 C4.35869296,8.1792 4.47526761,8.06088 4.47526761,7.91504 L4.47526761,6.6308 C4.47526761,6.48496 4.35869296,6.36664 4.21482817,6.36664 Z" id="Shape"></path>
                </g>
            </g>
        </g>
    </g>
</svg>