<?xml version="1.0" encoding="UTF-8"?>
<svg width="60px" height="57px" viewBox="0 0 60 57" version="1.1" xmlns="http://www.w3.org/2000/svg" xmlns:xlink="http://www.w3.org/1999/xlink">
    <!-- Generator: Sketch 52.3 (67297) - http://www.bohemiancoding.com/sketch -->
    <title>portingcodeicon</title>
    <desc>Created with Sketch.</desc>
    <g id="Screen-States-of-Verticle-Slice" stroke="none" stroke-width="1" fill="none" fill-rule="evenodd">
        <g id="L1---Landing---Getting-Started" transform="translate(-832.000000, -987.000000)" fill-rule="nonzero">
            <g id="portingcodeicon" transform="translate(832.000000, 987.000000)">
                <rect id="Rectangle-path" fill="#417505" x="13" y="28" width="16" height="16"></rect>
                <rect id="Rectangle-path" fill="#BFC0C1" x="31" y="28" width="16" height="16"></rect>
                <rect id="Rectangle-path" fill="#7ED321" x="22" y="10" width="16" height="16"></rect>
                <path d="M46,55 L46.52,55 C48.0628294,54.9516525 49.527674,54.3105591 50.61,53.21 C51.61,52.21 51.99,50.47 51.99,47.36 L51.99,37.76 C52.0146659,35.4119529 52.7464952,33.1258578 54.09,31.2 C54.8254795,30.0105225 55.9595677,29.120972 57.29,28.69 C53.77,27.5 51.99,24.53 51.99,19.87 L51.99,10.07 C51.99,6.94 51.57,5.17 50.59,4.16 C49.4754659,3.05747291 47.9867616,2.41486673 46.42,2.36 L45.93,2.36 L46.08,0.36 L46.59,0.36 C48.6292375,0.466983976 50.556564,1.32555271 52,2.77 C53.37,4.18 54,6.36 54,10.07 L54,19.83 C54,24.04 55.7,26.41 59.19,27.07 L60,27.22 L60,30.1 L59.22,30.25 C57.8523881,30.3821253 56.6141003,31.11484 55.84,32.25 C54.692634,33.8478817 54.051612,35.7535283 54,37.72 L54,47.32 C54,51.01 53.42,53.17 52,54.57 C50.6250428,56.0156842 48.7517696,56.8843968 46.76,57 L46.28,57 L46,55 Z" id="Shape" fill="#556A8A"></path>
                <path d="M14,55 L13.48,55 C11.9371706,54.9516525 10.472326,54.3105591 9.39,53.21 C8.39,52.21 8.01,50.47 8.01,47.36 L8.01,37.76 C7.98533408,35.4119529 7.25350483,33.1258578 5.91,31.2 C5.17452049,30.0105225 4.04043226,29.120972 2.71,28.69 C6.23,27.5 8.01,24.53 8.01,19.87 L8.01,10.07 C8.01,6.94 8.43,5.17 9.41,4.16 C10.5245341,3.05747291 12.0132384,2.41486673 13.58,2.36 L14.07,2.36 L13.92,0.36 L13.41,0.36 C11.3707625,0.466983976 9.44343596,1.32555271 8,2.77 C6.63,4.18 6,6.36 6,10.07 L6,19.83 C6,24 4.3,26.42 0.81,27.07 L0,27.23 L0,30.1 L0.78,30.25 C2.14761191,30.3821253 3.38589972,31.11484 4.16,32.25 C5.30736605,33.8478817 5.94838796,35.7535283 6,37.72 L6,47.32 C6,51.01 6.58,53.17 8,54.57 C9.37495719,56.0156842 11.2482304,56.8843968 13.24,57 L13.72,57 L14,55 Z" id="Shape" fill="#556A8A"></path>
            </g>
        </g>
    </g>
</svg>