<?xml version="1.0" encoding="UTF-8"?>
<svg width="69px" height="56px" viewBox="0 0 69 56" version="1.1" xmlns="http://www.w3.org/2000/svg" xmlns:xlink="http://www.w3.org/1999/xlink">
    <!-- Generator: Sketch 52.5 (67469) - http://www.bohemiancoding.com/sketch -->
    <title>Group 3</title>
    <desc>Created with Sketch.</desc>
    <g id="Working-Vers-of-Verticle-Slice" stroke="none" stroke-width="1" fill="none" fill-rule="evenodd">
        <g id="L2---Bucketed-Landing-Template---Getting-Started" transform="translate(-568.000000, -469.000000)">
            <g id="Get-Started-Landing-Page---1/2/3-Steps" transform="translate(462.000000, 384.000000)">
                <g id="Group-3" transform="translate(107.000000, 86.000000)">
                    <g id="img">
                        <g id="ICONS-64x">
                            <path d="M1.2747541,26.0616393 L4.79213115,26.5888525 C4.84343654,27.384818 4.96455773,28.1747388 5.15409836,28.9495082 L2.2504918,30.8537705 C2.00877548,30.9421805 1.81510301,31.1277352 1.71643027,31.3654468 C1.61775753,31.6031584 1.62309461,31.8713208 1.73114754,32.104918 L2.60459016,34.2531148 C2.69321204,34.4620247 2.8677101,34.6225036 3.08329438,34.69336 C3.29887865,34.7642164 3.53455711,34.7385507 3.72983607,34.6229508 L7.26295082,33.8832787 L8.38032787,35.787541 L6.35016393,38.557377 C6.02593089,38.9144247 6.02593089,39.4593458 6.35016393,39.8163934 L8.09704918,41.5947541 C8.47810587,41.8493583 8.97500889,41.8493583 9.35606557,41.5947541 L12.1337705,39.6039344 C12.7632787,39.9816393 13.5186885,40.4852459 14.1403279,40.8708197 L13.3534426,44.3881967 C13.2436071,44.8005588 13.4506984,45.2314423 13.8413115,45.4032787 L15.9816393,46.292459 C16.1771077,46.4142063 16.4160977,46.4442187 16.6355999,46.3745835 C16.8551021,46.3049483 17.0330848,46.142655 17.122623,45.9304918 L19.0347541,42.7829508 C19.7549366,43.0769707 20.5171905,43.2549184 21.2931148,43.3101639 L21.7731148,46.8354098 C21.7666928,47.0704083 21.856132,47.2979107 22.0208723,47.4656193 C22.1856125,47.6333279 22.4114817,47.726815 22.6465574,47.7245902 L25.0072131,47.6065574 C25.384918,47.732459 25.7940984,47.3547541 25.8885246,46.984918 L26.5495082,43.3337705 C27.3250376,43.290739 28.0893577,43.1288518 28.8157377,42.8537705 L30.6885246,46.0013115 C30.9746205,46.311315 31.3976721,46.4562767 31.8137705,46.3868852 L34.0878689,45.3954098 C34.4923109,45.2444252 34.7215052,44.8163712 34.6229508,44.3960656 L33.757377,40.9809836 C33.9271175,40.8817105 34.0900971,40.7713049 34.2452459,40.6504918 C34.347541,40.5796721 34.4577049,40.5009836 34.56,40.4144262 C34.9298361,40.1390164 35.2996721,39.8321311 35.6616393,39.627541 L38.557377,41.7678689 C38.7212295,41.9074672 38.935117,41.9738469 39.1492149,41.951545 C39.3633128,41.9292432 39.5589278,41.8202069 39.6904918,41.6498361 L40.744918,40.6111475 L41.335082,40.0209836 C41.4971711,39.8886958 41.5999045,39.6973035 41.6205764,39.4891073 C41.6412484,39.2809112 41.5781568,39.073054 41.4452459,38.9114754 L39.3442623,35.9842623 C39.9013065,35.3295789 40.3744709,34.6079371 40.7527869,33.8360656 L44.2622951,34.8590164 C44.7372242,34.9218629 45.1993691,34.6749636 45.4111475,34.2452459 L46.3003279,32.104918 C46.4470619,31.6229716 46.2456258,31.1031365 45.812459,30.8459016 L42.7986885,29.0596721 C43.0583607,28.2727869 43.0583607,27.5488525 43.3180328,26.8013115 L46.8432787,26.3213115 C47.2906587,26.1835468 47.6047432,25.7815187 47.6301639,25.3140984 L47.6301639,23.0714754 C47.6382461,22.5979841 47.3341728,22.1754824 46.882623,22.0327869 L43.2236066,21.6314754 C43.1393684,20.776862 42.9787261,19.931515 42.7436066,19.1055738 L45.8911475,17.2406557 C46.1064682,17.1571549 46.2742368,16.9832797 46.3499893,16.7651124 C46.4257419,16.5469452 46.4018296,16.3065141 46.2845902,16.107541 L45.4111475,13.9672131 C45.1856354,13.5694353 44.7494449,13.339053 44.2937705,13.3770492 L40.7527869,14.3606557 C40.3829508,13.7311475 40.0131148,13.0937705 39.6354098,12.4642623 L41.7993443,9.5842623 C41.9759159,9.20935093 41.9399568,8.76885149 41.704918,8.42754098 L39.9265574,6.64918033 C39.6228848,6.35947551 39.1644412,6.30497522 38.8013115,6.51540984 L35.8898361,8.6557377 C35.2603279,8.26229508 34.5127869,7.75868852 33.8832787,7.38098361 L34.6701639,3.8557377 C34.7864889,3.44486029 34.5768057,3.01196601 34.1822951,2.84852459 L31.9239344,1.82557377 C31.5038476,1.70857157 31.0545189,1.85421605 30.7829508,2.19540984 L28.9888525,5.20918033 C28.2019672,5.20918033 27.4780328,4.9495082 26.722623,4.93377049 L26.3763934,1.28262295 C26.2426845,0.83246438 25.8383153,0.516550954 25.3691803,0.495737705 L23.0085246,0.354098361 C22.6020072,0.499376081 22.2797913,0.815838119 22.1272131,1.21967213 L21.5606557,4.7842623 C20.6793443,4.90229508 19.9239344,5.15409836 19.042623,5.2642623 L17.3114754,2.2347541 C17.0950287,1.82696398 16.5986089,1.65804334 16.1783607,1.84918033 L14.0301639,2.72262295 C13.5712503,2.89310186 13.2974515,3.36482748 13.3770492,3.84786885 L14.242623,7.25508197 C13.5486193,7.62806754 12.9124704,8.09987797 12.3540984,8.6557377 L9.44262295,6.46819672 C9.28274736,6.28561619 9.05186501,6.18089989 8.80918033,6.18089989 C8.56649565,6.18089989 8.3356133,6.28561619 8.1757377,6.46819672 L6.66491803,7.96327869 L6.53114754,8.08918033 C6.35573005,8.25151557 6.25600348,8.47968219 6.25600348,8.71868852 C6.25600348,8.95769486 6.35573005,9.18586148 6.53114754,9.34819672 L8.6557377,12.2596721 C8.2202282,12.6835965 7.85617971,13.1751949 7.57770492,13.7154098 L7.48327869,13.8885246 C7.40459016,14.0459016 7.32590164,14.2111475 7.25508197,14.3842623 L3.75344262,13.3770492 C3.34323956,13.2680628 2.91501116,13.475486 2.74622951,13.864918 L1.72327869,16.1311475 C1.65018162,16.5492406 1.78864705,16.9764212 2.09311475,17.2721311 L5.24065574,19.1763934 C4.98246893,19.8607994 4.84663041,20.5852715 4.83934426,21.3167213 L1.18032787,21.9147541 C0.810491803,22.0485246 0.393442623,22.4183607 0.393442623,22.7016393 L0.393442623,25.2196721 C0.395410633,25.4492552 0.490186381,25.6682741 0.65619535,25.826872 C0.822204319,25.9854698 1.04532043,26.0701512 1.2747541,26.0616393 Z" id="Shape" stroke="#556A8A" stroke-width="2" fill="#FFFFFF" fill-rule="nonzero"></path>
                            <path d="M13.117377,19.5068852 C15.4550764,13.9135896 21.6498093,11.0006395 27.4486571,12.7678856 C33.2475049,14.5351317 36.7647252,20.4078786 35.5856131,26.3542631 C34.4065009,32.3006476 28.9144949,36.3869496 22.8800651,35.807768 C16.8456353,35.2285864 12.2311336,30.1722667 12.2045902,24.1101639 C12.1937753,22.5297375 12.5043247,20.9636047 13.117377,19.5068852 Z" id="Shape" fill="#7ED321" fill-rule="nonzero"></path>
                            <polyline id="Shape" stroke="#FFFFFF" stroke-width="2" points="15.5409836 24.1967213 21.6393443 30.295082 32.852459 19.0819672"></polyline>
                        </g>
                    </g>
                    <g id="two" transform="translate(48.000000, 35.000000)" fill-rule="nonzero">
                        <path d="M9.98317907,0.000120724346 C4.46961771,0.000120724346 0,4.46925553 0,9.9832998 C0,15.4963783 4.46961771,19.965996 9.98317907,19.965996 C15.496499,19.965996 19.9661167,15.4963783 19.9661167,9.9832998 C19.9661167,4.46925553 15.496499,0.000120724346 9.98317907,0.000120724346 Z" id="Shape" fill="#417505"></path>
                        <path d="M12.8685312,13.1024145 C12.7073642,12.9767002 12.4736016,12.9137626 12.1670423,12.9137626 L9.08997988,12.9137626 C9.18816901,12.7644668 9.28450704,12.6367002 9.378833,12.5306237 C9.59887324,12.2634205 10.0045875,11.8880885 10.5960966,11.4047082 C11.1874849,10.921328 11.6089738,10.5667203 11.8605231,10.3407243 C12.111992,10.1148089 12.3586318,9.80237425 12.6003219,9.40346076 C12.8420121,9.00462777 12.9628571,8.56152918 12.9628571,8.07420523 C12.9628571,7.76382294 12.904829,7.46410463 12.7889738,7.17525151 C12.672998,6.88639839 12.5109054,6.63199195 12.3026559,6.41187123 C12.094326,6.19183099 11.8526358,6.01895372 11.5775855,5.89311871 C11.153159,5.7044668 10.6403219,5.61018109 10.0390744,5.61018109 C9.53995976,5.61018109 9.10474849,5.68386318 8.7334004,5.83122736 C8.36205231,5.97859155 8.05549296,6.17219316 7.81380282,6.41187123 C7.57211268,6.65162978 7.39030181,6.918833 7.26853119,7.21356137 C7.14668008,7.50828974 7.08579477,7.79122736 7.08579477,8.06241449 C7.08579477,8.28639839 7.15062374,8.46325956 7.28032193,8.59295775 C7.41002012,8.72265594 7.57303823,8.78748491 7.76957746,8.78748491 C7.99356137,8.78748491 8.16350101,8.71674044 8.27947686,8.57529175 C8.39533199,8.43380282 8.4995171,8.23146881 8.59191147,7.96812877 C8.68418511,7.70486922 8.75006036,7.54370221 8.78937626,7.48474849 C9.08410463,7.03287726 9.48881288,6.80684105 10.0037022,6.80684105 C10.2473239,6.80684105 10.4723541,6.86193159 10.6786318,6.97191147 C10.8849497,7.08197183 11.0479678,7.23625755 11.1678873,7.43464789 C11.2877264,7.63315895 11.3476861,7.85814889 11.3476861,8.10957746 C11.3476861,8.34148893 11.29167,8.57822938 11.1796781,8.81987928 C11.0676861,9.06152918 10.9045473,9.29734406 10.6904225,9.52724346 C10.4761771,9.75714286 10.2079678,9.9861167 9.88579477,10.2139638 C9.70498994,10.3358149 9.40434608,10.5903018 8.98390342,10.9773441 C8.56334004,11.3644668 8.09179074,11.8291348 7.56917505,12.3714688 C7.44338028,12.5051107 7.32748491,12.6888531 7.22136821,12.9226157 C7.11525151,13.156499 7.06221328,13.3441046 7.06221328,13.4855533 C7.06221328,13.705674 7.14474849,13.8972636 7.30977867,14.0602817 C7.47484909,14.2234205 7.70470825,14.3049095 7.99947686,14.3049095 L12.3380282,14.3049095 C12.5973843,14.3049095 12.7909054,14.2381489 12.918672,14.104507 C13.0463179,13.9709457 13.1102616,13.8078471 13.1102616,13.6152515 C13.1102213,13.3991952 13.0296177,13.2282495 12.8685312,13.1024145 Z" id="Shape" fill="#FFFFFF"></path>
                    </g>
                </g>
            </g>
        </g>
    </g>
</svg>