<?xml version="1.0" encoding="UTF-8"?>
<svg width="68px" height="68px" viewBox="0 0 68 68" version="1.1" xmlns="http://www.w3.org/2000/svg" xmlns:xlink="http://www.w3.org/1999/xlink">
    <!-- Generator: Sketch 52.3 (67297) - http://www.bohemiancoding.com/sketch -->
    <title>testonxbox1icon</title>
    <desc>Created with Sketch.</desc>
    <g id="Screen-States-of-Verticle-Slice" stroke="none" stroke-width="1" fill="none" fill-rule="evenodd">
        <g id="L1---Landing---Getting-Started" transform="translate(-82.000000, -778.000000)">
            <g id="testonxbox1icon" transform="translate(79.000000, 778.000000)">
                <path d="M57.75,50 C57.32,49.23 56.51,47.9 55.48,46.23 C54.45,44.56 53.12,42.42 51.74,40.23 L51.58,40 L51.25,39.48 C49.66,37 48,34.39 46.54,32.07 C44.54,28.91 42.83,26.26 42,25 L42,7 C42,7 44,5 44,3 C44,2 43,1 41,1 L23,1 C21,1 20,2 20,3 C20,5 22,7 22,7 L22,25 C21.17,26.26 19.47,28.91 17.46,32.07 C16,34.39 14.34,37 12.75,39.49 L12.42,40.01 L12.26,40.27 C10.88,42.46 9.58,44.55 8.52,46.27 C7.46,47.99 6.68,49.27 6.25,50.04 C4.61186147,52.6400081 4.50853308,55.9228052 5.9799167,58.6206877 C7.45130033,61.3185703 10.2671189,63.0093095 13.34,63.04 L50.66,63.04 C53.7328811,63.0093095 56.5486997,61.3185703 58.0200833,58.6206877 C59.4914669,55.9228052 59.3881385,52.6400081 57.75,50.04 L57.75,50 Z" id="Shape" fill="#FFFFFF" fill-rule="nonzero"></path>
                <path d="M57.54,58.6 C56.1828204,61.1770891 53.5686935,62.8489145 50.66,63 L13.34,63 C10.427396,62.842552 7.8112134,61.1677803 6.4488999,58.5886033 C5.0865864,56.0094263 5.17811923,52.9044475 6.69,50.41 C7.417563,49.1058429 8.02988738,47.7406606 8.52,46.33 C9.58,44.61 10.88,42.45 12.26,40.26 C14,37.53 15.83,35 17.46,32 L46.54,32 C48.17,35 50.01,37.49 51.74,40.23 C53.12,42.42 54.42,44.53 55.48,46.23 C55.9761967,47.6607704 56.5882243,49.0487018 57.31,50.38 C58.8481372,52.8826046 58.9357918,56.0153025 57.54,58.6 Z" id="Shape" fill="#7ED321" fill-rule="nonzero"></path>
                <path d="M57.75,50 C56.87,48.43 54.45,44.53 51.75,40.22 C47.88,34.15 43.5,27.28 42,25 L42,7 C42,7 44,5 44,3 C44,2 43,1 41,1 L23,1 C21,1 20,2 20,3 C20,5 22,7 22,7 L22,25 C20.5,27.28 16.12,34.15 12.26,40.27 C9.55,44.58 7.13,48.47 6.26,50.05 C4.62186147,52.6500081 4.51853308,55.9328052 5.9899167,58.6306877 C7.46130033,61.3285703 10.2771189,63.0193095 13.35,63.05 L50.66,63.05 C53.7328811,63.0193095 56.5486997,61.3285703 58.0200833,58.6306877 C59.4914669,55.9328052 59.3881385,52.6500081 57.75,50.05 L57.75,50 Z" id="Shape" stroke="#556A8A" stroke-width="2"></path>
                <path d="M40,5 L24,5 C23.4477153,5 23,4.55228475 23,4 C23,3.44771525 23.4477153,3 24,3 L40,3 C40.5522847,3 41,3.44771525 41,4 C41,4.55228475 40.5522847,5 40,5 Z" id="Shape" fill="#E5E5E5" fill-rule="nonzero"></path>
                <rect id="Rectangle-path" x="0" y="0" width="64" height="64"></rect>
                <polygon id="Shape" fill="#556A8A" fill-rule="nonzero" points="31.8 34.66 34.82 43.96 44.59 43.96 36.68 49.7 39.7 59 31.8 53.26 23.89 59 26.91 49.7 19 43.96 28.77 43.96"></polygon>
                <g id="five" transform="translate(51.000000, 48.000000)" fill-rule="nonzero">
                    <path d="M9.98317907,0 C4.46961771,0 0,4.46913481 0,9.98317907 C0,15.4962575 4.46961771,19.9658753 9.98317907,19.9658753 C15.496499,19.9658753 19.9661167,15.4962575 19.9661167,9.98317907 C19.9661167,4.46913481 15.496499,0 9.98317907,0 Z" id="Shape" fill="#000000"></path>
                    <path d="M12.8980282,10.2670423 C12.7565392,9.92515091 12.5620121,9.62949698 12.3144467,9.37987928 C12.0668813,9.13038229 11.7789537,8.93480885 11.4508652,8.79336016 C11.1226962,8.65187123 10.7700201,8.581167 10.3927565,8.581167 C9.921167,8.581167 9.40631791,8.73054326 8.84832998,9.02917505 L9.18434608,7.11927565 L11.9843461,7.11927565 C12.2751308,7.11927565 12.495171,7.05645875 12.6445473,6.93062374 C12.7938431,6.80490946 12.8685312,6.63983903 12.8685312,6.43545272 C12.8685312,5.96784708 12.5620121,5.73396378 11.9489336,5.73396378 L8.83649899,5.73396378 C8.49847082,5.73396378 8.25484909,5.8105835 8.10555332,5.96386318 C7.95617706,6.11714286 7.85400402,6.36277666 7.79903421,6.70072435 L7.30390342,9.52430584 C7.26060362,9.77187123 7.23907445,9.90555332 7.23907445,9.92515091 C7.23907445,10.1020121 7.31368209,10.2602414 7.46305835,10.3996781 C7.61235412,10.5392354 7.7832998,10.6089336 7.97589537,10.6089336 C8.15275654,10.6089336 8.377666,10.5057948 8.65082495,10.2994769 C8.92390342,10.093159 9.13315895,9.94873239 9.27863179,9.86619718 C9.4239839,9.78366197 9.66567404,9.74241449 10.0037022,9.74241449 C10.2787123,9.74241449 10.52833,9.80828974 10.7523541,9.93987928 C10.976338,10.0715895 11.1551308,10.2710262 11.2887726,10.5381891 C11.422334,10.8054728 11.4891751,11.1276459 11.4891751,11.5049095 C11.4891751,11.8547284 11.4272837,12.167163 11.303501,12.442173 C11.1797183,12.7173038 11.0037827,12.9334406 10.7759356,13.0905835 C10.5479678,13.2478068 10.2826962,13.3263581 9.98016097,13.3263581 C9.65006036,13.3263581 9.35134809,13.2290946 9.08414487,13.0345674 C8.81686117,12.8400402 8.60462777,12.5679678 8.44752515,12.2181489 C8.28635815,11.8370221 8.04080483,11.6463581 7.71066398,11.6463581 C7.51806841,11.6463581 7.35790744,11.715171 7.23026157,11.8526761 C7.10249497,11.9902616 7.03867203,12.1356137 7.03867203,12.2888934 C7.03867203,12.5404427 7.13006036,12.834165 7.31279678,13.1701408 C7.4955332,13.5061167 7.80591549,13.8038229 8.24418511,14.0631791 C8.682334,14.3225352 9.25311871,14.4522334 9.95661972,14.4522334 C10.5853521,14.4522334 11.1404427,14.3146479 11.6218913,14.0395976 C12.1032193,13.7645875 12.47167,13.3931992 12.727163,12.9254728 C12.9825755,12.4578672 13.1103018,11.9391147 13.1103018,11.3692555 C13.1102213,10.9764588 13.0394769,10.6089336 12.8980282,10.2670423 Z" id="Shape" fill="#FFFFFF"></path>
                </g>
            </g>
        </g>
    </g>
</svg>