<?xml version="1.0" encoding="UTF-8"?>
<svg width="75px" height="61px" viewBox="0 0 75 61" version="1.1" xmlns="http://www.w3.org/2000/svg" xmlns:xlink="http://www.w3.org/1999/xlink">
    <!-- Generator: Sketch 52.3 (67297) - http://www.bohemiancoding.com/sketch -->
    <title>xbox</title>
    <desc>Created with Sketch.</desc>
    <g id="Screen-States-of-Verticle-Slice" stroke="none" stroke-width="1" fill="none" fill-rule="evenodd">
        <g id="L1---Landing---Feature-Knowledge" transform="translate(-487.000000, -415.000000)" fill-rule="nonzero">
            <g id="Group" transform="translate(398.000000, 406.000000)">
                <g id="xbox" transform="translate(89.000000, 9.000000)">
                    <g id="Group" fill="#9EACBA">
                        <path d="M72.9243164,31.9335046 C74.0707031,31.9335046 75,31.0022752 75,29.8535046 L75,17.700844 C75,17.0126972 74.6664551,16.4024954 74.1525879,16.0239266 C74.6664551,15.6453578 75,15.0353028 75,14.347156 L75,2.12066055 C75,0.971889908 74.0707031,0.0406605505 72.9243164,0.0406605505 L37.5,0.0406605505 L37.5,31.9335046 L72.9243164,31.9333578 L72.9243164,31.9335046 Z" id="Shape"></path>
                        <path d="M75,14.347156 L75,2.12066055 C75,0.971889908 74.0707031,0.0406605505 72.9243164,0.0406605505 L2.07568359,0.0406605505 C0.929296875,0.0408073394 0,0.972036697 0,2.12066055 L0,14.5191927 L2.38681641,14.5191927 L2.38681641,17.4549725 L0,17.4549725 L0,29.8535046 C0,31.0022752 0.929296875,31.9335046 2.07568359,31.9335046 L72.9243164,31.9335046 C74.0707031,31.9335046 75,31.0022752 75,29.8535046 L75,17.700844 C75,17.0126972 74.6664551,16.4024954 74.1525879,16.0239266 C74.6664551,15.6455046 75,15.0353028 75,14.347156 Z" id="Shape"></path>
                    </g>
                    <path d="M39,0 L2.06085264,0 C0.922656961,0 0,0.934362472 0,2.08685086 L0,14.5270977 L2.36976238,14.5270977 L2.36976238,17.472755 L0,17.472755 L0,29.9130019 C0,31.0656375 0.922656961,32 2.06085264,32 L39,32 L39,0 Z" id="Shape" fill="#BDCFDF"></path>
                    <path d="M11.6,21 L7.4,21 C6.62692,21 6,21.67155 6,22.5 C6,23.32845 6.62692,24 7.4,24 L11.6,24 C12.37308,24 13,23.32845 13,22.5 C13,21.67155 12.37308,21 11.6,21 Z" id="Shape" fill="#7ED321"></path>
                    <polygon id="Rectangle-path" fill="#232575" points="2 15 39 15 39 18 2 18"></polygon>
                    <polygon id="Rectangle-path" fill="#6A8092" points="2 15 20 15 20 18 2 18"></polygon>
                    <circle id="Oval" fill="#417505" cx="64.5" cy="20.5" r="3.5"></circle>
                    <path d="M64.8370676,54.4384595 L61.8381242,39.5461816 C60.2852606,31.8355835 52.967955,26.8196186 45.4375169,28.2406602 L44.0645609,29.2437047 C43.8184937,29.4235251 43.5238225,29.520043 43.2214617,29.520043 L33.7784899,29.520043 C33.4761291,29.520043 33.1814579,29.4233766 32.9353908,29.2437047 L31.5624347,28.2406602 C24.0317065,26.8193217 16.714691,31.835435 15.1618274,39.5461816 L12.162884,54.4384595 C11.9189932,55.6492403 11.953814,56.869079 12.2349922,58.0166035 C12.9228485,60.8231977 16.2475116,61.9297391 18.4464465,60.110895 C21.9056051,57.2496568 26.4633606,53.5060959 26.5257479,53.4548671 C26.7832769,53.2434185 27.1036284,53.1280424 27.4338459,53.1280424 L49.5661057,53.1280424 C49.8961781,53.1280424 50.2165297,53.24327 50.4742038,53.4548671 C50.5367361,53.5060959 55.0943465,57.2496568 58.5535051,60.110895 C60.75244,61.9297391 64.076958,60.8231977 64.7649595,58.0166035 C65.0462827,56.869079 65.0809584,55.6492403 64.8370676,54.4384595 Z" id="Shape" fill="#417505"></path>
                    <path d="M39,29.520043 L33.8312664,29.520043 C33.5281728,29.520043 33.2327875,29.4233766 32.9861241,29.2437047 L31.609841,28.2406602 C24.0608632,26.8193217 16.7261162,31.835435 15.1694895,39.5461816 L12.1632788,54.4384595 C11.9187969,55.6492403 11.9537021,56.869079 12.2355616,58.0166035 C12.9250849,60.8231977 16.2578047,61.9297391 18.4620684,60.110895 C21.9296096,57.2496568 26.49841,53.5060959 26.5609485,53.4548671 C26.8191016,53.2434185 27.1402295,53.1280424 27.4712472,53.1280424 L39,53.1280424 L39,29.520043 Z" id="Shape" fill="#7ED321"></path>
                    <g id="Group" transform="translate(47.000000, 36.000000)" fill="#BDCFDF">
                        <ellipse id="Oval" cx="5.5" cy="2.23039474" rx="2.12666667" ry="2.09868421"></ellipse>
                        <ellipse id="Oval" cx="5.5" cy="8.88828947" rx="2.12666667" ry="2.09868421"></ellipse>
                        <ellipse id="Oval" cx="8.87333333" cy="5.55934211" rx="2.12666667" ry="2.09868421"></ellipse>
                        <ellipse id="Oval" cx="2.12666667" cy="5.55934211" rx="2.12666667" ry="2.09868421"></ellipse>
                    </g>
                    <circle id="Oval" fill="#6A8092" cx="23" cy="40" r="4"></circle>
                    <g id="Group" transform="translate(28.000000, 33.000000)" fill="#232575">
                        <polygon id="Shape" points="0.0180422535 0.03645 2.6903662 3.40515 18.1815634 3.40515 20.8538873 0.03645"></polygon>
                        <ellipse id="Oval" cx="16.0088028" cy="13.95" rx="3.85838028" ry="3.9135"></ellipse>
                        <path d="M7.90280282,11.93745 L6.37793662,11.93745 C6.10819014,11.93745 5.88961268,11.7156 5.88961268,11.44215 L5.88961268,9.8955 C5.88961268,9.6219 5.67088732,9.4002 5.40128873,9.4002 L3.02725352,9.4002 C2.75750704,9.4002 2.53892958,9.62205 2.53892958,9.8955 L2.53892958,11.44215 C2.53892958,11.71575 2.32020423,11.93745 2.05060563,11.93745 L0.525739437,11.93745 C0.255992958,11.93745 0.037415493,12.1593 0.037415493,12.43275 L0.037415493,14.8407 C0.037415493,15.1143 0.256140845,15.336 0.525739437,15.336 L2.05060563,15.336 C2.32035211,15.336 2.53892958,15.55785 2.53892958,15.8313 L2.53892958,17.37795 C2.53892958,17.65155 2.75765493,17.87325 3.02725352,17.87325 L5.40128873,17.87325 C5.67103521,17.87325 5.88961268,17.6514 5.88961268,17.37795 L5.88961268,15.8313 C5.88961268,15.5577 6.10833803,15.336 6.37793662,15.336 L7.90280282,15.336 C8.1725493,15.336 8.39112676,15.11415 8.39112676,14.8407 L8.39112676,12.43275 C8.39112676,12.1593 8.1725493,11.93745 7.90280282,11.93745 Z" id="Shape"></path>
                    </g>
                </g>
            </g>
        </g>
    </g>
</svg>