<?xml version="1.0" encoding="UTF-8"?>
<svg width="62px" height="63px" viewBox="0 0 62 63" version="1.1" xmlns="http://www.w3.org/2000/svg" xmlns:xlink="http://www.w3.org/1999/xlink">
    <!-- Generator: Sketch 52.5 (67469) - http://www.bohemiancoding.com/sketch -->
    <title>unity logo</title>
    <desc>Created with Sketch.</desc>
    <g id="Working-Vers-of-Verticle-Slice" stroke="none" stroke-width="1" fill="none" fill-rule="evenodd">
        <g id="L1---Landing---Platforms" transform="translate(-833.000000, -628.000000)" fill="#222C37" fill-rule="nonzero">
            <g id="unity-logo" transform="translate(833.000000, 628.000000)">
                <path d="M62,25.0185185 L55.2030921,0 L29.888967,6.69753086 L26.1419536,13.2222222 L18.5172171,13.1790123 L0,31.5 L18.5172171,49.8209877 L26.0983837,49.7777778 L29.845397,56.3024691 L55.1595221,63 L61.9564301,37.9814815 L58.1222769,31.5 L62,25.0185185 Z M46.0969782,9.37654321 L34.9866479,28.4320988 L12.7659874,28.4320988 L26.7519325,14.3024691 L46.0969782,9.37654321 Z M34.9866479,34.6111111 L46.0969782,53.6666667 L26.7519325,48.7407407 L12.7659874,34.6111111 L34.9866479,34.6111111 Z M40.4328883,31.5 L51.5432186,12.4444444 L56.902319,31.5 L51.5432186,50.5123457 L40.4328883,31.5 Z" id="Shape"></path>
            </g>
        </g>
    </g>
</svg>