<?xml version="1.0" encoding="UTF-8"?>
<svg width="64px" height="64px" viewBox="0 0 64 64" version="1.1" xmlns="http://www.w3.org/2000/svg" xmlns:xlink="http://www.w3.org/1999/xlink">
    <!-- Generator: Sketch 52.3 (67297) - http://www.bohemiancoding.com/sketch -->
    <title>img</title>
    <desc>Created with Sketch.</desc>
    <g id="Screen-States-of-Verticle-Slice" stroke="none" stroke-width="1" fill="none" fill-rule="evenodd">
        <g id="L1---Landing---Feature-Knowledge" transform="translate(-1202.000000, -405.000000)" fill-rule="nonzero">
            <g id="Group" transform="translate(1096.000000, 398.000000)">
                <g id="img" transform="translate(106.000000, 7.000000)">
                    <g id="Layer_1">
                        <path d="M25.728,59.52 L4.48,59.52 L4.48,38.4 L8.832,38.4 C8.32,37.12 8.064,35.712 8.064,34.176 C8.064,34.176 8.064,34.048 8.064,33.92 L0,33.92 L0,64 L30.208,64 L30.208,46.08 L25.728,46.08 L25.728,59.52 Z" id="Shape" fill="#A0A1A2"></path>
                        <path d="M55.68,38.4 L59.52,38.4 L59.52,59.648 L38.272,59.648 L38.272,46.208 L33.792,46.208 L33.792,64 L64,64 L64,33.92 L54.528,33.92 C55.168,35.2 55.68,36.48 55.68,38.144 C55.68,38.144 55.68,38.272 55.68,38.4 Z" id="Shape" fill="#A0A1A2"></path>
                        <path d="M4.48,25.6 L4.48,4.48 L25.728,4.48 L25.728,16.768 C27.008,15.744 28.672,15.104 30.208,14.72 L30.208,0 L0,0 L0,30.08 L8.704,30.08 C9.344,28.544 10.24,26.88 11.52,25.728 L4.48,25.6 Z" id="Shape" fill="#A0A1A2"></path>
                        <path d="M38.272,14.208 L38.272,4.48 L59.52,4.48 L59.52,25.728 L50.176,25.728 C50.56,27.008 50.816,28.544 50.816,30.08 C50.816,30.08 50.816,30.208 50.816,30.208 L64,30.208 L64,0 L33.792,0 L33.792,13.952 C34.176,13.952 34.432,13.824 34.816,13.824 C35.968,13.952 37.12,13.952 38.272,14.208 Z" id="Shape" fill="#A0A1A2"></path>
                        <path d="M47.488,33.28 C47.232,33.28 47.104,33.28 46.848,33.28 C47.104,32.256 47.36,31.104 47.36,29.952 C47.36,22.912 41.728,17.28 34.688,17.28 C29.184,17.28 24.448,20.864 22.784,25.984 C21.888,25.728 20.992,25.472 19.968,25.472 C15.232,25.472 11.392,29.312 11.392,34.176 C11.392,39.04 15.232,42.88 19.968,42.88 C19.968,42.88 29.2693333,42.88 47.872,42.88 C50.304,42.624 52.224,40.576 52.224,38.016 C52.224,35.328 50.048,33.28 47.488,33.28 Z" id="Shape" fill="#417505"></path>
                        <path d="M24.576,42.88 C23.424,41.728 22.656,40.32 22.272,38.656 C21.248,33.92 24.064,29.312 28.8,28.288 C29.824,28.032 30.72,28.032 31.616,28.16 C32,23.808 34.688,19.84 38.656,17.92 C37.504,17.536 36.224,17.28 34.816,17.28 C29.312,17.28 24.576,20.864 22.912,25.984 C22.016,25.728 21.12,25.472 20.096,25.472 C15.36,25.472 11.52,29.312 11.52,34.176 C11.52,39.04 15.36,42.88 20.096,42.88 C20.096,42.88 20.096,42.88 20.096,42.88 L24.576,42.88 Z" id="Shape" fill="#7ED321" opacity="0.2"></path>
                    </g>
                </g>
            </g>
        </g>
    </g>
</svg>