<?xml version="1.0" encoding="UTF-8"?>
<svg width="64px" height="64px" viewBox="0 0 64 64" version="1.1" xmlns="http://www.w3.org/2000/svg" xmlns:xlink="http://www.w3.org/1999/xlink">
    <!-- Generator: Sketch 52.5 (67469) - http://www.bohemiancoding.com/sketch -->
    <title>xbl_real_time_activity</title>
    <desc>Created with Sketch.</desc>
    <g id="Working-Vers-of-Verticle-Slice" stroke="none" stroke-width="1" fill="none" fill-rule="evenodd">
        <g id="L2---Bucketed-Landing-Template---Getting-Started" transform="translate(-450.000000, -656.000000)">
            <g id="xbl_real_time_activity" transform="translate(450.000000, 656.000000)">
                <path d="M62.6424242,32.4266667 C63.2242424,31.7866667 63.1272727,30.6133333 62.6424242,29.9733333 L59.6363636,26.6666667 L46.2545455,12.3733333 C45.6727273,11.7333333 44.8,11.7333333 44.1212121,12.3733333 C43.5393939,13.0133333 43.3454545,14.1866667 44.1212121,14.8266667 L58.1818182,29.9733333 C58.7636364,30.6133333 58.7636364,31.7866667 58.1818182,32.4266667 L43.830303,48.1066667 C43.2484848,48.7466667 43.2484848,49.92 43.830303,50.56 C44.4121212,51.2 45.4787879,51.0933333 45.9636364,50.56 L59.2484848,36.0533333 C59.2484848,36.0533333 59.2484848,36.0533333 59.3454545,35.9466667 L62.6424242,32.4266667 Z" id="Shape" fill="#3999C6"></path>
                <path d="M1.35757576,32.4266667 C0.775757576,31.7866667 0.872727273,30.6133333 1.35757576,29.9733333 L4.36363636,26.6666667 L17.7454545,12.3733333 C18.3272727,11.7333333 19.2,11.7333333 19.8787879,12.3733333 C20.4606061,13.0133333 20.6545455,14.1866667 19.8787879,14.8266667 L6.10909091,29.9733333 C5.52727273,30.6133333 5.52727273,31.7866667 6.10909091,32.4266667 L20.169697,48.1066667 C20.7515152,48.7466667 20.7515152,49.92 20.169697,50.56 C19.5878788,51.2 18.5212121,51.0933333 18.0363636,50.56 L4.46060606,36.2666667 C4.46060606,36.2666667 4.46060606,36.2666667 4.36363636,36.16 L1.35757576,32.4266667 Z" id="Shape" fill="#3999C6"></path>
                <polygon id="Shape" fill="#417505" points="47.1272727 0.533333333 28.2181818 0.533333333 18.0363636 32.1066667 30.4484848 32.2133333 20.7515152 63.4666667 47.5151515 21.76 34.5212121 21.76"></polygon>
                <polygon id="Shape" fill="#7ED321" opacity="0.3" points="34.5212121 21.76 47.1272727 0.533333333 37.2363636 0.533333333 26.7636364 26.7733333 39.1757576 26.88 20.7515152 63.4666667 47.5151515 21.76"></polygon>
            </g>
        </g>
    </g>
</svg>