<?xml version="1.0" encoding="UTF-8"?>
<svg width="50px" height="49px" viewBox="0 0 50 49" version="1.1" xmlns="http://www.w3.org/2000/svg" xmlns:xlink="http://www.w3.org/1999/xlink">
    <!-- Generator: Sketch 52.5 (67469) - http://www.bohemiancoding.com/sketch -->
    <title>img</title>
    <desc>Created with Sketch.</desc>
    <g id="Working-Vers-of-Verticle-Slice" stroke="none" stroke-width="1" fill="none" fill-rule="evenodd">
        <g id="L2---Bucketed-Landing-Template---Feature-Knowledge" transform="translate(-467.000000, -1044.000000)">
            <g id="Group" transform="translate(468.000000, 1045.000000)">
                <g id="img">
                    <g id="i_data-cloud-services">
                        <g id="ICONS-64x">
                            <path d="M48,34.2682353 C48,41.7976471 44.6167742,44.8941176 41.8064516,46.1458824 C40.6561077,46.6470986 39.4504467,46.9357982 38.2296774,47.0023529 C38.1522581,47.0023529 13.4554839,47.0023529 13.4554839,47.0023529 C3.74709677,47.9058824 0,38.3152941 0,32.0847059 C0,25.8541176 3.22064516,20.5458824 7.60258065,19.3129412 C8.00219619,15.5614125 9.72639969,12.2076677 12.3251613,10.1270588 C13.6892162,9.05586519 15.2767659,8.48112176 16.9006452,8.47058824 C19.7714967,8.51879385 22.4503385,10.2328102 24.1083871,13.0823529 C26.9259118,10.9304934 30.532541,11.0552591 33.2448497,13.3984146 C35.9571584,15.7415702 37.24035,19.8411062 36.4954839,23.7835294 C39.2106631,22.8210509 42.1401299,23.4682979 44.4030975,25.5306661 C46.666065,27.5930344 47.9985791,30.8299678 48,34.2682353 Z" id="Shape" fill="#FFFFFF" fill-rule="nonzero"></path>
                            <path d="M48,34.2682353 C48,41.8352941 44.1290323,47.0588235 37.1612903,47.0588235 L9.35225806,14.0423529 L12.3251613,10.1270588 C13.6892162,9.05586519 15.2767659,8.48112176 16.9006452,8.47058824 C19.7714967,8.51879385 22.4503385,10.2328102 24.1083871,13.0823529 C26.9259118,10.9304934 30.532541,11.0552591 33.2448497,13.3984146 C35.9571584,15.7415702 37.24035,19.8411062 36.4954839,23.7835294 C39.2106631,22.8210509 42.1401299,23.4682979 44.4030975,25.5306661 C46.666065,27.5930344 47.9985791,30.8299678 48,34.2682353 Z" id="Shape" fill="#E5E5E5" fill-rule="nonzero"></path>
                            <path d="M48,34.2682353 C47.998295,30.8395387 46.6717456,27.6109811 44.417818,25.5499165 C42.1638904,23.4888519 39.2444358,22.8347255 36.5341935,23.7835294 C37.2627892,19.8456964 35.9755495,15.7610338 33.2691818,13.4230107 C30.5628142,11.0849877 26.9664073,10.9506824 24.1470968,13.0823529 C22.4802072,10.2206672 19.7848897,8.50532139 16.9006452,8.47058824 C12.2554839,8.47058824 8.33032258,13.1764706 7.61032258,19.3129412 C3.22064516,20.5458824 0,25.8729412 0,32.0847059 C0,38.2964706 3.74709677,47.9058824 13.5019355,47.0023529 C13.5019355,47.0023529 38.1754839,47.0023529 38.276129,47.0023529 C38.3767742,47.0023529 48,47.0023529 48,34.2682353 Z" id="Shape" stroke="#556A8A" stroke-width="2"></path>
                            <g id="Group" transform="translate(24.774194, 0.000000)" fill-rule="nonzero">
                                <g>
                                    <rect id="Rectangle-path" stroke="#556A8A" stroke-width="2" fill="#FFFFFF" x="0" y="0" width="16.2580645" height="34.8235294"></rect>
                                    <g transform="translate(0.000000, 0.941176)">
                                        <polygon id="Shape" fill="#E5E5E5" points="15.483871 32.9411765 7.74193548 32.9411765 7.80387097 0 15.483871 0"></polygon>
                                        <rect id="Rectangle-path" fill="#417505" x="0.503225806" y="1.88235294" width="15.483871" height="1.88235294"></rect>
                                    </g>
                                </g>
                                <rect id="Rectangle-path" fill="#7ED321" x="2.32258065" y="2.82352941" width="5.41935484" height="1.88235294"></rect>
                                <rect id="Rectangle-path" fill="#417505" x="0.503225806" y="6.58823529" width="15.483871" height="1.88235294"></rect>
                                <rect id="Rectangle-path" fill="#7ED321" x="2.32258065" y="6.58823529" width="5.41935484" height="1.88235294"></rect>
                                <rect id="Rectangle-path" fill="#417505" x="0.503225806" y="10.3529412" width="15.483871" height="1.88235294"></rect>
                                <rect id="Rectangle-path" fill="#7ED321" x="2.32258065" y="10.3529412" width="5.41935484" height="1.88235294"></rect>
                            </g>
                        </g>
                    </g>
                </g>
            </g>
        </g>
    </g>
</svg>