<?xml version="1.0" encoding="UTF-8"?>
<svg width="72px" height="70px" viewBox="0 0 72 70" version="1.1" xmlns="http://www.w3.org/2000/svg" xmlns:xlink="http://www.w3.org/1999/xlink">
    <!-- Generator: Sketch 52.3 (67297) - http://www.bohemiancoding.com/sketch -->
    <title>ICONS-64x</title>
    <desc>Created with Sketch.</desc>
    <g id="Screen-States-of-Verticle-Slice" stroke="none" stroke-width="1" fill="none" fill-rule="evenodd">
        <g id="L1---Landing---Getting-Started" transform="translate(-78.000000, -662.000000)" fill-rule="nonzero">
            <g id="Group" transform="translate(78.000000, 662.000000)">
                <g id="img">
                    <g id="ICONS-64x">
                        <path d="M64,5.12 L64,64 L0,64 L0,5.12 C-2.705415e-16,2.29230208 1.790861,0 4,0 L60,0 C62.209139,0 64,2.29230208 64,5.12 Z" id="Shape" fill="#80BCEB"></path>
                        <ellipse id="Oval" fill="#414042" cx="6" cy="6.4" rx="2" ry="2.56"></ellipse>
                        <ellipse id="Oval" fill="#414042" cx="12" cy="6.4" rx="2" ry="2.56"></ellipse>
                        <ellipse id="Oval" fill="#414042" cx="18" cy="6.4" rx="2" ry="2.56"></ellipse>
                        <path d="M64,5.12 L64,55.04 L60,49.92 L58,17.92 L34,16.64 L21,0 L60,0 C62.209139,0 64,2.29230208 64,5.12 Z" id="Shape" fill="#AAD2F2"></path>
                        <rect id="Rectangle-path" fill="#7ED321" x="3" y="11.52" width="58" height="48.64"></rect>
                        <path d="M10.08,28.096 L10.08,29.8624 L9.29,29.8624 L9.29,28.16 C8.4903569,28.2026912 7.69727424,27.9588789 7,27.456 L7,25.6 C7.31151088,25.9216333 7.66778722,26.1648513 8.05,26.3168 C8.44773567,26.5021929 8.86677847,26.6016817 9.29,26.6112 L9.29,23.04 C8.5570473,22.6831858 7.89463347,22.1237535 7.35,21.4016 C7.05386599,20.8918699 6.8990278,20.270265 6.91,19.6352 C6.90356045,18.8523368 7.1452968,18.0995626 7.58,17.5488 C8.03774657,16.9537734 8.64158607,16.5786161 9.29,16.4864 L9.29,15.0272 L10.07,15.0272 L10.07,16.4608 C10.7031924,16.4256438 11.3338485,16.583582 11.91,16.9216 L11.91,18.6624 C11.3728773,18.1832603 10.7346836,17.9243559 10.08,17.92 L10.08,21.76 C10.7950039,22.1053695 11.4480838,22.6321873 12,23.3088 C12.734231,24.4127963 12.6774918,26.0552631 11.87,27.072 C11.3744063,27.6498997 10.7469448,28.0088498 10.08,28.096 Z M9.3,21.2352 L9.3,17.9968 C9.00836469,18.059594 8.74114993,18.2441129 8.54,18.5216 C8.35251615,18.7877973 8.25225408,19.1361364 8.26,19.4944 C8.24750728,19.8467533 8.32857412,20.1941423 8.49,20.48 C8.71354947,20.7990603 8.98581919,21.0560829 9.29,21.2352 L9.3,21.2352 Z M10.08,23.488 L10.08,26.6112 C10.8,26.4149333 11.16,25.9370667 11.16,25.1776 C11.16,24.4181333 10.8,23.8549333 10.08,23.488 Z" id="Shape" fill="#FFFFFF"></path>
                        <polygon id="Shape" fill="#FFFFFF" points="18.61 30.5664 13.21 30.5664 13.21 29.6064 18.61 29.6064"></polygon>
                        <polygon id="Shape" fill="#417505" points="61 11.52 61 51.2 30 11.52"></polygon>
                        <g id="two" transform="translate(52.000000, 50.000000)">
                            <path d="M9.98317907,0.000120724346 C4.46961771,0.000120724346 0,4.46925553 0,9.9832998 C0,15.4963783 4.46961771,19.965996 9.98317907,19.965996 C15.496499,19.965996 19.9661167,15.4963783 19.9661167,9.9832998 C19.9661167,4.46925553 15.496499,0.000120724346 9.98317907,0.000120724346 Z" id="Shape" fill="#000000"></path>
                            <path d="M12.8685312,13.1024145 C12.7073642,12.9767002 12.4736016,12.9137626 12.1670423,12.9137626 L9.08997988,12.9137626 C9.18816901,12.7644668 9.28450704,12.6367002 9.378833,12.5306237 C9.59887324,12.2634205 10.0045875,11.8880885 10.5960966,11.4047082 C11.1874849,10.921328 11.6089738,10.5667203 11.8605231,10.3407243 C12.111992,10.1148089 12.3586318,9.80237425 12.6003219,9.40346076 C12.8420121,9.00462777 12.9628571,8.56152918 12.9628571,8.07420523 C12.9628571,7.76382294 12.904829,7.46410463 12.7889738,7.17525151 C12.672998,6.88639839 12.5109054,6.63199195 12.3026559,6.41187123 C12.094326,6.19183099 11.8526358,6.01895372 11.5775855,5.89311871 C11.153159,5.7044668 10.6403219,5.61018109 10.0390744,5.61018109 C9.53995976,5.61018109 9.10474849,5.68386318 8.7334004,5.83122736 C8.36205231,5.97859155 8.05549296,6.17219316 7.81380282,6.41187123 C7.57211268,6.65162978 7.39030181,6.918833 7.26853119,7.21356137 C7.14668008,7.50828974 7.08579477,7.79122736 7.08579477,8.06241449 C7.08579477,8.28639839 7.15062374,8.46325956 7.28032193,8.59295775 C7.41002012,8.72265594 7.57303823,8.78748491 7.76957746,8.78748491 C7.99356137,8.78748491 8.16350101,8.71674044 8.27947686,8.57529175 C8.39533199,8.43380282 8.4995171,8.23146881 8.59191147,7.96812877 C8.68418511,7.70486922 8.75006036,7.54370221 8.78937626,7.48474849 C9.08410463,7.03287726 9.48881288,6.80684105 10.0037022,6.80684105 C10.2473239,6.80684105 10.4723541,6.86193159 10.6786318,6.97191147 C10.8849497,7.08197183 11.0479678,7.23625755 11.1678873,7.43464789 C11.2877264,7.63315895 11.3476861,7.85814889 11.3476861,8.10957746 C11.3476861,8.34148893 11.29167,8.57822938 11.1796781,8.81987928 C11.0676861,9.06152918 10.9045473,9.29734406 10.6904225,9.52724346 C10.4761771,9.75714286 10.2079678,9.9861167 9.88579477,10.2139638 C9.70498994,10.3358149 9.40434608,10.5903018 8.98390342,10.9773441 C8.56334004,11.3644668 8.09179074,11.8291348 7.56917505,12.3714688 C7.44338028,12.5051107 7.32748491,12.6888531 7.22136821,12.9226157 C7.11525151,13.156499 7.06221328,13.3441046 7.06221328,13.4855533 C7.06221328,13.705674 7.14474849,13.8972636 7.30977867,14.0602817 C7.47484909,14.2234205 7.70470825,14.3049095 7.99947686,14.3049095 L12.3380282,14.3049095 C12.5973843,14.3049095 12.7909054,14.2381489 12.918672,14.104507 C13.0463179,13.9709457 13.1102616,13.8078471 13.1102616,13.6152515 C13.1102213,13.3991952 13.0296177,13.2282495 12.8685312,13.1024145 Z" id="Shape" fill="#FFFFFF"></path>
                        </g>
                    </g>
                </g>
            </g>
        </g>
    </g>
</svg>