<?xml version="1.0" encoding="UTF-8"?>
<svg width="62px" height="34px" viewBox="0 0 62 34" version="1.1" xmlns="http://www.w3.org/2000/svg" xmlns:xlink="http://www.w3.org/1999/xlink">
    <!-- Generator: Sketch 52.3 (67297) - http://www.bohemiancoding.com/sketch -->
    <title>logo_ios</title>
    <desc>Created with Sketch.</desc>
    <g id="Screen-States-of-Verticle-Slice" stroke="none" stroke-width="1" fill="none" fill-rule="evenodd">
        <g id="L1---Landing---Platforms" transform="translate(-1153.000000, -412.000000)" fill="#000000" fill-rule="nonzero">
            <g id="logo_ios" transform="translate(1152.000000, 412.000000)">
                <path d="M3,4.81 C2.47327827,4.81308559 1.96660346,4.60825961 1.59,4.24 C1.19734459,3.86170475 0.983019888,3.33497453 1,2.79 C0.983955766,2.25396389 1.19881848,1.73683668 1.59,1.37 C1.96821205,1.00539604 2.47469321,0.804240407 3,0.81 C3.276271,0.822255199 3.54772129,0.886724644 3.8,1 C4.04220733,1.09121607 4.26334963,1.23070582 4.45,1.41 C4.63601023,1.58958481 4.78543448,1.80353317 4.89,2.04 C4.99973016,2.29221884 5.05428213,2.5649787 5.05,2.84 C5.05399908,3.11077277 5.00296783,3.3795374 4.9,3.63 C4.80096921,3.87535461 4.65099934,4.09690102 4.46,4.28 C4.27191378,4.46245146 4.05148774,4.60827176 3.81,4.71 C3.54974372,4.7986547 3.27400337,4.83269672 3,4.81 Z M1.63,33 L1.63,10.5 L4.44,10.5 L4.44,33 L1.63,33 Z" id="Shape"></path>
                <path d="M24.76,33.55 C22.6511151,33.583988 20.5598735,33.1609636 18.63,32.31 C16.8623497,31.5189759 15.2838633,30.3598282 14,28.91 C12.7071843,27.4290494 11.7153651,25.710349 11.08,23.85 C10.3945173,21.8384826 10.0563565,19.7249776 10.08,17.6 C10.0464652,15.3074745 10.384164,13.0246304 11.08,10.84 C11.7072501,8.90184027 12.7286509,7.11438889 14.08,5.59 C15.4060742,4.11446834 17.0417036,2.95006408 18.87,2.18 C20.9139033,1.35218723 23.1053734,0.950644578 25.31,1 C27.3727302,0.967111008 29.418591,1.37628318 31.31,2.2 C33.041466,2.96753183 34.5867046,4.1000246 35.84,5.52 C37.1153832,6.98227164 38.0905734,8.68120924 38.71,10.52 C39.3924732,12.5529509 39.7304603,14.6856492 39.71,16.83 C39.7234344,19.0851045 39.3860696,21.3285803 38.71,23.48 C38.1129238,25.4240162 37.1337933,27.229288 35.83,28.79 C34.5506611,30.296216 32.9519722,31.4986487 31.15,32.31 C29.134249,33.1789962 26.9544712,33.6019891 24.76,33.55 Z M25,3.62 C23.2517873,3.58766797 21.519849,3.96075349 19.94,4.71 C18.5020434,5.40955162 17.2328818,6.41259863 16.22,7.65 C15.1773483,8.93790567 14.3930105,10.4149055 13.91,12 C13.3816656,13.7205753 13.112052,15.5101355 13.11,17.31 C13.0875147,19.0445645 13.3199972,20.7730216 13.8,22.44 C14.2548109,24.0087217 15.0011672,25.4776866 16,26.77 C16.9706123,28.032632 18.2152285,29.0584146 19.64,29.77 C21.2396065,30.547585 23.0018971,30.931586 24.78,30.89 C26.5586178,30.9346086 28.3257959,30.5934545 29.96,29.89 C31.3879556,29.2195321 32.6433848,28.2309244 33.63,27 C34.6604734,25.7243826 35.4254704,24.2555882 35.88,22.68 C36.4012165,20.9040192 36.6573122,19.0608038 36.64,17.21 C36.6557878,15.4527975 36.4406127,13.7011379 36,12 C35.59397,10.4305343 34.8838857,8.95600528 33.91,7.66 C32.9484023,6.41180456 31.7088929,5.40513123 30.29,4.72 C28.6355927,3.94877642 26.82471,3.57222237 25,3.62 Z" id="Shape"></path>
                <path d="M44.55,28.39 C45.0987333,28.8003946 45.6846131,29.1586183 46.3,29.46 C47.562345,30.0809231 48.9106739,30.5090175 50.3,30.73 C50.9376997,30.838594 51.5831362,30.8954459 52.23,30.9 C54.1195867,31.0394512 56.0026932,30.5546215 57.59,29.52 C58.8004546,28.5569709 59.4648715,27.0638992 59.37,25.52 C59.3862819,24.7685266 59.2431379,24.0221326 58.95,23.33 C58.6399041,22.6644971 58.1975921,22.0690771 57.65,21.58 C56.9560255,20.9777492 56.2020758,20.448309 55.4,20 C54.5066667,19.4666667 53.4533333,18.8633333 52.24,18.19 C50.9066667,17.4566667 49.7533333,16.7633333 48.78,16.11 C47.9182241,15.5414126 47.1290575,14.8697815 46.43,14.11 C45.845155,13.4665204 45.3901493,12.7161006 45.09,11.9 C44.7916282,11.0316332 44.6461384,10.1180929 44.66,9.2 C44.6391474,8.00694495 44.9176308,6.82768779 45.47,5.77 C46.0105701,4.76268917 46.7607501,3.88293265 47.67,3.19 C48.6427479,2.45319465 49.7402753,1.89765607 50.91,1.55 C52.2068936,1.1590722 53.5555312,0.966891341 54.91,0.98 C57.0284754,0.908235362 59.1407741,1.24783322 61.13,1.98 L61.13,5.21 C59.126772,4.10631498 56.8664661,3.55417919 54.58,3.61 C53.6731148,3.61787135 52.7715153,3.74907426 51.9,4 C51.1240872,4.20479915 50.3897788,4.54319015 49.73,5 C49.1207204,5.42670706 48.6177538,5.98783987 48.26,6.64 C47.8899943,7.33847296 47.7041432,8.11973597 47.72,8.91 C47.7060286,9.62321881 47.8282114,10.332558 48.08,11 C48.3512072,11.6340085 48.7493881,12.2057555 49.25,12.68 C49.8883853,13.285393 50.5967254,13.8124518 51.36,14.25 C52.2333333,14.77 53.3,15.3666667 54.56,16.04 C55.7419638,16.662284 56.8902303,17.3465707 58,18.09 C58.8977145,18.6856445 59.72032,19.3873773 60.45,20.18 C61.0705024,20.8567921 61.5649542,21.6391097 61.91,22.49 C62.2403764,23.354729 62.4032708,24.2744036 62.39,25.2 C62.416337,26.4563714 62.1528557,27.7019194 61.62,28.84 C61.1233148,29.8672542 60.3857072,30.7592448 59.47,31.44 C58.4775238,32.1622798 57.3580699,32.6914761 56.17,33 C54.8002061,33.364746 53.3874644,33.5430206 51.97,33.53 C51.3748549,33.5242076 50.7805373,33.4841413 50.19,33.41 C49.4879061,33.3284461 48.7903583,33.2116318 48.1,33.06 C47.4241108,32.9120237 46.7565133,32.7284344 46.1,32.51 C45.5581415,32.3413698 45.0379234,32.1097889 44.55,31.82 L44.55,28.39 Z" id="Shape"></path>
            </g>
        </g>
    </g>
</svg>