<?xml version="1.0" encoding="UTF-8"?>
<svg width="62px" height="62px" viewBox="0 0 62 62" version="1.1" xmlns="http://www.w3.org/2000/svg" xmlns:xlink="http://www.w3.org/1999/xlink">
    <!-- Generator: Sketch 52.3 (67297) - http://www.bohemiancoding.com/sketch -->
    <title>logo_git-blk</title>
    <desc>Created with Sketch.</desc>
    <g id="Screen-States-of-Verticle-Slice" stroke="none" stroke-width="1" fill="none" fill-rule="evenodd">
        <g id="L1---Landing-API-References" transform="translate(-515.000000, -639.000000)" fill="#417505" fill-rule="nonzero">
            <g id="logo_git-blk" transform="translate(514.000000, 639.000000)">
                <path d="M61.83,28.24 L34.76,1.17 C33.1986901,-0.387533197 30.6713099,-0.387533197 29.11,1.17 L23.49,6.79 L30.62,13.92 C32.3247628,13.3490099 34.2058276,13.7916358 35.4770959,15.0629041 C36.7483642,16.3341724 37.1909901,18.2152372 36.62,19.92 L43.49,26.79 C45.708917,26.0250288 48.153897,26.9953808 49.2443578,29.0737622 C50.3348185,31.1521435 49.7438034,33.7153859 47.8533801,35.1064551 C45.9629569,36.4975243 43.3399377,36.2993313 41.68,34.64 C40.2910414,33.3055068 39.8343277,31.269981 40.52,29.47 L34,23.11 L34,40 C34.5679406,40.0877999 35.0706686,40.415666 35.38,40.9 C37.1803094,42.7582777 37.1490312,45.7195375 35.3098719,47.5393734 C33.4707125,49.3592093 30.5092875,49.3592093 28.6701281,47.5393734 C26.8309688,45.7195375 26.7996906,42.7582777 28.6,40.9 C29.06,40.44 30,40.1 30,39.9 L30,22.9 C30,22.67 29.07,22.32 28.61,21.9 C27.2691175,20.5227857 26.897325,18.4700166 27.67,16.71 L20.67,9.71 L2.15,28.11 C0.592466803,29.6713099 0.592466803,32.1986901 2.15,33.76 L29.23,60.83 C30.7913099,62.3875332 33.3186901,62.3875332 34.88,60.83 L61.83,33.89 C63.3875332,32.3286901 63.3875332,29.8013099 61.83,28.24 Z" id="Shape"></path>
            </g>
        </g>
    </g>
</svg>