<?xml version="1.0" encoding="UTF-8"?>
<svg width="69px" height="67px" viewBox="0 0 69 67" version="1.1" xmlns="http://www.w3.org/2000/svg" xmlns:xlink="http://www.w3.org/1999/xlink">
    <!-- Generator: Sketch 52.3 (67297) - http://www.bohemiancoding.com/sketch -->
    <title>xblsandboxicon</title>
    <desc>Created with Sketch.</desc>
    <g id="Screen-States-of-Verticle-Slice" stroke="none" stroke-width="1" fill="none" fill-rule="evenodd">
        <g id="L1---Landing---Getting-Started" transform="translate(-454.000000, -662.000000)">
            <g id="xblsandboxicon" transform="translate(451.000000, 662.000000)">
                <path d="M57.75,50 C57.32,49.23 56.51,47.9 55.48,46.23 C54.45,44.56 53.12,42.42 51.74,40.23 C50.01,37.49 48.17,34.59 46.54,32.03 C44.54,28.87 42.83,26.22 42,24.96 L42,7 C42,7 44,5 44,3 C44,2 43,1 41,1 L23,1 C21,1 20,2 20,3 C20,5 22,7 22,7 L22,25 C21.17,26.26 19.47,28.91 17.46,32.07 C15.83,34.63 13.99,37.53 12.26,40.27 C10.88,42.46 9.58,44.55 8.52,46.27 C7.46,47.99 6.68,49.27 6.25,50.04 C4.61186147,52.6400081 4.50853308,55.9228052 5.9799167,58.6206877 C7.45130033,61.3185703 10.2671189,63.0093095 13.34,63.04 L50.66,63.04 C53.7328811,63.0093095 56.5486997,61.3185703 58.0200833,58.6206877 C59.4914669,55.9228052 59.3881385,52.6400081 57.75,50.04 L57.75,50 Z" id="Shape" fill="#FFFFFF" fill-rule="nonzero"></path>
                <path d="M57.54,58.6 C56.1828204,61.1770891 53.5686935,62.8489145 50.66,63 L13.34,63 C10.427396,62.842552 7.8112134,61.1677803 6.4488999,58.5886033 C5.0865864,56.0094263 5.17811923,52.9044475 6.69,50.41 C7.417563,49.1058429 8.02988738,47.7406606 8.52,46.33 C9.58,44.61 10.88,42.45 12.26,40.26 C14,37.53 15.83,35 17.46,32 L46.54,32 C48.17,35 50.01,37.49 51.74,40.23 C53.12,42.42 54.42,44.53 55.48,46.23 C55.9761967,47.6607704 56.5882243,49.0487018 57.31,50.38 C58.8481372,52.8826046 58.9357918,56.0153025 57.54,58.6 Z" id="Shape" fill="#7ED321" fill-rule="nonzero"></path>
                <path d="M57.75,50 C56.87,48.43 54.45,44.53 51.75,40.22 C47.88,34.15 43.5,27.28 42,25 L42,7 C42,7 44,5 44,3 C44,2 43,1 41,1 L23,1 C21,1 20,2 20,3 C20,5 22,7 22,7 L22,25 C20.5,27.28 16.12,34.15 12.26,40.27 C9.55,44.58 7.13,48.47 6.26,50.05 C4.62186147,52.6500081 4.51853308,55.9328052 5.9899167,58.6306877 C7.46130033,61.3285703 10.2771189,63.0193095 13.35,63.05 L50.66,63.05 C53.7328811,63.0193095 56.5486997,61.3285703 58.0200833,58.6306877 C59.4914669,55.9328052 59.3881385,52.6500081 57.75,50.05 L57.75,50 Z" id="Shape" stroke="#556A8A" stroke-width="2"></path>
                <path d="M40,5 L24,5 C23.4477153,5 23,4.55228475 23,4 C23,3.44771525 23.4477153,3 24,3 L40,3 C40.5522847,3 41,3.44771525 41,4 C41,4.55228475 40.5522847,5 40,5 Z" id="Shape" fill="#E5E5E5" fill-rule="nonzero"></path>
                <rect id="Rectangle-path" x="0" y="0" width="64" height="64"></rect>
                <path d="M41,41.93 C39.3380629,41.8488552 37.7120255,42.4316385 36.48,43.55 L32.14,47.4 L28.47,44.2 C27.0079205,42.8272486 25.1034038,42.0221736 23.1,41.93 C19.2146768,41.93 16.065,45.0796768 16.065,48.965 C16.065,52.8503232 19.2146768,56 23.1,56 C25.1528258,55.9316855 27.1065606,55.1009916 28.58,53.67 L32.14,50.52 L36.21,54.08 C38.5101645,56.1973564 41.9355068,56.5327493 44.60269,54.9017714 C47.2698732,53.2707936 48.5321786,50.0689124 47.6955599,47.0566003 C46.8589412,44.0442882 44.1262555,41.9519483 41,41.93 Z M27,51.93 C25.9463114,52.9835745 24.5382895,53.6073817 23.05,53.68 C20.4459774,53.68 18.335,51.5690226 18.335,48.965 C18.335,46.3609774 20.4459774,44.25 23.05,44.25 C24.4920269,44.3435242 25.85507,44.941847 26.9,45.94 L30.35,48.94 L27,51.93 Z M41,53.68 C39.7945321,53.6814134 38.6346052,53.2195906 37.76,52.39 L33.89,49 L38.08,45.31 C38.8828472,44.5968937 39.9386984,44.2365349 41.01,44.31 C43.6140226,44.31 45.725,46.4209774 45.725,49.025 C45.725,51.6290226 43.6140226,53.74 41.01,53.74 L41,53.68 Z" id="Shape" fill="#556A8A" fill-rule="nonzero"></path>
                <g id="three" transform="translate(52.000000, 47.000000)" fill-rule="nonzero">
                    <path d="M9.98317907,0.000120724346 C4.46961771,0.000120724346 0,4.46925553 0,9.9832998 C0,15.4963783 4.46961771,19.965996 9.98317907,19.965996 C15.496499,19.965996 19.9661167,15.4963783 19.9661167,9.9832998 C19.9661167,4.46925553 15.496499,0.000120724346 9.98317907,0.000120724346 Z" id="Shape" fill="#000000"></path>
                    <path d="M12.8626559,10.8535614 C12.7565392,10.5962173 12.5983099,10.3613682 12.3881288,10.1491348 C12.177827,9.93694165 11.9194769,9.74828974 11.6129577,9.58321932 C11.9312676,9.3160161 12.1758954,9.04193159 12.346841,8.76088531 C12.5177867,8.47995976 12.6032596,8.14297787 12.6032596,7.74993964 C12.6032596,7.45134809 12.5443058,7.17227364 12.4263984,6.91287726 C12.3084909,6.65348089 12.1336016,6.4256338 11.9017706,6.22909457 C11.6698592,6.03263581 11.3967404,5.882334 11.0824145,5.77814889 C10.7679678,5.67408451 10.420161,5.62193159 10.0390342,5.62193159 C9.6028169,5.62193159 9.20788732,5.68382294 8.85420523,5.80760563 C8.50052314,5.93138833 8.20474849,6.0955332 7.96704225,6.29979879 C7.72921529,6.50418511 7.54853119,6.71935614 7.42470825,6.94527163 C7.30092555,7.17130785 7.23903421,7.38643863 7.23903421,7.59074447 C7.23903421,7.80293763 7.30478873,7.97299799 7.43649899,8.10064386 C7.56812877,8.22841046 7.71251509,8.2922334 7.86977867,8.2922334 C8.00334004,8.2922334 8.12124748,8.26865191 8.22346076,8.22148893 C8.32559356,8.17432596 8.39633803,8.10949698 8.43565392,8.02696177 C8.50241449,7.87368209 8.57609658,7.71066398 8.6567002,7.53770624 C8.7371831,7.36482897 8.82269618,7.22334004 8.91311871,7.11327968 C9.00346076,7.0032998 9.12623742,6.91488934 9.28152918,6.84800805 C9.4367002,6.78124748 9.63420523,6.74780684 9.87396378,6.74780684 C10.2276459,6.74780684 10.5085714,6.85686117 10.7169014,7.07496982 C10.9251509,7.29307847 11.029336,7.55348089 11.029336,7.8560161 C11.029336,8.25299799 10.8986318,8.55750503 10.6373441,8.76969819 C10.3759356,8.98189135 10.0645473,9.08800805 9.70301811,9.08800805 L9.46132797,9.08800805 C9.18225352,9.08800805 8.97207243,9.14603622 8.8305835,9.26189135 C8.68909457,9.3778672 8.61839034,9.5301006 8.61839034,9.71875252 C8.61839034,9.91134809 8.67734406,10.0616499 8.79525151,10.1696982 C8.91315895,10.277827 9.08012072,10.3317907 9.29629779,10.3317907 C9.34346076,10.3317907 9.44957746,10.3239839 9.61460765,10.3082093 C9.77967807,10.2925553 9.90140845,10.2846278 9.98008048,10.2846278 C10.4280885,10.2846278 10.7777867,10.415332 11.029336,10.6766197 C11.2808048,10.9380282 11.4065996,11.2985111 11.4065996,11.7583099 C11.4065996,12.0688129 11.3329175,12.3418913 11.1855533,12.577666 C11.0381891,12.8134406 10.8514688,12.9913078 10.6255533,13.1111469 C10.3995171,13.2310664 10.1647485,13.2909457 9.92112676,13.2909457 C9.4967002,13.2909457 9.16752515,13.1583099 8.93376258,12.8930382 C8.69987928,12.6277666 8.48080483,12.2220523 8.27649899,11.6757746 C8.24498994,11.5854326 8.17822938,11.5077666 8.07609658,11.4429376 C7.97384306,11.3781087 7.8677666,11.345674 7.75778672,11.345674 C7.537666,11.345674 7.35400402,11.415493 7.20663984,11.5549296 C7.05927565,11.6944869 6.98559356,11.8782294 6.98559356,12.1060765 C6.98559356,12.2829376 7.04748491,12.5069215 7.17126761,12.7780684 C7.2950503,13.0492153 7.47778672,13.3115493 7.71947686,13.5650302 C7.961167,13.8185111 8.26861167,14.0297787 8.64201207,14.1987123 C9.01529175,14.3676459 9.43778672,14.4521932 9.90937626,14.4521932 C10.3730382,14.4521932 10.7965392,14.3785111 11.1796781,14.2311469 C11.5628169,14.0837827 11.8938833,13.8794769 12.1729577,13.6181087 C12.4519517,13.3568209 12.6631388,13.0591147 12.8066398,12.7250704 C12.9500201,12.3911066 13.0218109,12.0452314 13.0218109,11.6876056 C13.0218109,11.3890543 12.9687324,11.1110262 12.8626559,10.8535614 Z" id="Shape" fill="#FFFFFF"></path>
                </g>
            </g>
        </g>
    </g>
</svg>