<?xml version="1.0" encoding="UTF-8"?>
<svg width="40px" height="40px" viewBox="0 0 40 40" version="1.1" xmlns="http://www.w3.org/2000/svg" xmlns:xlink="http://www.w3.org/1999/xlink">
    <!-- Generator: Sketch 53.2 (72643) - https://sketchapp.com -->
    <title>Group 8</title>
    <desc>Created with Sketch.</desc>
    <g id="Working-Vers-of-Verticle-Slice" stroke="none" stroke-width="1" fill="none" fill-rule="evenodd">
        <g id="L2---Bucketed-Landing-Template---Features-v2.1" transform="translate(-466.000000, -1740.000000)">
            <g id="Group-8" transform="translate(466.000000, 1740.000000)">
                <g id="web-startup">
                    <path d="M3.6374249,2.05128205 L30.5937625,2.05128205 C31.7105054,2.05128205 32.6155937,2.96806662 32.6155937,4.09924103 L32.6155937,25.9428865 C32.6155937,27.074061 31.7105054,27.9908455 30.5937625,27.9908455 L3.6374249,27.9908455 C2.52068201,27.9908455 1.61559371,27.074061 1.61559371,25.9428865 L1.61559371,4.09924103 C1.61559371,2.96806662 2.52068201,2.05128205 3.6374249,2.05128205 Z" id="Path" fill="#7ED321"></path>
                    <path d="M36.6188336,3.07692308 L30.6288148,3.07692308 L8,25.2603229 L38.6153324,25.2603229 L38.6153324,5.03437985 C38.6155936,3.95319361 37.7217287,3.07692308 36.6188336,3.07692308 Z" id="Path" fill="#417505"></path>
                    <polygon id="Path" fill="#DADDDF" points="25.2956468 37.9382128 23.3760515 31.7948718 16.2659844 31.7948718 14.3461101 37.9382128 12 37.9382128 12 39.3036082 27.642036 39.3036082 27.642036 37.9382128"></polygon>
                    <polygon id="Path" fill="#C1C7C9" points="24.8535221 34.8682039 24.1021407 32.8205128 15.7517093 32.8205128 15 34.8682039"></polygon>
                    <path d="M1,25.6410256 L1,28.7142907 C1,30.4120071 1.89386495,31.7879577 2.99676,31.7879577 L37.6053512,31.7879577 C38.7082462,31.7879577 39.6021112,30.4120071 39.6021112,28.7142907 L39.6021112,25.6410256 L1,25.6410256 Z" id="Path" fill="#DADDDF"></path>
                    <path d="M36.6550345,0.967073386 L3.2742069,0.967073386 C1.48689655,0.967073386 0.0328275862,2.45842617 0.0328275862,4.29156499 L0.0328275862,29.9289125 C0.0328275862,31.7620513 1.48689655,33.2534041 3.2742069,33.2534041 L14.3408276,33.2534041 L12.9198621,37.6282935 L11.5662069,37.6282935 C10.9947586,37.6282935 11.0001571,38.1032007 11.0001571,38.6893015 C11.0001571,39.2754023 10.9947586,39.7503095 11.5662069,39.7503095 L13.6623448,39.7503095 C13.6667586,39.7505924 13.668,39.7503095 13.6691034,39.7503095 L26.2598621,39.7503095 L28.3628966,39.7503095 C28.9343448,39.7503095 28.8912195,39.2754023 28.8912195,38.6893015 C28.8912195,38.1032007 28.9343448,37.6282935 28.3628966,37.6282935 L27.0089655,37.6282935 L25.5881379,33.2534041 L36.6547586,33.2534041 C38.442069,33.2534041 39.8961379,31.7620513 39.8961379,29.9289125 L39.8961379,4.29156499 C39.8964138,2.45842617 38.4423448,0.967073386 36.6550345,0.967073386 Z M36.6550345,3.0890893 C37.3013793,3.0890893 37.8274483,3.62850575 37.8274483,4.29156499 L37.8274483,24.2107869 L2,24.2107869 L2,3.0890893 L36.6550345,3.0890893 Z M24.8285517,37.6282935 L15.1005517,37.6282935 L16.5215172,33.2534041 L23.4078621,33.2534041 L24.8285517,37.6282935 Z M36.6550345,31.1313882 L3.2742069,31.1313882 C2.62772414,31.1313882 2.1017931,30.5918302 2.1017931,29.9289125 L2.1017931,26.3328028 L37.8275862,26.3328028 L37.8275862,29.9289125 C37.8274483,30.5919717 37.3015172,31.1313882 36.6550345,31.1313882 Z" id="Shape" fill="#000000" fill-rule="nonzero"></path>
                    <g id="Group-5" transform="translate(8.000000, 4.102564)" fill="#000000" fill-rule="nonzero">
                        <g id="cloudstoragePNG" transform="translate(0.000000, -0.000000)">
                            <g id="Group" transform="translate(11.500000, 9.251603) scale(-1, 1) rotate(-180.000000) translate(-11.500000, -9.251603) translate(0.000000, 0.196581)">
                                <path d="M11.0447917,18.0117521 C9.82291667,17.7905983 8.28958333,16.9305556 7.33125,15.8739316 C6.73229167,15.2350427 6.44479167,15.1121795 5.4625,15.1121795 C1.74895833,15.1121795 -0.790625,11.3279915 0.263541667,7.42094017 C0.646875,5.9957265 2.39583333,4.12820513 3.78541667,3.71047009 C4.26458333,3.53846154 4.3125,3.61217949 4.3125,4.37393162 C4.3125,5.06196581 4.16875,5.30769231 3.42604167,5.7991453 C0.694791667,7.61752137 0.982291667,11.6720085 3.953125,13.1463675 C4.86354167,13.5886752 5.31875,13.6623932 6.34895833,13.5395299 L7.59479167,13.392094 L8.24166667,14.3995726 C9.60729167,16.4882479 12.6739583,17.1517094 14.7822917,15.8247863 C15.6927083,15.2350427 17.0104167,13.3429487 17.0104167,12.6057692 C17.0104167,12.2617521 17.2020833,12.1634615 17.8489583,12.1634615 C18.9270833,12.1634615 19.8854167,11.6720085 20.6760417,10.6891026 C21.5864583,9.60790598 21.70625,8.5267094 21.13125,7.15064103 C20.55625,5.82371795 19.4541667,5.03739316 18.1604167,5.03739316 C17.2739583,5.03739316 17.25,5.01282051 17.25,4.17735043 C17.25,3.39102564 17.321875,3.31730769 17.9208333,3.31730769 C19.9333333,3.31730769 21.9458333,4.74252137 22.6645833,6.63461538 C23.2395833,8.23183761 23.0479167,10.1730769 22.1375,11.5 C21.3708333,12.6057692 19.8614583,13.6378205 18.9989583,13.6378205 C18.615625,13.6378205 18.328125,13.9081197 17.9927083,14.5715812 C17.465625,15.6527778 15.8604167,17.2254274 14.9020833,17.5940171 C13.8,18.0363248 12.146875,18.2083333 11.0447917,18.0117521 Z" id="Path"></path>
                                <path d="M8.625,7.07692308 L8.625,3.21901709 L7.95416667,3.88247863 C7.13958333,4.66880342 6.92395833,4.69337607 6.34895833,4.05448718 C5.89375,3.53846154 5.91770833,3.51388889 7.61875,1.76923077 L9.34375,0 L11.06875,1.76923077 C12.7697917,3.51388889 12.79375,3.53846154 12.3385417,4.05448718 C11.7635417,4.69337607 11.5479167,4.66880342 10.7333333,3.88247863 L10.0625,3.21901709 L10.0625,7.07692308 L10.0625,10.9348291 L9.34375,10.9348291 L8.625,10.9348291 L8.625,7.07692308 Z" id="Path"></path>
                                <path d="M13.225,9.38675214 C12.4104167,8.55128205 11.7395833,7.74038462 11.7395833,7.59294872 C11.7395833,7.44551282 11.9552083,7.12606838 12.21875,6.88034188 C12.6979167,6.43803419 12.721875,6.43803419 13.5364583,7.24893162 L14.375,8.08440171 L14.375,4.22649573 L14.375,0.368589744 L15.09375,0.368589744 L15.8125,0.368589744 L15.8125,4.22649573 L15.8125,8.08440171 L16.6510417,7.24893162 C17.465625,6.43803419 17.4895833,6.43803419 17.96875,6.88034188 C18.2322917,7.12606838 18.4479167,7.44551282 18.4479167,7.59294872 C18.4479167,8.01068376 15.5010417,10.9348291 15.0697917,10.9348291 C14.878125,10.9348291 14.0395833,10.2467949 13.225,9.38675214 Z" id="Path"></path>
                            </g>
                        </g>
                    </g>
                </g>
            </g>
        </g>
    </g>
</svg>