<?xml version="1.0" encoding="UTF-8"?>
<svg width="40px" height="38px" viewBox="0 0 40 38" version="1.1" xmlns="http://www.w3.org/2000/svg" xmlns:xlink="http://www.w3.org/1999/xlink">
    <!-- Generator: Sketch 53.2 (72643) - https://sketchapp.com -->
    <title>Group 8</title>
    <desc>Created with Sketch.</desc>
    <g id="Working-Vers-of-Verticle-Slice" stroke="none" stroke-width="1" fill="none" fill-rule="evenodd">
        <g id="L2---Bucketed-Landing-Template---Features-v2.1" transform="translate(-468.000000, -1329.000000)">
            <g id="Group-8" transform="translate(468.000000, 1327.000000)">
                <g id="web-startup" transform="translate(0.000000, 1.951220)">
                    <path d="M3.6374249,1.95121951 L30.5937625,1.95121951 C31.7105054,1.95121951 32.6155937,2.82328288 32.6155937,3.89927805 L32.6155937,24.6773799 C32.6155937,25.7533751 31.7105054,26.6254384 30.5937625,26.6254384 L3.6374249,26.6254384 C2.52068201,26.6254384 1.61559371,25.7533751 1.61559371,24.6773799 L1.61559371,3.89927805 C1.61559371,2.82328288 2.52068201,1.95121951 3.6374249,1.95121951 Z" id="Path" fill="#7ED321"></path>
                    <path d="M36.6188336,2.92682927 L30.6288148,2.92682927 L8,24.028112 L38.6153324,24.028112 L38.6153324,4.78880035 C38.6155936,3.76035489 37.7217287,2.92682927 36.6188336,2.92682927 Z" id="Path" fill="#417505"></path>
                    <polygon id="Path" fill="#DADDDF" points="25.2956468 36.0875683 23.3760515 30.2439024 16.2659844 30.2439024 14.3461101 36.0875683 12 36.0875683 12 37.386359 27.642036 37.386359 27.642036 36.0875683"></polygon>
                    <polygon id="Path" fill="#C1C7C9" points="24.8535221 33.1673159 24.1021407 31.2195122 15.7517093 31.2195122 15 33.1673159"></polygon>
                    <path d="M1,24.3902439 L1,27.3135935 C1,28.9284945 1.89386495,30.2373257 2.99676,30.2373257 L37.6053512,30.2373257 C38.7082462,30.2373257 39.6021112,28.9284945 39.6021112,27.3135935 L39.6021112,24.3902439 L1,24.3902439 Z" id="Path" fill="#DADDDF"></path>
                    <path d="M36.6550345,0.919899075 L3.2742069,0.919899075 C1.48689655,0.919899075 0.0328275862,2.33850294 0.0328275862,4.08222035 L0.0328275862,28.4689655 C0.0328275862,30.2126829 1.48689655,31.6312868 3.2742069,31.6312868 L14.3408276,31.6312868 L12.9198621,35.792767 L11.5662069,35.792767 C10.9947586,35.792767 11.0001571,36.244508 11.0001571,36.8020185 C11.0001571,37.359529 10.9947586,37.81127 11.5662069,37.81127 L13.6623448,37.81127 C13.6667586,37.8115391 13.668,37.81127 13.6691034,37.81127 L26.2598621,37.81127 L28.3628966,37.81127 C28.9343448,37.81127 28.8912195,37.359529 28.8912195,36.8020185 C28.8912195,36.244508 28.9343448,35.792767 28.3628966,35.792767 L27.0089655,35.792767 L25.5881379,31.6312868 L36.6547586,31.6312868 C38.442069,31.6312868 39.8961379,30.2126829 39.8961379,28.4689655 L39.8961379,4.08222035 C39.8964138,2.33850294 38.4423448,0.919899075 36.6550345,0.919899075 Z M36.6550345,2.93840202 C37.3013793,2.93840202 37.8274483,3.45150547 37.8274483,4.08222035 L37.8274483,23.0297729 L2,23.0297729 L2,2.93840202 L36.6550345,2.93840202 Z M24.8285517,35.792767 L15.1005517,35.792767 L16.5215172,31.6312868 L23.4078621,31.6312868 L24.8285517,35.792767 Z M36.6550345,29.6127839 L3.2742069,29.6127839 C2.62772414,29.6127839 2.1017931,29.0995458 2.1017931,28.4689655 L2.1017931,25.0482759 L37.8275862,25.0482759 L37.8275862,28.4689655 C37.8274483,29.0996804 37.3015172,29.6127839 36.6550345,29.6127839 Z" id="Shape" fill="#000000" fill-rule="nonzero"></path>
                </g>
                <g id="Group-4" transform="translate(5.000000, 0.000000)" fill="#000000" fill-rule="nonzero">
                    <g id="analytics-(1)" transform="translate(15.000000, 14.634146) scale(-1, 1) translate(-15.000000, -14.634146) ">
                        <path d="M16.3264221,11.502465 L12.6971186,11.502465 C12.1962786,11.502465 11.7897714,11.8990573 11.7897714,12.3876817 L11.7897714,23.0099506 C11.7897714,23.498575 12.1962786,23.8951673 12.6971186,23.8951673 L16.3264221,23.8951673 C16.8272621,23.8951673 17.2337693,23.498575 17.2337693,23.0099506 L17.2337693,12.3876817 C17.2337693,11.8990573 16.8272621,11.502465 16.3264221,11.502465 Z" id="Path"></path>
                        <path d="M9.06790005,16.8135994 L5.43859649,16.8135994 C4.93775651,16.8135994 4.53124934,17.2101918 4.53124934,17.6988161 L4.53124934,23.0099506 C4.53124934,23.498575 4.93775651,23.8951673 5.43859649,23.8951673 L9.06790005,23.8951673 C9.56874003,23.8951673 9.97524721,23.498575 9.97524721,23.0099506 L9.97524721,17.6988161 C9.97516215,17.2101918 9.56874003,16.8135994 9.06790005,16.8135994 Z" id="Path"></path>
                        <path d="M23.5849442,6.19133051 L19.9556406,6.19133051 C19.4548006,6.19133051 19.0482935,6.58792287 19.0482935,7.07654724 L19.0482935,23.0099506 C19.0482935,23.498575 19.4548006,23.8951673 19.9556406,23.8951673 L23.5849442,23.8951673 C24.0857842,23.8951673 24.4922913,23.498575 24.4922913,23.0099506 L24.4922913,7.07654724 C24.4922913,6.58792287 24.0857842,6.19133051 23.5849442,6.19133051 Z" id="Path"></path>
                    </g>
                </g>
            </g>
        </g>
    </g>
</svg>