<?xml version="1.0" encoding="UTF-8"?>
<svg width="40px" height="40px" viewBox="0 0 40 40" version="1.1" xmlns="http://www.w3.org/2000/svg" xmlns:xlink="http://www.w3.org/1999/xlink">
    <!-- Generator: Sketch 53.2 (72643) - https://sketchapp.com -->
    <title>Group 10</title>
    <desc>Created with Sketch.</desc>
    <g id="Working-Vers-of-Verticle-Slice" stroke="none" stroke-width="1" fill="none" fill-rule="evenodd">
        <g id="L2---Bucketed-Landing-Template---Features-v2.1" transform="translate(-466.000000, -2889.000000)">
            <g id="Group-10" transform="translate(466.000000, 2889.000000)">
                <g id="Group-8">
                    <g id="web-startup">
                        <path d="M3.6374249,2.05128205 L30.5937625,2.05128205 C31.7105054,2.05128205 32.6155937,2.96806662 32.6155937,4.09924103 L32.6155937,25.9428865 C32.6155937,27.074061 31.7105054,27.9908455 30.5937625,27.9908455 L3.6374249,27.9908455 C2.52068201,27.9908455 1.61559371,27.074061 1.61559371,25.9428865 L1.61559371,4.09924103 C1.61559371,2.96806662 2.52068201,2.05128205 3.6374249,2.05128205 Z" id="Path" fill="#7ED321"></path>
                        <path d="M36.6188336,3.07692308 L30.6288148,3.07692308 L8,25.2603229 L38.6153324,25.2603229 L38.6153324,5.03437985 C38.6155936,3.95319361 37.7217287,3.07692308 36.6188336,3.07692308 Z" id="Path" fill="#417505"></path>
                        <polygon id="Path" fill="#DADDDF" points="25.2956468 37.9382128 23.3760515 31.7948718 16.2659844 31.7948718 14.3461101 37.9382128 12 37.9382128 12 39.3036082 27.642036 39.3036082 27.642036 37.9382128"></polygon>
                        <polygon id="Path" fill="#C1C7C9" points="24.8535221 34.8682039 24.1021407 32.8205128 15.7517093 32.8205128 15 34.8682039"></polygon>
                        <path d="M1,25.6410256 L1,28.7142907 C1,30.4120071 1.89386495,31.7879577 2.99676,31.7879577 L37.6053512,31.7879577 C38.7082462,31.7879577 39.6021112,30.4120071 39.6021112,28.7142907 L39.6021112,25.6410256 L1,25.6410256 Z" id="Path" fill="#DADDDF"></path>
                        <path d="M36.6550345,0.967073386 L3.2742069,0.967073386 C1.48689655,0.967073386 0.0328275862,2.45842617 0.0328275862,4.29156499 L0.0328275862,29.9289125 C0.0328275862,31.7620513 1.48689655,33.2534041 3.2742069,33.2534041 L14.3408276,33.2534041 L12.9198621,37.6282935 L11.5662069,37.6282935 C10.9947586,37.6282935 11.0001571,38.1032007 11.0001571,38.6893015 C11.0001571,39.2754023 10.9947586,39.7503095 11.5662069,39.7503095 L13.6623448,39.7503095 C13.6667586,39.7505924 13.668,39.7503095 13.6691034,39.7503095 L26.2598621,39.7503095 L28.3628966,39.7503095 C28.9343448,39.7503095 28.8912195,39.2754023 28.8912195,38.6893015 C28.8912195,38.1032007 28.9343448,37.6282935 28.3628966,37.6282935 L27.0089655,37.6282935 L25.5881379,33.2534041 L36.6547586,33.2534041 C38.442069,33.2534041 39.8961379,31.7620513 39.8961379,29.9289125 L39.8961379,4.29156499 C39.8964138,2.45842617 38.4423448,0.967073386 36.6550345,0.967073386 Z M36.6550345,3.0890893 C37.3013793,3.0890893 37.8274483,3.62850575 37.8274483,4.29156499 L37.8274483,24.2107869 L2,24.2107869 L2,3.0890893 L36.6550345,3.0890893 Z M24.8285517,37.6282935 L15.1005517,37.6282935 L16.5215172,33.2534041 L23.4078621,33.2534041 L24.8285517,37.6282935 Z M36.6550345,31.1313882 L3.2742069,31.1313882 C2.62772414,31.1313882 2.1017931,30.5918302 2.1017931,29.9289125 L2.1017931,26.3328028 L37.8275862,26.3328028 L37.8275862,29.9289125 C37.8274483,30.5919717 37.3015172,31.1313882 36.6550345,31.1313882 Z" id="Shape" fill="#000000" fill-rule="nonzero"></path>
                    </g>
                </g>
                <g id="Group-7" transform="translate(10.000000, 5.000000)" fill="#000000" fill-rule="nonzero">
                    <g id="webservicesPNG" transform="translate(0.000000, 0.000000)">
                        <g id="Group" transform="translate(10.000000, 8.845238) scale(-1, 1) rotate(-180.000000) translate(-10.000000, -8.845238) translate(0.000000, 0.071429)">
                            <path d="M6.66666667,17.4047619 C5.42857143,17 4.54761905,16.4047619 3.71428571,15.4285714 C3.21428571,14.8571429 2.95238095,14.3809524 3.0952381,14.3333333 C3.23809524,14.2857143 3.92857143,14.5238095 4.61904762,14.8571429 C6,15.547619 6.45238095,15.5952381 7.16666667,15.2142857 C8.28571429,14.6190476 8.19047619,13 7,12.2380952 C6.47619048,11.8809524 6.26190476,11.8571429 5.64285714,12.0952381 C5.07142857,12.3095238 4.78571429,12.2857143 4.14285714,12 C2.80952381,11.3571429 2.5,10.8571429 2.80952381,9.80952381 C3.11904762,8.78571429 4.4047619,7.33333333 5.52380952,6.76190476 C6.52380952,6.23809524 8.57142857,6.07142857 9.64285714,6.42857143 L10.5238095,6.71428571 L12.1190476,5.14285714 C13.5,3.78571429 13.8095238,3.57142857 14.5714286,3.57142857 C15.4047619,3.57142857 15.452381,3.52380952 15.5238095,2.69047619 C15.5952381,1.83333333 15.6428571,1.78571429 16.5,1.71428571 C17.3333333,1.64285714 17.3809524,1.5952381 17.3809524,0.80952381 L17.3809524,0 L18.6904762,0 L20,0 L20,1.23809524 L20,2.5 L16.6428571,5.85714286 L13.2619048,9.23809524 L13.5714286,10.4761905 C14.2142857,13.1190476 13.0238095,15.7142857 10.6190476,16.952381 C9.5952381,17.4761905 7.57142857,17.7142857 6.66666667,17.4047619 Z" id="Path"></path>
                            <path d="M5.5952381,14.5238095 C5.52380952,14.4047619 5.23809524,14.2857143 4.97619048,14.2857143 C4.21428571,14.2857143 2.26190476,13.1666667 1.54761905,12.3333333 C0.452380952,11.047619 0,9.80952381 0,8.0952381 C0,4.45238095 2.64285714,1.83333333 6.28571429,1.85714286 C8,1.85714286 9.19047619,2.33333333 10.4761905,3.47619048 C11.547619,4.45238095 11.6190476,4.73809524 10.9761905,5.33333333 C10.5238095,5.73809524 10.5,5.73809524 10.0952381,5.11904762 C9.88095238,4.78571429 9.19047619,4.21428571 8.5952381,3.85714286 C5.38095238,1.97619048 1.38095238,4.28571429 1.33333333,8.07142857 C1.30952381,10.6428571 3.0952381,12.6190476 5.71428571,12.8571429 C6.85714286,12.952381 7.02380952,13.047619 7.0952381,13.5238095 C7.14285714,13.8333333 7.04761905,14.2380952 6.9047619,14.4285714 C6.57142857,14.8095238 5.80952381,14.8809524 5.5952381,14.5238095 Z" id="Path"></path>
                        </g>
                    </g>
                </g>
            </g>
        </g>
    </g>
</svg>