<?xml version="1.0" encoding="UTF-8"?>
<svg width="40px" height="40px" viewBox="0 0 40 40" version="1.1" xmlns="http://www.w3.org/2000/svg" xmlns:xlink="http://www.w3.org/1999/xlink">
    <!-- Generator: Sketch 53.2 (72643) - https://sketchapp.com -->
    <title>Group 9</title>
    <desc>Created with Sketch.</desc>
    <g id="Working-Vers-of-Verticle-Slice" stroke="none" stroke-width="1" fill="none" fill-rule="evenodd">
        <g id="L2---Bucketed-Landing-Template---Features-v2.1" transform="translate(-465.000000, -708.000000)">
            <g id="Group-9" transform="translate(465.000000, 708.000000)">
                <g id="web-startup">
                    <path d="M3.6374249,2.05128205 L30.5937625,2.05128205 C31.7105054,2.05128205 32.6155937,2.96806662 32.6155937,4.09924103 L32.6155937,25.9428865 C32.6155937,27.074061 31.7105054,27.9908455 30.5937625,27.9908455 L3.6374249,27.9908455 C2.52068201,27.9908455 1.61559371,27.074061 1.61559371,25.9428865 L1.61559371,4.09924103 C1.61559371,2.96806662 2.52068201,2.05128205 3.6374249,2.05128205 Z" id="Path" fill="#7ED321"></path>
                    <path d="M36.6188336,3.07692308 L30.6288148,3.07692308 L8,25.2603229 L38.6153324,25.2603229 L38.6153324,5.03437985 C38.6155936,3.95319361 37.7217287,3.07692308 36.6188336,3.07692308 Z" id="Path" fill="#417505"></path>
                    <polygon id="Path" fill="#DADDDF" points="25.2956468 37.9382128 23.3760515 31.7948718 16.2659844 31.7948718 14.3461101 37.9382128 12 37.9382128 12 39.3036082 27.642036 39.3036082 27.642036 37.9382128"></polygon>
                    <polygon id="Path" fill="#C1C7C9" points="24.8535221 34.8682039 24.1021407 32.8205128 15.7517093 32.8205128 15 34.8682039"></polygon>
                    <path d="M1,25.6410256 L1,28.7142907 C1,30.4120071 1.89386495,31.7879577 2.99676,31.7879577 L37.6053512,31.7879577 C38.7082462,31.7879577 39.6021112,30.4120071 39.6021112,28.7142907 L39.6021112,25.6410256 L1,25.6410256 Z" id="Path" fill="#DADDDF"></path>
                    <path d="M36.6550345,0.967073386 L3.2742069,0.967073386 C1.48689655,0.967073386 0.0328275862,2.45842617 0.0328275862,4.29156499 L0.0328275862,29.9289125 C0.0328275862,31.7620513 1.48689655,33.2534041 3.2742069,33.2534041 L14.3408276,33.2534041 L12.9198621,37.6282935 L11.5662069,37.6282935 C10.9947586,37.6282935 11.0001571,38.1032007 11.0001571,38.6893015 C11.0001571,39.2754023 10.9947586,39.7503095 11.5662069,39.7503095 L13.6623448,39.7503095 C13.6667586,39.7505924 13.668,39.7503095 13.6691034,39.7503095 L26.2598621,39.7503095 L28.3628966,39.7503095 C28.9343448,39.7503095 28.8912195,39.2754023 28.8912195,38.6893015 C28.8912195,38.1032007 28.9343448,37.6282935 28.3628966,37.6282935 L27.0089655,37.6282935 L25.5881379,33.2534041 L36.6547586,33.2534041 C38.442069,33.2534041 39.8961379,31.7620513 39.8961379,29.9289125 L39.8961379,4.29156499 C39.8964138,2.45842617 38.4423448,0.967073386 36.6550345,0.967073386 Z M36.6550345,3.0890893 C37.3013793,3.0890893 37.8274483,3.62850575 37.8274483,4.29156499 L37.8274483,24.2107869 L2,24.2107869 L2,3.0890893 L36.6550345,3.0890893 Z M24.8285517,37.6282935 L15.1005517,37.6282935 L16.5215172,33.2534041 L23.4078621,33.2534041 L24.8285517,37.6282935 Z M36.6550345,31.1313882 L3.2742069,31.1313882 C2.62772414,31.1313882 2.1017931,30.5918302 2.1017931,29.9289125 L2.1017931,26.3328028 L37.8275862,26.3328028 L37.8275862,29.9289125 C37.8274483,30.5919717 37.3015172,31.1313882 36.6550345,31.1313882 Z" id="Shape" fill="#000000" fill-rule="nonzero"></path>
                </g>
                <g id="Group-2" transform="translate(11.000000, 4.000000)" fill="#000000" fill-rule="nonzero">
                    <g id="signinPNG-(1)">
                        <g id="Group" transform="translate(10.147826, 10.000000) scale(-1, 1) rotate(-180.000000) translate(-10.147826, -10.000000) translate(0.104348, 0.000000)">
                            <path d="M5.24347826,19.5526316 C4.04347826,18.9210526 3.52173913,18.3684211 3,17.2368421 C2.11304348,15.2894737 2.50434783,12.8157895 3.91304348,11.4736842 L4.59130435,10.8684211 L3.33913043,10.0789474 C1.82608696,9.13157895 0.547826087,7.28947368 0.156521739,5.47368421 C-0.130434783,4.02631579 0.0260869565,3.57894737 0.834782609,3.73684211 C1.17391304,3.78947368 1.3826087,4.13157895 1.48695652,4.76315789 C1.9826087,7.92105263 5.11304348,10.3157895 8.19130435,9.89473684 C8.79130435,9.81578947 9.65217391,9.55263158 10.0956522,9.31578947 C10.8521739,8.94736842 10.9304348,8.94736842 11.2695652,9.39473684 C11.7652174,10.0526316 11.7391304,10.1315789 10.9304348,10.5 L10.2521739,10.8157895 L11.0347826,11.6578947 C11.4521739,12.1315789 11.9478261,12.8421053 12.1043478,13.2368421 C12.7565217,14.7631579 12.3130435,17.2368421 11.1652174,18.5 C9.91304348,19.9210526 6.91304348,20.4473684 5.24347826,19.5526316 Z M9.31304348,18.0789474 C11.7652174,16.4210526 11.5304348,13 8.86956522,11.7105263 C7.14782609,10.8947368 5.19130435,11.6315789 4.27826087,13.4473684 C3.67826087,14.6315789 3.67826087,15.7105263 4.33043478,16.7894737 C5.45217391,18.6315789 7.66956522,19.2105263 9.31304348,18.0789474 Z M16.5427139,8.05325487 C16.988028,7.75351698 16.9453915,7.13501022 16.4621783,6.90188074 C16.1495109,6.75439067 15.7942071,6.88760751 15.6283986,7.21589187 C15.5194388,7.42999036 15.5194388,7.62505788 15.6378734,7.8201254 C15.8415809,8.1531675 16.2442586,8.25783787 16.5427139,8.05325487 Z" id="Shape"></path>
                            <path d="M14.3217391,10.8947368 C13.2,10.3421053 12.4173913,9.02631579 12.4173913,7.73684211 C12.4173913,6.78947368 12.2347826,6.5 10.4608696,4.73684211 C8.53043478,2.78947368 8.50434783,2.76315789 8.50434783,1.39473684 L8.50434783,0 L10.4608696,0 C12.3652174,0 12.4173913,0.0263157895 12.4173913,0.657894737 C12.4173913,1.18421053 12.5478261,1.31578947 13.0695652,1.31578947 C13.5913043,1.31578947 13.7217391,1.44736842 13.7217391,1.97368421 C13.7217391,2.5 13.8521739,2.63157895 14.373913,2.63157895 C14.8695652,2.63157895 15.026087,2.76315789 15.026087,3.23684211 C15.026087,3.73684211 15.1565217,3.81578947 16.226087,3.84210526 C19.0434783,3.89473684 20.7130435,7.02631579 19.2782609,9.55263158 C18.3652174,11.1578947 16.0695652,11.7631579 14.3217391,10.8947368 Z M17.8434783,9.05263158 C18.6521739,8.10526316 18.6,6.84210526 17.7130435,5.92105263 C17.0608696,5.26315789 16.8521739,5.21052632 15.626087,5.34210526 C14.5565217,5.44736842 14.1913043,5.39473684 13.8782609,5.02631579 C13.6434783,4.76315789 13.4608696,4.42105263 13.4608696,4.26315789 C13.4608696,4.07894737 13.226087,3.94736842 12.9391304,3.94736842 C12.5478261,3.94736842 12.4173913,3.76315789 12.4173913,3.28947368 C12.4173913,2.76315789 12.2869565,2.63157895 11.7652174,2.63157895 C11.2434783,2.63157895 11.1130435,2.5 11.1130435,1.97368421 C11.1130435,1.5 10.9826087,1.31578947 10.5913043,1.31578947 C9.6,1.31578947 10.0695652,2.23684211 12.026087,4.21052632 C13.9043478,6.07894737 13.9565217,6.21052632 13.826087,7.13157895 C13.4347826,9.5 16.2782609,10.8684211 17.8434783,9.05263158 Z" id="Shape"></path>
                        </g>
                    </g>
                </g>
            </g>
        </g>
    </g>
</svg>