<?xml version="1.0" encoding="UTF-8"?>
<svg width="40px" height="40px" viewBox="0 0 40 40" version="1.1" xmlns="http://www.w3.org/2000/svg" xmlns:xlink="http://www.w3.org/1999/xlink">
    <!-- Generator: Sketch 53.2 (72643) - https://sketchapp.com -->
    <title>Group 8</title>
    <desc>Created with Sketch.</desc>
    <g id="Working-Vers-of-Verticle-Slice" stroke="none" stroke-width="1" fill="none" fill-rule="evenodd">
        <g id="L2---Bucketed-Landing-Template---Features-v2.1" transform="translate(-161.000000, -2160.000000)">
            <g id="Group-8" transform="translate(161.000000, 2160.000000)">
                <g id="web-startup">
                    <path d="M3.6374249,2.05128205 L30.5937625,2.05128205 C31.7105054,2.05128205 32.6155937,2.96806662 32.6155937,4.09924103 L32.6155937,25.9428865 C32.6155937,27.074061 31.7105054,27.9908455 30.5937625,27.9908455 L3.6374249,27.9908455 C2.52068201,27.9908455 1.61559371,27.074061 1.61559371,25.9428865 L1.61559371,4.09924103 C1.61559371,2.96806662 2.52068201,2.05128205 3.6374249,2.05128205 Z" id="Path" fill="#7ED321"></path>
                    <path d="M36.6188336,3.07692308 L30.6288148,3.07692308 L8,25.2603229 L38.6153324,25.2603229 L38.6153324,5.03437985 C38.6155936,3.95319361 37.7217287,3.07692308 36.6188336,3.07692308 Z" id="Path" fill="#417505"></path>
                    <polygon id="Path" fill="#DADDDF" points="25.2956468 37.9382128 23.3760515 31.7948718 16.2659844 31.7948718 14.3461101 37.9382128 12 37.9382128 12 39.3036082 27.642036 39.3036082 27.642036 37.9382128"></polygon>
                    <polygon id="Path" fill="#C1C7C9" points="24.8535221 34.8682039 24.1021407 32.8205128 15.7517093 32.8205128 15 34.8682039"></polygon>
                    <path d="M1,25.6410256 L1,28.7142907 C1,30.4120071 1.89386495,31.7879577 2.99676,31.7879577 L37.6053512,31.7879577 C38.7082462,31.7879577 39.6021112,30.4120071 39.6021112,28.7142907 L39.6021112,25.6410256 L1,25.6410256 Z" id="Path" fill="#DADDDF"></path>
                    <path d="M36.6550345,0.967073386 L3.2742069,0.967073386 C1.48689655,0.967073386 0.0328275862,2.45842617 0.0328275862,4.29156499 L0.0328275862,29.9289125 C0.0328275862,31.7620513 1.48689655,33.2534041 3.2742069,33.2534041 L14.3408276,33.2534041 L12.9198621,37.6282935 L11.5662069,37.6282935 C10.9947586,37.6282935 11.0001571,38.1032007 11.0001571,38.6893015 C11.0001571,39.2754023 10.9947586,39.7503095 11.5662069,39.7503095 L13.6623448,39.7503095 C13.6667586,39.7505924 13.668,39.7503095 13.6691034,39.7503095 L26.2598621,39.7503095 L28.3628966,39.7503095 C28.9343448,39.7503095 28.8912195,39.2754023 28.8912195,38.6893015 C28.8912195,38.1032007 28.9343448,37.6282935 28.3628966,37.6282935 L27.0089655,37.6282935 L25.5881379,33.2534041 L36.6547586,33.2534041 C38.442069,33.2534041 39.8961379,31.7620513 39.8961379,29.9289125 L39.8961379,4.29156499 C39.8964138,2.45842617 38.4423448,0.967073386 36.6550345,0.967073386 Z M36.6550345,3.0890893 C37.3013793,3.0890893 37.8274483,3.62850575 37.8274483,4.29156499 L37.8274483,24.2107869 L2,24.2107869 L2,3.0890893 L36.6550345,3.0890893 Z M24.8285517,37.6282935 L15.1005517,37.6282935 L16.5215172,33.2534041 L23.4078621,33.2534041 L24.8285517,37.6282935 Z M36.6550345,31.1313882 L3.2742069,31.1313882 C2.62772414,31.1313882 2.1017931,30.5918302 2.1017931,29.9289125 L2.1017931,26.3328028 L37.8275862,26.3328028 L37.8275862,29.9289125 C37.8274483,30.5919717 37.3015172,31.1313882 36.6550345,31.1313882 Z" id="Shape" fill="#000000" fill-rule="nonzero"></path>
                </g>
                <g id="Group-6" transform="translate(10.000000, 2.051282)" fill="#000000" fill-rule="nonzero">
                    <g id="multiplayerPNG" transform="translate(0.000000, 0.000000)">
                        <g id="Group" transform="translate(9.500000, 11.135531) scale(-1, 1) rotate(-180.000000) translate(-9.500000, -11.135531) translate(0.000000, 0.366300)">
                            <path d="M11.4452381,20.3455433 C9.5,19.2087912 8.88928571,16.1465201 10.2464286,14.3137973 L10.8571429,13.4786325 L9.77142857,12.3650794 L8.66309524,11.2283272 L7.91666667,11.8083028 C6.85357143,12.6666667 4.54642857,12.7594628 3.30238095,12.017094 C1.33452381,10.8339438 0.746428571,7.77167277 2.12619048,5.91575092 L2.75952381,5.05738706 L1.92261905,4.33821734 C0.995238095,3.57264957 0,1.64713065 0,0.64957265 C0,0.0927960928 0.0904761905,0 0.655952381,0 C1.22142857,0 1.33452381,0.115995116 1.4702381,0.742368742 C1.8547619,2.5982906 3.66428571,4.17582418 5.42857143,4.17582418 C7.19285714,4.17582418 9.00238095,2.5982906 9.38690476,0.765567766 C9.52261905,0.115995116 9.63571429,0 10.2011905,0 C10.7666667,0 10.8571429,0.0927960928 10.8571429,0.64957265 C10.8571429,1.64713065 9.86190476,3.57264957 8.93452381,4.33821734 L8.09761905,5.05738706 L8.68571429,5.86935287 C9.11547619,6.44932845 9.36428571,7.16849817 9.52261905,8.28205128 C9.65833333,9.25641026 9.95238095,10.1843712 10.2916667,10.6947497 C10.902381,11.6691087 12.4630952,12.5274725 13.5714286,12.5274725 C15.3357143,12.5274725 17.1452381,10.9499389 17.5297619,9.11721612 C17.6654762,8.46764347 17.7785714,8.35164835 18.3440476,8.35164835 C18.9095238,8.35164835 19,8.44444444 19,9.001221 C19,9.998779 18.0047619,11.9242979 17.077381,12.6898657 L16.2404762,13.4090354 L16.8738095,14.2673993 C17.7785714,15.4969475 17.8916667,17.3528694 17.1452381,18.7912088 C16.4214286,20.1831502 15.222619,20.8791209 13.5714286,20.8791209 C12.6892857,20.8791209 12.0559524,20.7167277 11.4452381,20.3455433 Z M14.725,19.1391941 C15.4714286,18.7448107 16.2857143,17.5384615 16.2857143,16.8656899 C16.2857143,15.4969475 14.9285714,14.1514042 13.5714286,14.1514042 C12.2369048,14.1514042 10.8571429,15.4969475 10.8571429,16.8192918 C10.8571429,17.4920635 11.5357143,18.5824176 12.2821429,19.023199 C13.1642857,19.5799756 13.8202381,19.6031746 14.725,19.1391941 Z M6.58214286,10.7875458 C7.32857143,10.3931624 8.14285714,9.18681319 8.14285714,8.51404151 C8.14285714,7.14529915 6.78571429,5.7997558 5.42857143,5.7997558 C4.09404762,5.7997558 2.71428571,7.14529915 2.71428571,8.46764347 C2.71428571,9.14041514 3.39285714,10.2307692 4.13928571,10.6715507 C5.02142857,11.2283272 5.67738095,11.2515263 6.58214286,10.7875458 Z" id="Shape"></path>
                        </g>
                    </g>
                </g>
            </g>
        </g>
    </g>
</svg>