<?xml version="1.0" encoding="UTF-8"?>
<svg width="40px" height="40px" viewBox="0 0 40 40" version="1.1" xmlns="http://www.w3.org/2000/svg" xmlns:xlink="http://www.w3.org/1999/xlink">
    <!-- Generator: Sketch 53.2 (72643) - https://sketchapp.com -->
    <title>web-startup</title>
    <desc>Created with Sketch.</desc>
    <g id="Working-Vers-of-Verticle-Slice" stroke="none" stroke-width="1" fill="none" fill-rule="evenodd">
        <g id="L2---Bucketed-Landing-Template---Features-v2.1" transform="translate(-465.000000, -908.000000)">
            <g id="web-startup" transform="translate(465.000000, 908.000000)">
                <path d="M3.6374249,2.05128205 L30.5937625,2.05128205 C31.7105054,2.05128205 32.6155937,2.96806662 32.6155937,4.09924103 L32.6155937,25.9428865 C32.6155937,27.074061 31.7105054,27.9908455 30.5937625,27.9908455 L3.6374249,27.9908455 C2.52068201,27.9908455 1.61559371,27.074061 1.61559371,25.9428865 L1.61559371,4.09924103 C1.61559371,2.96806662 2.52068201,2.05128205 3.6374249,2.05128205 Z" id="Path" fill="#7ED321"></path>
                <path d="M36.6188336,3.07692308 L30.6288148,3.07692308 L8,25.2603229 L38.6153324,25.2603229 L38.6153324,5.03437985 C38.6155936,3.95319361 37.7217287,3.07692308 36.6188336,3.07692308 Z" id="Path" fill="#417505"></path>
                <polygon id="Path" fill="#DADDDF" points="25.2956468 37.9382128 23.3760515 31.7948718 16.2659844 31.7948718 14.3461101 37.9382128 12 37.9382128 12 39.3036082 27.642036 39.3036082 27.642036 37.9382128"></polygon>
                <polygon id="Path" fill="#C1C7C9" points="24.8535221 34.8682039 24.1021407 32.8205128 15.7517093 32.8205128 15 34.8682039"></polygon>
                <path d="M1,25.6410256 L1,28.7142907 C1,30.4120071 1.89386495,31.7879577 2.99676,31.7879577 L37.6053512,31.7879577 C38.7082462,31.7879577 39.6021112,30.4120071 39.6021112,28.7142907 L39.6021112,25.6410256 L1,25.6410256 Z" id="Path" fill="#DADDDF"></path>
                <path d="M36.6550345,0.967073386 L3.2742069,0.967073386 C1.48689655,0.967073386 0.0328275862,2.45842617 0.0328275862,4.29156499 L0.0328275862,29.9289125 C0.0328275862,31.7620513 1.48689655,33.2534041 3.2742069,33.2534041 L14.3408276,33.2534041 L12.9198621,37.6282935 L11.5662069,37.6282935 C10.9947586,37.6282935 11.0001571,38.1032007 11.0001571,38.6893015 C11.0001571,39.2754023 10.9947586,39.7503095 11.5662069,39.7503095 L13.6623448,39.7503095 C13.6667586,39.7505924 13.668,39.7503095 13.6691034,39.7503095 L26.2598621,39.7503095 L28.3628966,39.7503095 C28.9343448,39.7503095 28.8912195,39.2754023 28.8912195,38.6893015 C28.8912195,38.1032007 28.9343448,37.6282935 28.3628966,37.6282935 L27.0089655,37.6282935 L25.5881379,33.2534041 L36.6547586,33.2534041 C38.442069,33.2534041 39.8961379,31.7620513 39.8961379,29.9289125 L39.8961379,4.29156499 C39.8964138,2.45842617 38.4423448,0.967073386 36.6550345,0.967073386 Z M36.6550345,3.0890893 C37.3013793,3.0890893 37.8274483,3.62850575 37.8274483,4.29156499 L37.8274483,24.2107869 L2,24.2107869 L2,3.0890893 L36.6550345,3.0890893 Z M24.8285517,37.6282935 L15.1005517,37.6282935 L16.5215172,33.2534041 L23.4078621,33.2534041 L24.8285517,37.6282935 Z M36.6550345,31.1313882 L3.2742069,31.1313882 C2.62772414,31.1313882 2.1017931,30.5918302 2.1017931,29.9289125 L2.1017931,26.3328028 L37.8275862,26.3328028 L37.8275862,29.9289125 C37.8274483,30.5919717 37.3015172,31.1313882 36.6550345,31.1313882 Z" id="Shape" fill="#000000" fill-rule="nonzero"></path>
                <g id="Group-3" transform="translate(10.000000, 3.076923)" fill="#000000" fill-rule="nonzero">
                    <g id="presencePNG">
                        <g id="Group" transform="translate(10.432258, 11.073500) scale(-1, 1) rotate(-180.000000) translate(-10.432258, -11.073500) translate(0.294327, 0.675622)">
                            <path d="M5.42869855,20.2590913 C4.08787542,19.6553435 2.71434928,17.9447249 2.48542825,16.5695217 C2.19110122,15.0601523 2.81245829,12.9470352 3.82625139,11.8737058 C4.31679644,11.4041242 4.54571746,11.0016257 4.31679644,11.0016257 C3.69543938,11.0016257 1.30812013,8.58663472 0.654060067,7.27851459 C-0.163515017,5.60143749 -0.19621802,3.95790194 0.621357063,3.95790194 C1.04649611,3.95790194 1.30812013,4.39394199 1.60244716,5.53435441 C2.42002225,8.58663472 5.72302558,10.6997519 8.63359288,10.028921 C10.039822,9.6935056 11.1190211,9.02267477 12.2636263,7.78163772 C13.0157953,6.94309917 14.0949944,6.84247454 14.0949944,7.61393001 C14.0949944,8.18413622 12.4271413,9.99537948 11.4133482,10.5320442 L10.4322581,11.0687088 L11.0863181,11.7730812 C12.1001112,12.9470352 12.4598443,13.8861983 12.4598443,15.4291093 C12.4598443,17.4751433 11.5441602,19.0851373 9.843604,19.990759 C8.20845384,20.8292975 6.8676307,20.8963806 5.42869855,20.2590913 Z M8.69899889,18.9174296 C9.94171301,18.380765 11.1517241,16.6366048 11.1517241,15.4291093 C11.1517241,13.7184906 9.18954394,11.6724566 7.55439377,11.6724566 C6.60600667,11.6724566 5.06896552,12.5445367 4.48031146,13.4166168 C4.18598443,13.8191153 3.9570634,14.79182 3.9570634,15.5632754 C3.9570634,16.7036879 4.15328142,17.206811 4.9381535,18.011808 C5.49410456,18.5484727 6.24627364,19.0851373 6.67141268,19.1522204 C7.06384872,19.2193035 7.42358176,19.3199281 7.48898776,19.3534697 C7.52169077,19.3534697 8.07764182,19.185762 8.69899889,18.9174296 Z" id="Shape"></path>
                            <path d="M15.7301446,6.27226833 C14.0295884,5.60143749 13.2447164,3.25352956 14.0949944,1.57645247 C14.6509455,0.570206212 16.3187987,-0.167707709 17.5615128,0.0670830838 C20.5374861,0.670830838 20.8318131,5.23248053 17.9539488,6.27226833 C16.7766407,6.70830838 16.8093437,6.70830838 15.7301446,6.27226833 Z" id="Path"></path>
                        </g>
                    </g>
                </g>
            </g>
        </g>
    </g>
</svg>