<?xml version="1.0" encoding="utf-8"?>
<!-- Generator: Adobe Illustrator 24.0.0, SVG Export Plug-In . SVG Version: 6.00 Build 0)  -->
<svg version="1.1" id="Layer_1" xmlns="http://www.w3.org/2000/svg" xmlns:xlink="http://www.w3.org/1999/xlink" x="0px" y="0px"
	 viewBox="0 0 160 160" style="enable-background:new 0 0 160 160;" xml:space="preserve">
<style type="text/css">
	.st0{fill:#333333;}
	.st1{fill:#137E13;}
</style>
<g id="Layer_5">
	<path class="st0" d="M129.9,75.9c-0.8-2.9-2-5.7-3.7-8.4s-3.7-5.1-5.9-7.2c-2.2-2-4.9-3.9-7.8-5.3c3.3-2.5,5.7-5.5,7.6-9
		c1.8-3.7,2.7-7.4,2.7-11.4c0-3.5-0.8-6.7-2-9.8s-3.1-5.7-5.3-8c-2.2-2.5-4.9-4.1-8-5.5s-6.3-2-9.8-2s-6.7,0.6-9.8,2s-5.7,3.3-8,5.5
		c-2.2,2.2-4.1,4.9-5.3,8c-1.4,3.1-2,6.3-2,9.8c0,4.1,0.8,8,2.7,11.4c1.8,3.7,4.3,6.5,7.6,9c-3.3,1.6-6.1,3.7-8.8,6.3
		c-2.7,2.5-4.7,5.5-6.3,8.8c-2.2-3.3-5.3-5.7-8.8-7.6c-3.7-1.8-7.4-2.7-11.4-2.7c-3.5,0-6.7,0.6-9.8,2s-5.7,3.3-8,5.5
		c-2.2,2.2-4.1,4.9-5.3,8c-1.4,3.1-2,6.3-2,9.8c0,4.1,0.8,8,2.7,11.4c1.8,3.7,4.3,6.5,7.6,9c-2.9,1.4-5.5,3.3-7.8,5.3
		c-2.2,2.2-4.3,4.5-5.9,7.2s-2.9,5.3-3.7,8.4c-0.8,3.1-1.2,6.1-1.2,9.4h8.6c0-3.5,0.8-6.7,2-9.8c1.2-3.1,3.1-5.7,5.3-8
		c2.2-2.5,4.9-4.1,8-5.5s6.3-2,9.8-2c3.1,0,5.9,0.6,8.8,1.6s5.3,2.5,7.6,4.3c2.2,2,4.1,4.1,5.5,6.7c1.4,2.7,2.5,5.5,2.9,8.6v-18.4
		c-2.9-3.1-6.1-5.7-10-7.6c3.3-2.5,5.7-5.3,7.6-9C72.1,93,73,89.3,73,85.3v-0.6c0.2-3.3,0.8-6.5,2.2-9.6c1.4-3.1,3.1-5.7,5.3-8
		c2.2-2.2,4.7-4.1,7.8-5.3s6.3-1.8,9.8-1.8s6.7,0.6,9.8,1.8c3.1,1.4,5.7,3.3,8,5.5c2.2,2.2,4.1,4.9,5.3,8c1.4,3.1,2,6.3,2,9.8h8.4
		C131.1,82,130.7,78.9,129.9,75.9z M47.3,102c-9.3,0-16.8-7.5-16.8-16.8S38,68.4,47.3,68.4S64.1,76,64.1,85.3S56.6,102,47.3,102z
		 M97.6,51.7c-9.3,0-16.8-7.5-16.8-16.8s7.5-16.8,16.8-16.8s16.8,7.5,16.8,16.8S106.9,51.7,97.6,51.7z"/>
	<path class="st1" d="M143.5,118l-6.3-17c0,0-0.8-2.2-2.2-2.9v-2c0,0-3.3-1.5-6.1-2.3s-3.9-0.3-5.4-0.3s-4.1,1.9-4.9,1.9
		c-0.6,0-11.1,0-11.7,0c-0.9,0-3.4-1.9-4.9-1.9s-2.6-0.4-5.4,0.3s-6.1,2.3-6.1,2.3v2c-1.4,0.6-2.2,2.9-2.2,2.9L82,118
		c0,0-3.3,8.8-1.5,13.3s4.9,5.5,6.9,5.5c2-0.1,3.3-1.5,3.3-1.5s5.3-5.3,8.2-8.2c2.8-2.8,5.3-2.4,5.3-2.4h17.1c0,0,2.5-0.4,5.3,2.4
		s8.2,8.2,8.2,8.2s1.3,1.4,3.3,1.5s5.1-1,6.9-5.5C146.7,126.8,143.5,118,143.5,118z M112.3,109.6c-2.4,0-4.3-1.9-4.3-4.3
		s1.9-4.3,4.3-4.3s4.3,1.9,4.3,4.3S114.7,109.6,112.3,109.6z"/>
</g>
</svg>
