<?xml version="1.0" encoding="utf-8"?>
<!-- Generator: Adobe Illustrator 24.0.0, SVG Export Plug-In . SVG Version: 6.00 Build 0)  -->
<svg version="1.1" id="Layer_1" xmlns="http://www.w3.org/2000/svg" xmlns:xlink="http://www.w3.org/1999/xlink" x="0px" y="0px"
	 viewBox="0 0 160 160" style="enable-background:new 0 0 160 160;" xml:space="preserve">
<style type="text/css">
	.st0{fill:#333333;}
	.st1{fill:#137E13;}
</style>
<g id="Layer_4">
	<g>
		<g>
			<path class="st0" d="M140.3,75.4c-1.4-3.1-3.1-5.7-5.5-8c-2.2-2.2-4.9-4.1-8.2-5.3c-3.1-1.2-6.3-2-10-2c-0.6-4.7-2-9.2-4.1-13.3
				c-2.2-4.1-4.9-7.8-8.2-10.6c-3.3-3.1-7.1-5.3-11.4-7.1c-4.3-1.6-9-2.7-13.9-2.7c-3.3,0-6.3,0.4-9.4,1.2c-3.1,0.8-5.9,1.8-8.8,3.5
				c-2.7,1.4-5.3,3.3-7.5,5.5s-4.3,4.7-6.1,7.3c-2-0.4-4.1-0.6-6.1-0.6c-4.7,0-9,0.8-13.1,2.7c-4.1,1.8-7.8,4.1-10.8,7.1
				c-3.1,3.1-5.5,6.5-7.1,10.8C8.4,68,7.5,72.5,7.5,77c0,4.7,0.8,9,2.7,13.1c1.8,4.1,4.1,7.8,7.1,10.8s6.5,5.5,10.8,7.1
				c4.1,1.8,8.6,2.7,13.1,2.7H43c-0.2-1.4-0.2-2.9-0.2-4.3s0-2.9,0.2-4.1h-1.8c-3.5,0-6.7-0.6-9.8-2c-3.1-1.2-5.7-3.1-8-5.5
				c-2.2-2.2-4.1-4.9-5.5-8c-1.2-3.1-2-6.3-2-9.8s0.6-6.7,2-9.8c1.2-3.1,3.1-5.7,5.5-8c2.2-2.2,4.9-4.1,8-5.5c3.1-1.2,6.3-2,9.8-2
				c3.7,0,7.1,0.8,10.4,2.2c1-2.9,2.7-5.5,4.5-8c1.8-2.2,3.9-4.3,6.3-5.9c2.4-1.6,5.1-3.1,8-3.9c2.9-1,5.7-1.4,9-1.4
				c4.1,0,8,0.8,11.4,2.2c3.7,1.6,6.7,3.7,9.4,6.3c2.7,2.7,4.7,5.7,6.3,9.4c1.6,3.7,2.2,7.3,2.2,11.4v4.3h8.4c2.2,0,4.5,0.4,6.5,1.2
				c2,0.8,3.9,2,5.3,3.7c1.6,1.6,2.7,3.3,3.7,5.3c0.8,2,1.2,4.3,1.2,6.5s-0.4,4.5-1.2,6.5s-2,3.9-3.7,5.3c-1.6,1.6-3.3,2.7-5.3,3.7
				c-2,0.8-4.3,1.2-6.5,1.2h-5.3c0.2,1.4,0.2,2.9,0.2,4.1c0,1.4,0,2.9-0.2,4.3h5.3c3.5,0,6.7-0.6,9.8-2c3.1-1.2,5.7-3.1,8-5.5
				c2.2-2.2,4.1-4.9,5.5-8c1.2-3.1,2-6.3,2-9.8C142.4,81.7,141.8,78.4,140.3,75.4z"/>
		</g>
	</g>
	<g>
		<path class="st1" d="M100.6,106.8c0-0.2,0-0.4,0-0.6s0-0.4,0-0.6s0-0.4,0-0.6l8-4.9l-4.9-11.4l-9,2c-0.4-0.6-1-1-1.4-1.4l2-9
			l-11.6-4.9l-4.9,8c-0.2,0-0.4,0-0.6,0s-0.4,0-0.6,0s-0.4,0-0.6,0s-0.4,0-0.6,0l-4.7-8L60,80.3l2,9c-0.6,0.4-1,1-1.4,1.4l-9-2
			l-4.9,11.6l8,4.9c0,0.2,0,0.4,0,0.6s0,0.4,0,0.6s0,0.4,0,0.6s0,0.4,0,0.6l-8,4.9l4.9,11.6l9-2c0.4,0.6,1,1,1.4,1.4l-2,9l11.6,4.9
			l4.9-8c0.2,0,0.4,0,0.6,0s0.4,0,0.6,0s0.4,0,0.6,0s0.4,0,0.6,0l4.9,8l11.6-4.9l-2-9c0.6-0.4,1-1,1.4-1.4l9,2l4.9-11.6l-8-4.9
			C100.6,107.2,100.6,107,100.6,106.8z M77.5,122.1c-8.8,0-15.7-7.1-15.7-15.7s7.1-15.7,15.7-15.7s15.7,7.1,15.7,15.7
			S86.3,122.1,77.5,122.1z"/>
	</g>
</g>
</svg>
