<?xml version="1.0" encoding="utf-8"?>
<!-- Generator: Adobe Illustrator 24.0.0, SVG Export Plug-In . SVG Version: 6.00 Build 0)  -->
<svg version="1.1" id="Layer_1" xmlns="http://www.w3.org/2000/svg" xmlns:xlink="http://www.w3.org/1999/xlink" x="0px" y="0px"
	 viewBox="0 0 160 160" style="enable-background:new 0 0 160 160;" xml:space="preserve">
<style type="text/css">
	.st0{fill:#333333;}
	.st1{fill:#137E13;}
</style>
<g id="Layer_2_1_">
	<g>
		<rect x="91.3" y="104.1" class="st0" width="34.5" height="8.6"/>
		<rect x="91.3" y="58.3" class="st0" width="56.9" height="8.6"/>
		<rect x="113.2" y="35.2" class="st0" width="35.1" height="8.6"/>
		<rect x="91.3" y="35.2" class="st0" width="13.4" height="8.6"/>
		<rect x="91.3" y="81" class="st0" width="56.9" height="8.6"/>
	</g>
	<path class="st1" d="M77.7,103.3c-0.8-3.2-2.1-5.9-3.8-8.6c-1.7-2.7-3.8-5-6.1-7.4c-2.3-2.1-5-4-8-5.5c3.4-2.5,5.9-5.5,7.8-9.2
		s2.7-7.6,2.7-11.8c0-3.6-0.6-6.9-2.1-10.1s-3.2-5.9-5.7-8.2c-2.3-2.3-5-4.2-8.2-5.7s-6.5-2.1-10.1-2.1s-6.9,0.6-10.1,2.1
		c-3.2,1.5-5.9,3.2-8.2,5.7c-2.3,2.3-4.2,5-5.7,8.2s-2.1,6.5-2.1,10.1c0,4.2,0.8,8,2.7,11.8c1.9,3.8,4.4,6.7,7.8,9.2
		c-2.9,1.5-5.7,3.4-8,5.5s-4.4,4.6-6.1,7.4c-1.7,2.7-2.9,5.7-3.8,8.6c-0.8,3.2-1.3,6.3-1.3,9.7H18c0-3.6,0.6-6.9,2.1-10.1
		s3.2-5.9,5.7-8.2c2.3-2.3,5-4.2,8.2-5.7s6.5-2.1,10.1-2.1S51,87.5,54.2,89c3.2,1.5,5.9,3.2,8.2,5.7c2.3,2.3,4.2,5,5.7,8.2
		s2.1,6.5,2.1,10.1h8.6C78.9,109.6,78.5,106.2,77.7,103.3z M44.3,78.5c-9.6,0-17.4-7.8-17.4-17.4s7.8-17.4,17.4-17.4
		s17.4,7.8,17.4,17.4S53.9,78.5,44.3,78.5z"/>
</g>
</svg>
