<?xml version="1.0" encoding="utf-8"?>
<!-- Generator: Adobe Illustrator 24.0.0, SVG Export Plug-In . SVG Version: 6.00 Build 0)  -->
<svg version="1.1" id="Layer_1" xmlns="http://www.w3.org/2000/svg" xmlns:xlink="http://www.w3.org/1999/xlink" x="0px" y="0px"
	 viewBox="0 0 160 160" style="enable-background:new 0 0 160 160;" xml:space="preserve">
<style type="text/css">
	.st0{fill:#137E13;}
	.st1{fill:#333333;}
</style>
<g id="Layer_8">
	<g>
		<path class="st0" d="M117.4,106.4c-2.5-3.7-5.6-6.9-9.1-9.8s-7.5-5.1-11.8-6.8c3.4-2.5,6-5.7,7.8-9.4c1.9-3.7,2.8-7.7,2.8-12
			c0-3.7-0.7-7.2-2.1-10.5s-3.4-6.2-5.8-8.7c-2.5-2.5-5.4-4.4-8.7-5.8s-6.8-2.1-10.5-2.1c-3.8,0-7.3,0.7-10.6,2.1
			c-3.3,1.4-6.2,3.4-8.6,5.8c-2.5,2.5-4.4,5.4-5.8,8.7c-1.4,3.3-2.1,6.8-2.1,10.5c0,4.2,0.9,8.2,2.8,12c1.9,3.7,4.5,6.9,7.8,9.4
			c-4.3,1.7-8.3,4-11.8,6.8c-3.5,2.9-6.5,6.1-9.1,9.8c-2.5,3.7-4.5,7.6-5.8,12c-1.4,4.3-2.1,8.8-2.1,13.5h9.1c0-5,1-9.7,2.9-14.1
			s4.5-8.2,7.8-11.5s7.1-5.9,11.5-7.8s9.1-2.9,14.1-2.9s9.7,1,14.1,2.9s8.2,4.5,11.5,7.8s5.9,7.1,7.8,11.5s2.9,9.1,2.9,14.1h9.1
			c0-4.7-0.7-9.2-2.1-13.5C121.9,114,119.9,110.1,117.4,106.4z M80,86.5c-10,0-18.1-8.1-18.1-18.1S70,50.3,80,50.3
			s18.1,8.1,18.1,18.1S90,86.5,80,86.5z"/>
		<path class="st1" d="M7.5,23.1v90.6h18.9c0.5-1.6,1.1-3.1,1.8-4.6c0.7-1.5,1.4-3,2.2-4.5H16.5V32.2h126.9v72.5h-13.8
			c0.8,1.5,1.5,3,2.2,4.5s1.3,3,1.8,4.6h18.9V23.1H7.5z"/>
	</g>
</g>
</svg>
