<?xml version="1.0" encoding="utf-8"?>
<!-- Generator: Adobe Illustrator 24.0.0, SVG Export Plug-In . SVG Version: 6.00 Build 0)  -->
<svg version="1.1" id="Layer_1" xmlns="http://www.w3.org/2000/svg" xmlns:xlink="http://www.w3.org/1999/xlink" x="0px" y="0px"
	 viewBox="0 0 160 160" style="enable-background:new 0 0 160 160;" xml:space="preserve">
<style type="text/css">
	.st0{fill:#333333;}
	.st1{fill:#137E13;}
</style>
<g id="Layer_10">
	<path class="st0" d="M7.9,25.5h145v108.7H7.9V25.5z M143.8,125.2V34.6H16.9v90.6H143.8z"/>
	<polygon class="st1" points="35,52.7 35,70.8 26,70.8 26,43.6 53.2,43.6 53.2,52.7 	"/>
	<polygon class="st1" points="53.2,107.1 53.2,116.1 26,116.1 26,88.9 35,88.9 35,107.1 	"/>
	<polygon class="st1" points="125.7,70.8 125.7,52.7 107.5,52.7 107.5,43.6 134.7,43.6 134.7,70.8 	"/>
	<polygon class="st1" points="134.7,88.9 134.7,116.1 107.5,116.1 107.5,107.1 125.7,107.1 125.7,88.9 	"/>
</g>
</svg>
