<?xml version="1.0" encoding="UTF-8"?>
<svg width="67px" height="68px" viewBox="0 0 67 68" version="1.1" xmlns="http://www.w3.org/2000/svg" xmlns:xlink="http://www.w3.org/1999/xlink">
    <!-- Generator: Sketch 52.3 (67297) - http://www.bohemiancoding.com/sketch -->
    <title>createtestaccounticon</title>
    <desc>Created with Sketch.</desc>
    <g id="Screen-States-of-Verticle-Slice" stroke="none" stroke-width="1" fill="none" fill-rule="evenodd">
        <g id="L1---Landing---Getting-Started" transform="translate(-788.000000, -661.000000)">
            <g id="createtestaccounticon" transform="translate(789.000000, 662.000000)">
                <path d="M53.75,49 C52.87,47.43 50.45,43.53 47.75,39.22 C43.88,33.15 39.5,26.28 38,24 L38,6 C38,6 40,4 40,2 C40,1 39,0 37,0 L19,0 C17,0 16,1 16,2 C16,4 18,6 18,6 L18,24 C16.5,26.28 12.12,33.15 8.26,39.27 C5.55,43.58 3.13,47.47 2.26,49.05 C0.621861472,51.6500081 0.51853308,54.9328052 1.9899167,57.6306877 C3.46130033,60.3285703 6.27711894,62.0193095 9.35,62.05 L46.66,62.05 C49.7328811,62.0193095 52.5486997,60.3285703 54.0200833,57.6306877 C55.4914669,54.9328052 55.3881385,51.6500081 53.75,49.05 L53.75,49 Z" id="Shape" fill="#FFFFFF" fill-rule="nonzero"></path>
                <path d="M47.61,40 L8.39,40 C5.29,44.93 3.39,48 2.69,49.29 C1.17649617,51.734407 1.09104405,54.8029728 2.46616616,57.3278211 C3.84128827,59.8526693 6.46548343,61.4454648 9.34,61.5 L46.66,61.5 C49.5345166,61.4454648 52.1587117,59.8526693 53.5338338,57.3278211 C54.908956,54.8029728 54.8235038,51.734407 53.31,49.29 C52.58,48 50.71,44.93 47.61,40 Z" id="Shape" fill="#7ED321" fill-rule="nonzero"></path>
                <path d="M53.75,49 C52.87,47.43 50.45,43.53 47.75,39.22 C43.88,33.15 39.5,26.28 38,24 L38,6 C38,6 40,4 40,2 C40,1 39,0 37,0 L19,0 C17,0 16,1 16,2 C16,4 18,6 18,6 L18,24 C16.5,26.28 12.12,33.15 8.26,39.27 C5.55,43.58 3.13,47.47 2.26,49.05 C0.621861472,51.6500081 0.51853308,54.9328052 1.9899167,57.6306877 C3.46130033,60.3285703 6.27711894,62.0193095 9.35,62.05 L46.66,62.05 C49.7328811,62.0193095 52.5486997,60.3285703 54.0200833,57.6306877 C55.4914669,54.9328052 55.3881385,51.6500081 53.75,49.05 L53.75,49 Z" id="Shape" stroke="#556A8A" stroke-width="2"></path>
                <path d="M36,4 L20,4 C19.4477153,4 19,3.55228475 19,3 C19,2.44771525 19.4477153,2 20,2 L36,2 C36.5522847,2 37,2.44771525 37,3 C37,3.55228475 36.5522847,4 36,4 Z" id="Shape" fill="#E5E5E5" fill-rule="nonzero"></path>
                <g id="four" transform="translate(46.000000, 47.000000)" fill-rule="nonzero">
                    <path d="M9.98317907,0.000120724346 C4.46961771,0.000120724346 0,4.46925553 0,9.9832998 C0,15.4963783 4.46961771,19.965996 9.98317907,19.965996 C15.496499,19.965996 19.9661167,15.4963783 19.9661167,9.9832998 C19.9661167,4.46925553 15.496499,0.000120724346 9.98317907,0.000120724346 Z" id="Shape" fill="#000000"></path>
                    <path d="M13.0777867,11.2632596 C12.8950503,11.1807243 12.6523541,11.1394769 12.3497787,11.1394769 L12.0962978,11.1394769 L12.0962978,6.57694165 C12.0962978,5.89315895 11.7975855,5.55126761 11.2002817,5.55126761 C11.0155332,5.55126761 10.8573843,5.61315895 10.7257545,5.73694165 C10.5940443,5.86072435 10.4260362,6.06024145 10.2217706,6.33525151 L7.09754527,10.5146076 C7.0110664,10.6286117 6.93839034,10.7249095 6.87943662,10.8034608 C6.8204829,10.8821328 6.76346076,10.9636217 6.70849095,11.0480885 C6.6534004,11.1326358 6.61215292,11.213159 6.58470825,11.2897787 C6.55714286,11.3663984 6.54346076,11.4421328 6.54346076,11.5167404 C6.54346076,11.8076056 6.63674044,12.037505 6.82346076,12.2064386 C7.01006036,12.3754527 7.29006036,12.4599195 7.66346076,12.4599195 L10.6226157,12.4599195 L10.6226157,13.556338 C10.6226157,13.8510664 10.6904225,14.074165 10.825996,14.2253924 C10.9615694,14.3766197 11.1393561,14.4523541 11.3594769,14.4523541 C11.5834608,14.4523541 11.7622535,14.378672 11.8958954,14.2313078 C12.0294567,14.0839437 12.0962978,13.8590342 12.0962978,13.5563783 L12.0962978,12.4599598 L12.4558954,12.4599598 C12.7544869,12.4599598 12.9785111,12.4079276 13.1278873,12.3037425 C13.2771831,12.1996781 13.3518712,12.0336016 13.3518712,11.8056338 C13.3519115,11.5265996 13.2605231,11.3457948 13.0777867,11.2632596 Z M10.6226559,11.1394769 L8.08792757,11.1394769 L10.6226559,7.71464789 L10.6226559,11.1394769 Z" id="Shape" fill="#FFFFFF"></path>
                </g>
            </g>
        </g>
    </g>
</svg>