<?xml version="1.0" encoding="UTF-8"?>
<svg width="69px" height="56px" viewBox="0 0 69 56" version="1.1" xmlns="http://www.w3.org/2000/svg" xmlns:xlink="http://www.w3.org/1999/xlink">
    <!-- Generator: Sketch 52.5 (67469) - http://www.bohemiancoding.com/sketch -->
    <title>Group 2</title>
    <desc>Created with Sketch.</desc>
    <g id="Symbols" stroke="none" stroke-width="1" fill="none" fill-rule="evenodd">
        <g id="Get-Started-Landing-Page---1/2/3-Steps" transform="translate(0.000000, -85.000000)">
            <g id="Group-2" transform="translate(0.000000, 86.000000)">
                <g id="img">
                    <g id="ICONS-64x">
                        <g id="Group">
                            <g transform="translate(2.400000, 30.101695)" fill-rule="nonzero" id="Shape">
                                <path d="M2.328,16.4908475 C1.72,16.6942373 1.072,16.8813559 0.4,17.0684746 C4.448,-0.0162711864 12.4,3.06711864 12.4,3.06711864 L13.704,4.32 L13.752,4.48271186 C14.056,5.61355932 15.136,12.3579661 2.328,16.4908475 Z" fill="#FF9F2B"></path>
                                <path d="M2.328,16.4908475 C6.328,2.41627119 13.088,4.28745763 13.776,4.48271186 C14.056,5.61355932 15.136,12.3579661 2.328,16.4908475 Z" fill="#FF8C00"></path>
                                <polygon fill="#556A8A" points="14.408 7.71254237 8.752 1.96067797 13.272 0.805423729 15.4 2.97762712"></polygon>
                            </g>
                            <polygon id="Shape" fill="#7ED321" fill-rule="nonzero" points="17.936 25.0657627 2.664 24.4962712 0.4 22.1938983 13.408 15.8644068 18.848 17.9389831"></polygon>
                            <polygon id="Shape" fill="#7ED321" fill-rule="nonzero" points="24.4 29.76 24.968 45.2908475 27.232 47.5932203 33.448 34.3647458 31.408 28.8325424"></polygon>
                            <g transform="translate(12.800000, 0.000000)" id="Shape">
                                <path d="M8.552,36.6101695 L8.384,36.6101695 L8.248,36.4881356 L0.192,27.9376271 L0.192,27.7342373 C1.65321049,21.458496 4.84154131,15.73567 9.384,11.2352542 C16.696,3.83186441 33.76,0.724067797 34.48,0.593898305 L35.04,0.496271186 L34.944,1.06576271 C34.944,1.06576271 34.648,2.87186441 34.032,5.49966102 C32.368,12.6101695 29.392,22.0962712 24.648,26.9450847 C17.264,34.5030508 9.232,36.6101695 8.552,36.6101695 Z" fill="#FFFFFF" fill-rule="nonzero"></path>
                                <path d="M33.6,6.50847458 C32.248,12.2928814 29.312,22.3159322 24.32,27.4169492 C16.944,34.9830508 8.92,36.5288136 8.504,36.6101695 L4,32.0379661 C4,32.0379661 5.432,23.6420339 13.056,15.9294915 C18.072,10.8610169 27.904,7.87525424 33.6,6.50847458 Z" fill="#E5E5E5" fill-rule="nonzero"></path>
                                <path d="M35.2,0.244067797 C30.1819837,1.20164182 25.2755651,2.68760911 20.56,4.6779661 L31.28,15.579661 C32.9829553,10.5811243 34.2937247,5.4532091 35.2,0.244067797 Z" fill="#7ED321" fill-rule="nonzero"></path>
                                <path d="M8.552,36.6101695 L8.384,36.6101695 L8.248,36.4881356 L0.192,27.9376271 L0.192,27.7342373 C1.65321049,21.458496 4.84154131,15.73567 9.384,11.2352542 C16.696,3.83186441 33.76,0.724067797 34.48,0.593898305 L35.04,0.496271186 L34.944,1.06576271 C34.944,1.06576271 34.648,2.87186441 34.032,5.49966102 C32.368,12.6101695 29.392,22.0962712 24.648,26.9450847 C17.264,34.5030508 9.232,36.6101695 8.552,36.6101695 Z" stroke="#556A8A" stroke-width="2"></path>
                            </g>
                        </g>
                        <ellipse id="Oval" stroke="#556A8A" stroke-width="2" fill="#FFFFFF" fill-rule="nonzero" cx="29.2" cy="19.1186441" rx="4" ry="4.06779661"></ellipse>
                    </g>
                </g>
                <g id="one" transform="translate(49.000000, 35.000000)" fill-rule="nonzero">
                    <path d="M9.98317907,0.000120724346 C4.46961771,0.000120724346 0,4.46925553 0,9.9832998 C0,15.4963783 4.46961771,19.965996 9.98317907,19.965996 C15.496499,19.965996 19.9661167,15.4963783 19.9661167,9.9832998 C19.9661167,4.46925553 15.496499,0.000120724346 9.98317907,0.000120724346 Z" id="Shape" fill="#417505"></path>
                    <path d="M11.2179879,5.85187123 C11.0921932,5.69078471 10.9251911,5.61018109 10.7169416,5.61018109 C10.5321932,5.61018109 10.4064386,5.64555332 10.3396781,5.71629779 C10.2727968,5.78704225 10.1293763,5.97565392 9.90937626,6.28221328 C9.68925553,6.58873239 9.43678068,6.86579477 9.15191147,7.11336016 C8.86692153,7.36092555 8.48672032,7.59674044 8.01126761,7.82072435 C7.69295775,7.9701006 7.47086519,8.09187123 7.34515091,8.18619718 C7.21935614,8.28052314 7.15649899,8.42788732 7.15649899,8.62828974 C7.15649899,8.80124748 7.22032193,8.95352113 7.34808853,9.08515091 C7.47573441,9.21686117 7.62221328,9.28261569 7.78724346,9.28261569 C8.13299799,9.28261569 8.80503018,8.89947686 9.80325956,8.13315895 L9.80325956,13.4973843 C9.80325956,13.811831 9.87593561,14.0495775 10.0213682,14.210664 C10.1667203,14.3717505 10.3592757,14.4523541 10.5990342,14.4523541 C11.1373843,14.4523541 11.4065996,14.0574245 11.4065996,13.2675252 L11.4065996,6.51798793 C11.4066398,6.2350503 11.3437425,6.01307847 11.2179879,5.85187123 Z" id="Shape" fill="#FFFFFF"></path>
                </g>
            </g>
        </g>
    </g>
</svg>