<?xml version="1.0" encoding="UTF-8"?>
<svg width="57px" height="66px" viewBox="0 0 57 66" version="1.1" xmlns="http://www.w3.org/2000/svg" xmlns:xlink="http://www.w3.org/1999/xlink">
    <!-- Generator: Sketch 52.3 (67297) - http://www.bohemiancoding.com/sketch -->
    <title>Multiplayer Icon</title>
    <desc>Created with Sketch.</desc>
    <g id="Screen-States-of-Verticle-Slice" stroke="none" stroke-width="1" fill="none" fill-rule="evenodd">
        <g id="L1---Landing---Feature-Knowledge" transform="translate(-495.000000, -640.000000)">
            <g id="Multiplayer-Icon" transform="translate(496.000000, 641.000000)">
                <g id="internet" stroke="#556080" stroke-linecap="round" stroke-width="2">
                    <circle id="Oval" fill="#B8E986" fill-rule="nonzero" cx="27.5" cy="27.5" r="27.5"></circle>
                    <path d="M28,55 L28,0" id="Shape"></path>
                    <path d="M28,0 C27.786,0 27.574,0.0108035714 27.361,0.0157142857 C19.213,6.49785714 14,16.3988393 14,27.5 C14,38.6011607 19.213,48.5021429 27.361,54.9842857 C27.574,54.9891964 27.786,55 28,55" id="Shape"></path>
                    <path d="M9,8 C14.2669688,11.7834821 20.6365383,14 27.5,14 C34.3634617,14 40.7330312,11.7834821 46,8" id="Shape"></path>
                    <path d="M48,46 C42.215152,41.5974513 35.1440178,39 27.5,39 C19.8559822,39 12.784848,41.5974513 7,46" id="Shape"></path>
                    <path d="M28,55 C28.214,55 28.426,54.9891964 28.639,54.9842857 C36.787,48.5021429 42,38.6011607 42,27.5 C42,16.3988393 36.787,6.49785714 28.639,0.0157142857 C28.426,0.0108035714 28.214,0 28,0" id="Shape"></path>
                    <path d="M0,28 L55,28" id="Shape"></path>
                </g>
                <g id="controller" transform="translate(2.000000, 32.000000)" fill-rule="nonzero">
                    <path d="M52.8370676,26.4384595 L49.8381242,11.5461816 C48.2852606,3.83558347 40.967955,-1.18038137 33.4375169,0.24066018 L32.0645609,1.24370466 C31.8184937,1.42352507 31.5238225,1.52004304 31.2214617,1.52004304 L21.7784899,1.52004304 C21.4761291,1.52004304 21.1814579,1.42337658 20.9353908,1.24370466 L19.5624347,0.24066018 C12.0317065,-1.18067835 4.71469097,3.83543498 3.16182737,11.5461816 L0.162884041,26.4384595 C-0.0810068025,27.6492403 -0.04618598,28.869079 0.234992161,30.0166035 C0.922848491,32.8231977 4.2475116,33.9297391 6.44644654,32.110895 C9.90560507,29.2496568 14.4633606,25.5060959 14.5257479,25.4548671 C14.7832769,25.2434185 15.1036284,25.1280424 15.4338459,25.1280424 L37.5661057,25.1280424 C37.8961781,25.1280424 38.2165297,25.24327 38.4742038,25.4548671 C38.5367361,25.5060959 43.0943465,29.2496568 46.5535051,32.110895 C48.75244,33.9297391 52.076958,32.8231977 52.7649595,30.0166035 C53.0462827,28.869079 53.0809584,27.6492403 52.8370676,26.4384595 Z" id="Shape" fill="#417505"></path>
                    <path d="M27,1.52004304 L21.8312664,1.52004304 C21.5281728,1.52004304 21.2327875,1.42337658 20.9861241,1.24370466 L19.609841,0.24066018 C12.0608632,-1.18067835 4.72611622,3.83543498 3.16948952,11.5461816 L0.163278763,26.4384595 C-0.0812031086,27.6492403 -0.0462979039,28.869079 0.235561625,30.0166035 C0.925084857,32.8231977 4.25780472,33.9297391 6.4620684,32.110895 C9.92960961,29.2496568 14.49841,25.5060959 14.5609485,25.4548671 C14.8191016,25.2434185 15.1402295,25.1280424 15.4712472,25.1280424 L27,25.1280424 L27,1.52004304 Z" id="Shape" fill="#7ED321"></path>
                    <g id="Group" transform="translate(36.000000, 8.000000)" fill="#BDCFDF">
                        <ellipse id="Oval" cx="5.5" cy="2.23039474" rx="2.12666667" ry="2.09868421"></ellipse>
                        <ellipse id="Oval" cx="5.5" cy="8.88828947" rx="2.12666667" ry="2.09868421"></ellipse>
                        <ellipse id="Oval" cx="8.87333333" cy="5.55934211" rx="2.12666667" ry="2.09868421"></ellipse>
                        <ellipse id="Oval" cx="2.12666667" cy="5.55934211" rx="2.12666667" ry="2.09868421"></ellipse>
                    </g>
                    <circle id="Oval" fill="#6A8092" cx="11" cy="12" r="4"></circle>
                    <g id="Group" transform="translate(16.000000, 5.000000)" fill="#232575">
                        <polygon id="Shape" points="0.0180422535 0.03645 2.6903662 3.40515 18.1815634 3.40515 20.8538873 0.03645"></polygon>
                        <ellipse id="Oval" cx="16.0088028" cy="13.95" rx="3.85838028" ry="3.9135"></ellipse>
                        <path d="M7.90280282,11.93745 L6.37793662,11.93745 C6.10819014,11.93745 5.88961268,11.7156 5.88961268,11.44215 L5.88961268,9.8955 C5.88961268,9.6219 5.67088732,9.4002 5.40128873,9.4002 L3.02725352,9.4002 C2.75750704,9.4002 2.53892958,9.62205 2.53892958,9.8955 L2.53892958,11.44215 C2.53892958,11.71575 2.32020423,11.93745 2.05060563,11.93745 L0.525739437,11.93745 C0.255992958,11.93745 0.037415493,12.1593 0.037415493,12.43275 L0.037415493,14.8407 C0.037415493,15.1143 0.256140845,15.336 0.525739437,15.336 L2.05060563,15.336 C2.32035211,15.336 2.53892958,15.55785 2.53892958,15.8313 L2.53892958,17.37795 C2.53892958,17.65155 2.75765493,17.87325 3.02725352,17.87325 L5.40128873,17.87325 C5.67103521,17.87325 5.88961268,17.6514 5.88961268,17.37795 L5.88961268,15.8313 C5.88961268,15.5577 6.10833803,15.336 6.37793662,15.336 L7.90280282,15.336 C8.1725493,15.336 8.39112676,15.11415 8.39112676,14.8407 L8.39112676,12.43275 C8.39112676,12.1593 8.1725493,11.93745 7.90280282,11.93745 Z" id="Shape"></path>
                    </g>
                </g>
            </g>
        </g>
    </g>
</svg>