<?xml version="1.0" encoding="UTF-8"?>
<svg width="61px" height="64px" viewBox="0 0 61 64" version="1.1" xmlns="http://www.w3.org/2000/svg" xmlns:xlink="http://www.w3.org/1999/xlink">
    <!-- Generator: Sketch 52.3 (67297) - http://www.bohemiancoding.com/sketch -->
    <title>img</title>
    <desc>Created with Sketch.</desc>
    <g id="Screen-States-of-Verticle-Slice" stroke="none" stroke-width="1" fill="none" fill-rule="evenodd">
        <g id="L1---Landing---Feature-Knowledge" transform="translate(-843.000000, -637.000000)" fill-rule="nonzero">
            <g id="Group" transform="translate(747.000000, 628.000000)">
                <g id="img" transform="translate(96.000000, 9.000000)">
                    <g id="Layer_1">
                        <path d="M0,34.3148936 C0,35.2680851 0.608603774,35.9489362 1.46064906,35.9489362 L35.0555774,35.9489362 C35.9076226,35.9489362 36.5162264,35.2680851 36.5162264,34.3148936 L36.5162264,7.08085106 L0,7.08085106 L0,34.3148936 Z" id="Shape" fill="#B8E986"></path>
                        <path d="M35.0555774,0 L1.46064906,0 C0.608603774,0 0,0.680851064 0,1.63404255 L0,7.62553191 L36.5162264,7.62553191 L36.5162264,1.63404255 C36.5162264,0.680851064 35.9076226,0 35.0555774,0 Z" id="Shape" fill="#A0A1A2"></path>
                        <path d="M1.46064906,0 C0.608603774,0 0,0.680851064 0,1.63404255 L0,7.62553191 L0,10.3489362 L0,34.3148936 C0,35.2680851 0.608603774,35.9489362 1.46064906,35.9489362 L15.4585358,35.9489362 L31.8908377,0 L1.46064906,0 Z" id="Shape" fill="#FFFFFF" opacity="0.1"></path>
                        <path d="M6.28989307,17.1574468 L5.85902314,16.7489362 C5.71539983,16.612766 5.71539983,16.4765957 5.85902314,16.3404255 L7.00800962,15.387234 C7.00800962,15.387234 7.15163293,15.2510638 7.15163293,15.2510638 C7.29525624,15.2510638 7.29525624,15.2510638 7.29525624,15.387234 L10.454969,18.6553191 L16.0562781,11.9829787 C16.0562781,11.9829787 16.1999014,11.8468085 16.3435247,11.8468085 C16.3435247,11.8468085 16.487148,11.8468085 16.487148,11.8468085 L17.7797578,12.8 C17.7797578,12.8 17.9233811,12.9361702 17.9233811,12.9361702 C17.9233811,13.0723404 17.9233811,13.0723404 17.9233811,13.0723404 L10.7422157,21.6510638 L6.28989307,17.1574468 Z" id="Shape" fill="#FFFFFF"></path>
                        <path d="M6.28989307,27.7787234 L5.85902314,27.3702128 C5.71539983,27.2340426 5.71539983,27.0978723 5.85902314,26.9617021 L7.00800962,26.0085106 C7.00800962,26.0085106 7.15163293,25.8723404 7.15163293,25.8723404 C7.29525624,25.8723404 7.29525624,25.8723404 7.29525624,26.0085106 L10.454969,29.2765957 L16.0562781,22.6042553 C16.0562781,22.6042553 16.1999014,22.4680851 16.3435247,22.4680851 C16.3435247,22.4680851 16.487148,22.4680851 16.487148,22.4680851 L17.7797578,23.4212766 C17.7797578,23.4212766 17.9233811,23.5574468 17.9233811,23.5574468 C17.9233811,23.693617 17.9233811,23.693617 17.9233811,23.693617 L10.7422157,32.2723404 L6.28989307,27.7787234 Z" id="Shape" fill="#FFFFFF"></path>
                        <path d="M12.1720755,47.9319149 C12.1720755,48.8851064 12.7806792,49.5659574 13.6327245,49.5659574 L47.2276528,49.5659574 C48.0796981,49.5659574 48.6883019,48.8851064 48.6883019,47.9319149 L48.6883019,20.6978723 L12.1720755,20.6978723 L12.1720755,47.9319149 Z" id="Shape" fill="#7ED321"></path>
                        <path d="M47.2276528,13.6170213 L13.6327245,13.6170213 C12.7806792,13.6170213 12.1720755,14.2978723 12.1720755,15.2510638 L12.1720755,21.2425532 L48.6883019,21.2425532 L48.6883019,15.2510638 C48.6883019,14.2978723 48.0796981,13.6170213 47.2276528,13.6170213 Z" id="Shape" fill="#A0A1A2"></path>
                        <path d="M13.6327245,13.6170213 C12.7806792,13.6170213 12.1720755,14.2978723 12.1720755,15.2510638 L12.1720755,21.2425532 L12.1720755,23.9659574 L12.1720755,47.9319149 C12.1720755,48.8851064 12.7806792,49.5659574 13.6327245,49.5659574 L27.6306113,49.5659574 L44.0629132,13.6170213 L13.6327245,13.6170213 Z" id="Shape" fill="#FFFFFF" opacity="0.1"></path>
                        <path d="M18.4619685,30.7744681 L18.0310986,30.3659574 C17.8874753,30.2297872 17.8874753,30.093617 18.0310986,29.9574468 L19.1800851,29.0042553 C19.1800851,29.0042553 19.3237084,28.8680851 19.3237084,28.8680851 C19.4673317,28.8680851 19.4673317,28.8680851 19.4673317,29.0042553 L22.6270445,32.2723404 L28.2283536,25.6 C28.2283536,25.6 28.3719769,25.4638298 28.5156002,25.4638298 C28.5156002,25.4638298 28.6592235,25.4638298 28.6592235,25.4638298 L29.9518333,26.4170213 C29.9518333,26.4170213 30.0954566,26.5531915 30.0954566,26.5531915 C30.0954566,26.6893617 30.0954566,26.6893617 30.0954566,26.6893617 L22.9142911,35.2680851 L18.4619685,30.7744681 Z" id="Shape" fill="#FFFFFF"></path>
                        <path d="M18.4619685,41.3957447 L18.0310986,40.987234 C17.8874753,40.8510638 17.8874753,40.7148936 18.0310986,40.5787234 L19.1800851,39.6255319 C19.1800851,39.6255319 19.3237084,39.4893617 19.3237084,39.4893617 C19.4673317,39.4893617 19.4673317,39.4893617 19.4673317,39.6255319 L22.6270445,42.893617 L28.2283536,36.2212766 C28.2283536,36.2212766 28.3719769,36.0851064 28.5156002,36.0851064 C28.5156002,36.0851064 28.6592235,36.0851064 28.6592235,36.0851064 L29.9518333,37.0382979 C29.9518333,37.0382979 30.0954566,37.1744681 30.0954566,37.1744681 C30.0954566,37.3106383 30.0954566,37.3106383 30.0954566,37.3106383 L22.9142911,45.8893617 L18.4619685,41.3957447 Z" id="Shape" fill="#FFFFFF"></path>
                        <path d="M24.3441509,61.5489362 C24.3441509,62.5021277 24.9527547,63.1829787 25.8048,63.1829787 L59.3997283,63.1829787 C60.2517736,63.1829787 60.8603774,62.5021277 60.8603774,61.5489362 L60.8603774,34.3148936 L24.3441509,34.3148936 L24.3441509,61.5489362 Z" id="Shape" fill="#417505"></path>
                        <path d="M59.3997283,27.2340426 L25.8048,27.2340426 C24.9527547,27.2340426 24.3441509,27.9148936 24.3441509,28.8680851 L24.3441509,34.8595745 L60.8603774,34.8595745 L60.8603774,28.8680851 C60.8603774,27.9148936 60.2517736,27.2340426 59.3997283,27.2340426 Z" id="Shape" fill="#A0A1A2"></path>
                        <rect id="Rectangle-path" fill="#FFFFFF" opacity="0.15" x="24.3441509" y="34.8595745" width="36.5162264" height="2.72340426"></rect>
                        <path d="M25.8048,27.2340426 C24.9527547,27.2340426 24.3441509,27.9148936 24.3441509,28.8680851 L24.3441509,34.8595745 L24.3441509,37.5829787 L24.3441509,61.5489362 C24.3441509,62.5021277 24.9527547,63.1829787 25.8048,63.1829787 L39.8026868,63.1829787 L56.2349887,27.2340426 L25.8048,27.2340426 Z" id="Shape" fill="#FFFFFF" opacity="0.1"></path>
                        <path d="M30.634044,44.3914894 L30.2031741,43.9829787 C30.0595508,43.8468085 30.0595508,43.7106383 30.2031741,43.5744681 L31.3521606,42.6212766 C31.3521606,42.6212766 31.4957839,42.4851064 31.4957839,42.4851064 C31.6394072,42.4851064 31.6394072,42.4851064 31.6394072,42.6212766 L34.79912,45.8893617 L40.4004291,39.2170213 C40.4004291,39.2170213 40.5440524,39.0808511 40.6876757,39.0808511 C40.6876757,39.0808511 40.831299,39.0808511 40.831299,39.0808511 L42.1239088,40.0340426 C42.1239088,40.0340426 42.2675321,40.1702128 42.2675321,40.1702128 C42.2675321,40.306383 42.2675321,40.306383 42.2675321,40.306383 L35.0863666,48.8851064 L30.634044,44.3914894 Z" id="Shape" fill="#FFFFFF"></path>
                        <rect id="Rectangle-path" fill="#FFFFFF" opacity="0.6" x="40.4112906" y="44.2553191" width="14.6064906" height="2.72340426"></rect>
                        <path d="M30.634044,55.012766 L30.2031741,54.6042553 C30.0595508,54.4680851 30.0595508,54.3319149 30.2031741,54.1957447 L31.3521606,53.2425532 C31.3521606,53.2425532 31.4957839,53.106383 31.4957839,53.106383 C31.6394072,53.106383 31.6394072,53.106383 31.6394072,53.2425532 L34.79912,56.5106383 L40.4004291,49.8382979 C40.4004291,49.8382979 40.5440524,49.7021277 40.6876757,49.7021277 C40.6876757,49.7021277 40.831299,49.7021277 40.831299,49.7021277 L42.1239088,50.6553191 C42.1239088,50.6553191 42.2675321,50.7914894 42.2675321,50.7914894 C42.2675321,50.9276596 42.2675321,50.9276596 42.2675321,50.9276596 L35.0863666,59.506383 L30.634044,55.012766 Z" id="Shape" fill="#FFFFFF"></path>
                        <rect id="Rectangle-path" fill="#FFFFFF" opacity="0.6" x="40.4112906" y="55.012766" width="14.6064906" height="2.72340426"></rect>
                    </g>
                </g>
            </g>
        </g>
    </g>
</svg>