<?xml version="1.0" encoding="UTF-8"?>
<svg width="52px" height="64px" viewBox="0 0 52 64" version="1.1" xmlns="http://www.w3.org/2000/svg" xmlns:xlink="http://www.w3.org/1999/xlink">
    <!-- Generator: Sketch 52.3 (67297) - http://www.bohemiancoding.com/sketch -->
    <title>logo_android_black</title>
    <desc>Created with Sketch.</desc>
    <g id="Screen-States-of-Verticle-Slice" stroke="none" stroke-width="1" fill="none" fill-rule="evenodd">
        <g id="L1---Landing---Platforms" transform="translate(-519.000000, -626.000000)" fill-rule="nonzero">
            <g id="logo_android_black" transform="translate(519.000000, 626.000000)">
                <rect id="Rectangle-path" fill="#231F20" transform="translate(17.793200, 4.310100) rotate(-34.804012) translate(-17.793200, -4.310100) " x="17.2938755" y="-0.183820894" width="1" height="8.98784179" rx="0.5"></rect>
                <rect id="Rectangle-path" fill="#231F20" transform="translate(35.619193, 4.225191) rotate(-145.000000) translate(-35.619193, -4.225191) " x="35.119193" y="-0.274808672" width="1" height="9" rx="0.5"></rect>
                <g id="Group" transform="translate(0.000000, 22.000000)" fill="#231F20">
                    <path d="M4,2.16840434e-19 C2.95501173,-0.0160347242 1.9464661,0.383770009 1.19629391,1.11143703 C0.446121733,1.83910404 0.0157923858,2.83500804 -1.77635684e-15,3.88 L-1.77635684e-15,20.12 C0.0157923858,21.164992 0.446121733,22.160896 1.19629391,22.888563 C1.9464661,23.61623 2.95501173,24.0160347 4,24 C5.04498827,24.0160347 6.0535339,23.61623 6.80370609,22.888563 C7.55387827,22.160896 7.98420761,21.164992 8,20.12 L8,3.88 C7.98420761,2.83500804 7.55387827,1.83910404 6.80370609,1.11143703 C6.0535339,0.383770009 5.04498827,-0.0160347242 4,-3.55249684e-15" id="Shape"></path>
                    <path d="M19,17 C17.9550117,16.9839653 16.9464661,17.38377 16.1962939,18.111437 C15.4461217,18.839104 15.0157924,19.835008 15,20.88 L15,37.12 C15,39.329139 16.790861,41.12 19,41.12 C21.209139,41.12 23,39.329139 23,37.12 L23,20.88 C22.9842076,19.835008 22.5538783,18.839104 21.8037061,18.111437 C21.0535339,17.38377 20.0449883,16.9839653 19,17" id="Shape"></path>
                    <path d="M33,17 C31.9550117,16.9839653 30.9464661,17.38377 30.1962939,18.111437 C29.4461217,18.839104 29.0157924,19.835008 29,20.88 L29,37.12 C29,39.329139 30.790861,41.12 33,41.12 C35.209139,41.12 37,39.329139 37,37.12 L37,20.88 C36.9842076,19.835008 36.5538783,18.839104 35.8037061,18.111437 C35.0535339,17.38377 34.0449883,16.9839653 33,17" id="Shape"></path>
                    <path d="M48,1.62630326e-19 C46.9550117,-0.0160347242 45.9464661,0.383770009 45.1962939,1.11143703 C44.4461217,1.83910404 44.0157924,2.83500804 44,3.88 L44,20.12 C44,22.329139 45.790861,24.12 48,24.12 C50.209139,24.12 52,22.329139 52,20.12 L52,3.88 C51.9842076,2.83500804 51.5538783,1.83910404 50.8037061,1.11143703 C50.0535339,0.383770009 49.0449883,-0.0160347242 48,-3.55255105e-15" id="Shape"></path>
                </g>
                <path d="M9,45 C8.96101232,48.2635962 11.5666311,50.9451936 14.83,51 L37.17,51 C40.4333689,50.9451936 43.0389877,48.2635962 43,45 L43,23 L9,23 L9,45 Z" id="Shape" fill="#231F20"></path>
                <path d="M43,21.93 C43,12.5411593 35.3888407,4.93 26,4.93 C16.6111593,4.93 9,12.5411593 9,21.93 L43,21.93 Z" id="Shape" fill="#231F20"></path>
                <path d="M33.5,15 C32.6715729,15 32,14.3284271 32,13.5 C32,12.6715729 32.6715729,12 33.5,12 C34.3284271,12 35,12.6715729 35,13.5 C35,14.3284271 34.3284271,15 33.5,15" id="Shape" fill="#FFFFFF"></path>
                <path d="M18.5,15 C17.6715729,15 17,14.3284271 17,13.5 C17,12.6715729 17.6715729,12 18.5,12 C19.3284271,12 20,12.6715729 20,13.5 C20,14.3284271 19.3284271,15 18.5,15" id="Shape" fill="#FFFFFF"></path>
            </g>
        </g>
    </g>
</svg>