<?xml version="1.0" encoding="UTF-8"?>
<svg width="60px" height="44px" viewBox="0 0 60 44" version="1.1" xmlns="http://www.w3.org/2000/svg" xmlns:xlink="http://www.w3.org/1999/xlink">
    <!-- Generator: Sketch 52.3 (67297) - http://www.bohemiancoding.com/sketch -->
    <title>i_whats-new</title>
    <desc>Created with Sketch.</desc>
    <g id="Screen-States-of-Verticle-Slice" stroke="none" stroke-width="1" fill="none" fill-rule="evenodd">
        <g id="L1---Landing---Feature-Knowledge" transform="translate(-160.000000, -429.000000)">
            <g id="i_whats-new" transform="translate(160.000000, 430.000000)">
                <path d="M4.63,30 L8,30 L7.94,12 L4.63,12 C2.42,12 0,16.36 0,21 C0,25.64 2.42,30 4.63,30 Z" id="Shape" fill="#556A8A" fill-rule="nonzero"></path>
                <path d="M2.58,21.05 C2.58,16.05 4.32,12.05 6.52,12.05 C7.10608604,12.0130873 7.69391396,12.0130873 8.28,12.05 C10.19,12.72 10.53,16.51 10.55,20.98 C10.57,25.45 10.77,29.34 8.83,29.98 C8.66,30.03 6.83,29.98 6.61,29.98 C4.41,30 2.61,26 2.58,21.05 Z" id="Shape" fill="#7ED321" fill-rule="nonzero"></path>
                <path d="M26.35,24.7 L23.65,24.7 C19.4250217,24.7 16,28.1250217 16,32.35 C16,36.5749783 19.4250217,40 23.65,40 L26.35,40 C30.5749783,40 34,36.5749783 34,32.35 C34,28.1250217 30.5749783,24.7 26.35,24.7 Z" id="Shape" stroke="#556A8A" stroke-width="2"></path>
                <path d="M47,21 C47,12.26 48,5.19 50,2 C46.3,3.91 37.71,6.88 27.17,9.61 C22.21,10.91 8,13 8,13 C6.47,14.53 6.1,18.59 6,20.37 C6,20.64 6,20.85 6,21 C6,22.13 6.24,27.24 8,29 C8,29 22.21,31.09 27.17,32.39 C37.71,35.12 46.3,38.09 50,40 C48.4,37.46 47.44,32.38 47.13,25.93 C47.06,24.37 47,22.74 47,21 Z" id="Shape" fill="#FFFFFF" fill-rule="nonzero"></path>
                <path d="M50,40 C46.3,38.09 37.71,35.12 27.17,32.39 C22.21,31.09 8,29 8,29 C6.24,27.24 6,20.64 6.35,21.2 C6.35,21.2 18.35,22.75 25,24 C31.65,25.25 47,30 47,30 C47,35.62 48.4,37.46 50,40 Z" id="Shape" fill="#E5E5E5" fill-rule="nonzero"></path>
                <path d="M47,21 C47,13 47.83,6.39 49.5,2.92 C49.65,2.6 49.12,2.92 49.29,2.62 C48.82,2.86 50.1,2.06 49.48,2.34 C42.2154823,5.29234345 34.7540803,7.7349251 27.15,9.65 C22.21,10.91 8.05,13 8,13 C6.24,14.76 6,19.87 6,21 C6,21.3773832 6.02676822,22.1986728 6.12798315,23.190835 C6.32983646,25.1695077 6.82778273,27.8277827 8,29 C8.05,29 22.21,31.09 27.17,32.39 C37.71,35.12 44.67,37.5 48.37,39.39 C48.12,39 49.37,40 49.12,39.48 C47.6,35.93 47,28.68 47,21 Z" id="Shape" stroke="#556A8A" stroke-width="2"></path>
                <path d="M58.53,21 C58.53,29.33 56.21,36.48 54.29,39.7 C53.61,40.85 52.84,41.5 52.04,41.5 C51.1896042,41.4048865 50.4410716,40.8958844 50.04,40.14 C48.46,37.87 47.23,32.96 46.75,26.86 C46.6,25 46.52,23.04 46.52,21 C46.52,18.96 46.6,17 46.75,15.1 C47.24,9.02 48.46,4.1 50.04,1.87 C50.4372487,1.10905777 51.1869377,0.595520825 52.04,0.5 C52.84,0.5 53.61,1.14 54.29,2.31 C56.21,5.55 58.53,12.71 58.53,21 Z" id="Shape" fill="#7ED321" fill-rule="nonzero"></path>
                <path d="M54,21 C54,24.3137085 51.3137085,27 48,27 C47.5903323,27.001136 47.1815954,26.9609324 46.78,26.88 C46.63,25.02 46.55,23.06 46.55,21.02 C46.55,18.98 46.63,17.02 46.78,15.12 C47.1815853,15.0390001 47.5903291,14.9987958 48,15 C51.3137085,15 54,17.6862915 54,21 Z" id="Shape" fill="#556A8A" fill-rule="nonzero"></path>
                <path d="M58.53,21 C58.53,29.33 56.21,36.48 54.29,39.7 C53.61,40.85 52.84,41.5 52.04,41.5 C51.1883487,41.4082915 50.4383666,40.8983037 50.04,40.14 C48,37.2 46.55,29.76 46.55,21 C46.55,12.24 48,4.84 50.07,1.89 C50.4686067,1.13026381 51.2175716,0.617222848 52.07,0.52 C52.87,0.52 53.64,1.17 54.32,2.33 C56.21,5.55 58.53,12.71 58.53,21 Z" id="Shape" stroke="#556A8A" stroke-width="2"></path>
            </g>
        </g>
    </g>
</svg>